<?xml version="1.0" encoding="UTF-8"?>
<!DOCTYPE svg PUBLIC "-//W3C//DTD SVG 1.1//EN" "http://www.w3.org/Graphics/SVG/1.1/DTD/svg11.dtd">
<svg version="1.2" width="260mm" height="140mm" viewBox="0 0 26000 14000" preserveAspectRatio="xMidYMid" fill-rule="evenodd" stroke-width="28.222" stroke-linejoin="round" xmlns="http://www.w3.org/2000/svg" xmlns:ooo="http://xml.openoffice.org/svg/export" xmlns:xlink="http://www.w3.org/1999/xlink" xmlns:presentation="http://sun.com/xmlns/staroffice/presentation" xmlns:smil="http://www.w3.org/2001/SMIL20/" xmlns:anim="urn:oasis:names:tc:opendocument:xmlns:animation:1.0" xmlns:svg="urn:oasis:names:tc:opendocument:xmlns:svg-compatible:1.0" xml:space="preserve">
 <defs class="ClipPathGroup">
  <clipPath id="presentation_clip_path" clipPathUnits="userSpaceOnUse">
   <rect x="0" y="0" width="26000" height="14000"/>
  </clipPath>
  <clipPath id="presentation_clip_path_shrink" clipPathUnits="userSpaceOnUse">
   <rect x="26" y="14" width="25948" height="13972"/>
  </clipPath>
 </defs>
 <defs class="TextShapeIndex">
  <g ooo:slide="id1" ooo:id-list="id3 id4 id5 id6 id7 id8 id9 id10 id11 id12 id13 id14 id15 id16 id17 id18 id19 id20 id21 id22 id23 id24 id25 id26 id27 id28 id29 id30 id31 id32 id33 id34 id35 id36 id37 id38 id39 id40 id41 id42 id43 id44 id45 id46 id47 id48 id49 id50 id51 id52 id53 id54 id55 id56 id57 id58 id59 id60 id61 id62 id63 id64 id65 id66 id67 id68 id69 id70 id71 id72 id73 id74 id75 id76 id77 id78 id79 id80 id81 id82 id83 id84 id85 id86 id87 id88 id89 id90"/>
 </defs>
 <defs class="EmbeddedBulletChars">
  <g id="bullet-char-template-57356" transform="scale(0.00048828125,-0.00048828125)">
   <path d="M 580,1141 L 1163,571 580,0 -4,571 580,1141 Z"/>
  </g>
  <g id="bullet-char-template-57354" transform="scale(0.00048828125,-0.00048828125)">
   <path d="M 8,1128 L 1137,1128 1137,0 8,0 8,1128 Z"/>
  </g>
  <g id="bullet-char-template-10146" transform="scale(0.00048828125,-0.00048828125)">
   <path d="M 174,0 L 602,739 174,1481 1456,739 174,0 Z M 1358,739 L 309,1346 659,739 1358,739 Z"/>
  </g>
  <g id="bullet-char-template-10132" transform="scale(0.00048828125,-0.00048828125)">
   <path d="M 2015,739 L 1276,0 717,0 1260,543 174,543 174,936 1260,936 717,1481 1274,1481 2015,739 Z"/>
  </g>
  <g id="bullet-char-template-10007" transform="scale(0.00048828125,-0.00048828125)">
   <path d="M 0,-2 C -7,14 -16,27 -25,37 L 356,567 C 262,823 215,952 215,954 215,979 228,992 255,992 264,992 276,990 289,987 310,991 331,999 354,1012 L 381,999 492,748 772,1049 836,1024 860,1049 C 881,1039 901,1025 922,1006 886,937 835,863 770,784 769,783 710,716 594,584 L 774,223 C 774,196 753,168 711,139 L 727,119 C 717,90 699,76 672,76 641,76 570,178 457,381 L 164,-76 C 142,-110 111,-127 72,-127 30,-127 9,-110 8,-76 1,-67 -2,-52 -2,-32 -2,-23 -1,-13 0,-2 Z"/>
  </g>
  <g id="bullet-char-template-10004" transform="scale(0.00048828125,-0.00048828125)">
   <path d="M 285,-33 C 182,-33 111,30 74,156 52,228 41,333 41,471 41,549 55,616 82,672 116,743 169,778 240,778 293,778 328,747 346,684 L 369,508 C 377,444 397,411 428,410 L 1163,1116 C 1174,1127 1196,1133 1229,1133 1271,1133 1292,1118 1292,1087 L 1292,965 C 1292,929 1282,901 1262,881 L 442,47 C 390,-6 338,-33 285,-33 Z"/>
  </g>
  <g id="bullet-char-template-9679" transform="scale(0.00048828125,-0.00048828125)">
   <path d="M 813,0 C 632,0 489,54 383,161 276,268 223,411 223,592 223,773 276,916 383,1023 489,1130 632,1184 813,1184 992,1184 1136,1130 1245,1023 1353,916 1407,772 1407,592 1407,412 1353,268 1245,161 1136,54 992,0 813,0 Z"/>
  </g>
  <g id="bullet-char-template-8226" transform="scale(0.00048828125,-0.00048828125)">
   <path d="M 346,457 C 273,457 209,483 155,535 101,586 74,649 74,723 74,796 101,859 155,911 209,963 273,989 346,989 419,989 480,963 531,910 582,859 608,796 608,723 608,648 583,586 532,535 482,483 420,457 346,457 Z"/>
  </g>
  <g id="bullet-char-template-8211" transform="scale(0.00048828125,-0.00048828125)">
   <path d="M -4,459 L 1135,459 1135,606 -4,606 -4,459 Z"/>
  </g>
  <g id="bullet-char-template-61548" transform="scale(0.00048828125,-0.00048828125)">
   <path d="M 173,740 C 173,903 231,1043 346,1159 462,1274 601,1332 765,1332 928,1332 1067,1274 1183,1159 1299,1043 1357,903 1357,740 1357,577 1299,437 1183,322 1067,206 928,148 765,148 601,148 462,206 346,322 231,437 173,577 173,740 Z"/>
  </g>
 </defs>
 <g>
  <g id="id2" class="Master_Slide">
   <g id="bg-id2" class="Background"/>
   <g id="bo-id2" class="BackgroundObjects"/>
  </g>
 </g>
 <g class="SlideGroup">
  <g>
   <g id="container-id1">
    <g id="id1" class="Slide" clip-path="url(#presentation_clip_path)">
     <g class="Page">
      <g class="com.sun.star.drawing.CustomShape">
       <g id="id3">
        <rect class="BoundingBox" stroke="none" fill="none" x="4750" y="5740" width="501" height="7251"/>
        <path fill="rgb(255,255,255)" stroke="none" d="M 5000,12990 L 4750,12990 4750,5740 5250,5740 5250,12990 5000,12990 Z"/>
       </g>
      </g>
      <g class="Group">
       <g class="com.sun.star.drawing.CustomShape">
        <g id="id4">
         <rect class="BoundingBox" stroke="none" fill="none" x="1000" y="2680" width="3501" height="3001"/>
         <path fill="rgb(0,0,0)" stroke="none" d="M 2750,5680 L 1000,5680 1000,2680 4500,2680 4500,5680 2750,5680 Z"/>
        </g>
       </g>
       <g class="Group">
        <g class="com.sun.star.drawing.CustomShape">
         <g id="id5">
          <rect class="BoundingBox" stroke="none" fill="none" x="1000" y="3930" width="3003" height="3002"/>
          <path fill="rgb(0,0,0)" stroke="none" d="M 4001,5431 C 4001,5694 3932,5953 3800,6181 3668,6409 3479,6598 3251,6730 3023,6862 2764,6931 2501,6931 2237,6931 1978,6862 1750,6730 1522,6598 1333,6409 1201,6181 1069,5953 1000,5694 1000,5431 1000,5167 1069,4908 1201,4680 1333,4452 1522,4263 1750,4131 1978,3999 2237,3930 2500,3930 2764,3930 3023,3999 3251,4131 3479,4263 3668,4452 3800,4680 3932,4908 4001,5167 4001,5430 L 4001,5431 Z"/>
         </g>
        </g>
        <g class="Group">
         <g class="com.sun.star.drawing.CustomShape">
          <g id="id6">
           <rect class="BoundingBox" stroke="none" fill="none" x="1000" y="1679" width="4963" height="4973"/>
           <path fill="rgb(0,0,0)" stroke="none" d="M 4602,5549 L 3242,6650 1000,3882 3720,1679 5962,4448 4602,5549 Z"/>
          </g>
         </g>
         <g class="com.sun.star.drawing.CustomShape">
          <g id="id7">
           <rect class="BoundingBox" stroke="none" fill="none" x="2250" y="4930" width="2751" height="2001"/>
           <path fill="rgb(0,0,0)" stroke="none" d="M 3625,6930 L 2250,6930 2250,4930 5000,4930 5000,6930 3625,6930 Z"/>
          </g>
         </g>
         <g class="com.sun.star.drawing.CustomShape">
          <g id="id8">
           <rect class="BoundingBox" stroke="none" fill="none" x="1000" y="930" width="3003" height="3002"/>
           <path fill="rgb(0,0,0)" stroke="none" d="M 4001,2431 C 4001,2694 3932,2953 3800,3181 3668,3409 3479,3598 3251,3730 3023,3862 2764,3931 2501,3931 2237,3931 1978,3862 1750,3730 1522,3598 1333,3409 1201,3181 1069,2953 1000,2694 1000,2431 1000,2167 1069,1908 1201,1680 1333,1452 1522,1263 1750,1131 1978,999 2237,930 2500,930 2764,930 3023,999 3251,1131 3479,1263 3668,1452 3800,1680 3932,1908 4001,2167 4001,2430 L 4001,2431 Z"/>
          </g>
         </g>
         <g class="com.sun.star.drawing.CustomShape">
          <g id="id9">
           <rect class="BoundingBox" stroke="none" fill="none" x="3500" y="3930" width="3002" height="3002"/>
           <path fill="rgb(0,0,0)" stroke="none" d="M 6501,5431 C 6501,5694 6432,5953 6300,6181 6168,6409 5979,6598 5751,6730 5523,6862 5264,6931 5001,6931 4737,6931 4478,6862 4250,6730 4022,6598 3833,6409 3701,6181 3569,5953 3500,5694 3500,5431 3500,5167 3569,4908 3701,4680 3833,4452 4022,4263 4250,4131 4478,3999 4737,3930 5000,3930 5264,3930 5523,3999 5751,4131 5979,4263 6168,4452 6300,4680 6432,4908 6501,5167 6501,5430 L 6501,5431 Z"/>
          </g>
         </g>
        </g>
       </g>
      </g>
      <g class="Group">
       <g class="com.sun.star.drawing.LineShape">
        <g id="id10">
         <rect class="BoundingBox" stroke="none" fill="none" x="920" y="2410" width="161" height="3161"/>
         <path fill="none" stroke="rgb(255,255,255)" stroke-width="159" stroke-linejoin="round" d="M 1000,2490 L 1000,5490"/>
        </g>
       </g>
       <g class="com.sun.star.drawing.LineShape">
        <g id="id11">
         <rect class="BoundingBox" stroke="none" fill="none" x="2420" y="6910" width="2661" height="161"/>
         <path fill="none" stroke="rgb(255,255,255)" stroke-width="159" stroke-linejoin="round" d="M 5000,6990 L 2500,6990"/>
        </g>
       </g>
       <g class="com.sun.star.drawing.LineShape">
        <g id="id12">
         <rect class="BoundingBox" stroke="none" fill="none" x="3486" y="1354" width="2674" height="3176"/>
         <path fill="none" stroke="rgb(255,255,255)" stroke-width="159" stroke-linejoin="round" d="M 6079,4449 L 3566,1434"/>
        </g>
       </g>
       <g class="com.sun.star.drawing.OpenBezierShape">
        <g id="id13">
         <rect class="BoundingBox" stroke="none" fill="none" x="920" y="5410" width="1661" height="1661"/>
         <path fill="none" stroke="rgb(255,255,255)" stroke-width="159" stroke-linejoin="round" stroke-linecap="round" d="M 2500,6990 C 1000,6990 1000,5490 1000,5490"/>
        </g>
       </g>
       <g class="com.sun.star.drawing.OpenBezierShape">
        <g id="id14">
         <rect class="BoundingBox" stroke="none" fill="none" x="920" y="910" width="1661" height="1661"/>
         <path fill="none" stroke="rgb(255,255,255)" stroke-width="159" stroke-linejoin="round" stroke-linecap="round" d="M 1000,2490 C 1000,990 2500,990 2500,990"/>
        </g>
       </g>
       <g class="com.sun.star.drawing.OpenBezierShape">
        <g id="id15">
         <rect class="BoundingBox" stroke="none" fill="none" x="4920" y="5410" width="1661" height="1661"/>
         <path fill="none" stroke="rgb(255,255,255)" stroke-width="159" stroke-linejoin="round" stroke-linecap="round" d="M 6500,5490 C 6500,6990 5000,6990 5000,6990"/>
        </g>
       </g>
       <g class="com.sun.star.drawing.OpenBezierShape">
        <g id="id16">
         <rect class="BoundingBox" stroke="none" fill="none" x="2420" y="910" width="1222" height="600"/>
         <path fill="none" stroke="rgb(255,255,255)" stroke-width="159" stroke-linejoin="round" stroke-linecap="round" d="M 2500,990 C 3178,991 3561,1429 3561,1429"/>
        </g>
       </g>
       <g class="com.sun.star.drawing.OpenBezierShape">
        <g id="id17">
         <rect class="BoundingBox" stroke="none" fill="none" x="5980" y="4350" width="601" height="1221"/>
         <path fill="none" stroke="rgb(255,255,255)" stroke-width="159" stroke-linejoin="round" stroke-linecap="round" d="M 6060,4430 C 6539,4909 6500,5490 6500,5490"/>
        </g>
       </g>
      </g>
      <g class="com.sun.star.drawing.CustomShape">
       <g id="id18">
        <rect class="BoundingBox" stroke="none" fill="none" x="1997" y="1987" width="1004" height="1004"/>
        <path fill="rgb(51,51,51)" stroke="none" d="M 3000,2489 C 3000,2577 2977,2663 2933,2739 2889,2816 2826,2879 2749,2923 2673,2967 2587,2990 2499,2990 2411,2990 2325,2967 2248,2923 2172,2879 2109,2816 2065,2739 2021,2663 1998,2577 1998,2489 1998,2401 2021,2315 2065,2239 2109,2162 2172,2099 2248,2055 2325,2011 2411,1988 2499,1988 2587,1988 2673,2011 2749,2055 2826,2099 2889,2162 2933,2238 2977,2315 3000,2401 3000,2489 L 3000,2489 Z"/>
       </g>
      </g>
      <g class="com.sun.star.drawing.CustomShape">
       <g id="id19">
        <rect class="BoundingBox" stroke="none" fill="none" x="1997" y="3487" width="1004" height="1004"/>
        <path fill="rgb(51,51,51)" stroke="none" d="M 3000,3989 C 3000,4077 2977,4163 2933,4240 2889,4316 2826,4379 2749,4423 2673,4467 2587,4490 2499,4490 2411,4490 2325,4467 2248,4423 2172,4379 2109,4316 2065,4240 2021,4163 1998,4077 1998,3989 1998,3901 2021,3815 2065,3739 2109,3662 2172,3599 2248,3555 2325,3511 2411,3488 2499,3488 2587,3488 2673,3511 2749,3555 2826,3599 2889,3662 2933,3738 2977,3815 3000,3901 3000,3989 L 3000,3989 Z"/>
       </g>
      </g>
      <g class="com.sun.star.drawing.CustomShape">
       <g id="id20">
        <rect class="BoundingBox" stroke="none" fill="none" x="1997" y="4988" width="1004" height="1003"/>
        <path fill="rgb(51,51,51)" stroke="none" d="M 3000,5489 C 3000,5577 2977,5663 2933,5740 2889,5816 2826,5879 2749,5923 2673,5967 2587,5990 2499,5990 2411,5990 2325,5967 2248,5923 2172,5879 2109,5816 2065,5740 2021,5663 1998,5577 1998,5489 1998,5401 2021,5315 2065,5239 2109,5162 2172,5099 2248,5055 2325,5011 2411,4988 2499,4988 2587,4988 2673,5011 2749,5055 2826,5099 2889,5162 2933,5239 2977,5315 3000,5401 3000,5489 L 3000,5489 Z"/>
       </g>
      </g>
      <g class="com.sun.star.drawing.CustomShape">
       <g id="id21">
        <rect class="BoundingBox" stroke="none" fill="none" x="4498" y="4988" width="1004" height="1003"/>
        <path fill="rgb(51,51,51)" stroke="none" d="M 5501,5489 C 5501,5577 5478,5663 5434,5740 5390,5816 5327,5879 5250,5923 5174,5967 5088,5990 5000,5990 4912,5990 4826,5967 4749,5923 4673,5879 4610,5816 4566,5740 4522,5663 4499,5577 4499,5489 4499,5401 4522,5315 4566,5239 4610,5162 4673,5099 4749,5055 4826,5011 4912,4988 5000,4988 5088,4988 5174,5011 5250,5055 5327,5099 5390,5162 5434,5239 5478,5315 5501,5401 5501,5489 L 5501,5489 Z"/>
       </g>
      </g>
      <g class="com.sun.star.drawing.CustomShape">
       <g id="id22">
        <rect class="BoundingBox" stroke="none" fill="none" x="4750" y="7990" width="501" height="1001"/>
        <path fill="rgb(0,0,0)" stroke="none" d="M 5000,8990 L 4750,8990 4750,7990 5250,7990 5250,8990 5000,8990 Z"/>
       </g>
      </g>
      <g class="com.sun.star.drawing.CustomShape">
       <g id="id23">
        <rect class="BoundingBox" stroke="none" fill="none" x="4750" y="9990" width="501" height="1001"/>
        <path fill="rgb(0,0,0)" stroke="none" d="M 5000,10990 L 4750,10990 4750,9990 5250,9990 5250,10990 5000,10990 Z"/>
       </g>
      </g>
      <g class="com.sun.star.drawing.CustomShape">
       <g id="id24">
        <rect class="BoundingBox" stroke="none" fill="none" x="4750" y="11990" width="501" height="1001"/>
        <path fill="rgb(0,0,0)" stroke="none" d="M 5000,12990 L 4750,12990 4750,11990 5250,11990 5250,12990 5000,12990 Z"/>
       </g>
      </g>
      <g class="com.sun.star.drawing.CustomShape">
       <g id="id25">
        <rect class="BoundingBox" stroke="none" fill="none" x="10750" y="5810" width="501" height="7251"/>
        <path fill="rgb(255,255,255)" stroke="none" d="M 11000,13060 L 10750,13060 10750,5810 11250,5810 11250,13060 11000,13060 Z"/>
       </g>
      </g>
      <g class="Group">
       <g class="com.sun.star.drawing.CustomShape">
        <g id="id26">
         <rect class="BoundingBox" stroke="none" fill="none" x="7000" y="2750" width="3501" height="3001"/>
         <path fill="rgb(0,0,0)" stroke="none" d="M 8750,5750 L 7000,5750 7000,2750 10500,2750 10500,5750 8750,5750 Z"/>
        </g>
       </g>
       <g class="Group">
        <g class="com.sun.star.drawing.CustomShape">
         <g id="id27">
          <rect class="BoundingBox" stroke="none" fill="none" x="7000" y="4000" width="3003" height="3002"/>
          <path fill="rgb(0,0,0)" stroke="none" d="M 10001,5501 C 10001,5764 9932,6023 9800,6251 9668,6479 9479,6668 9251,6800 9023,6932 8764,7001 8501,7001 8237,7001 7978,6932 7750,6800 7522,6668 7333,6479 7201,6251 7069,6023 7000,5764 7000,5501 7000,5237 7069,4978 7201,4750 7333,4522 7522,4333 7750,4201 7978,4069 8237,4000 8501,4000 8764,4000 9023,4069 9251,4201 9479,4333 9668,4522 9800,4750 9932,4978 10001,5237 10001,5500 L 10001,5501 Z"/>
         </g>
        </g>
        <g class="Group">
         <g class="com.sun.star.drawing.CustomShape">
          <g id="id28">
           <rect class="BoundingBox" stroke="none" fill="none" x="7000" y="1749" width="4963" height="4973"/>
           <path fill="rgb(0,0,0)" stroke="none" d="M 10602,5619 L 9242,6720 7000,3952 9720,1749 11962,4518 10602,5619 Z"/>
          </g>
         </g>
         <g class="com.sun.star.drawing.CustomShape">
          <g id="id29">
           <rect class="BoundingBox" stroke="none" fill="none" x="8250" y="5000" width="2751" height="2001"/>
           <path fill="rgb(0,0,0)" stroke="none" d="M 9625,7000 L 8250,7000 8250,5000 11000,5000 11000,7000 9625,7000 Z"/>
          </g>
         </g>
         <g class="com.sun.star.drawing.CustomShape">
          <g id="id30">
           <rect class="BoundingBox" stroke="none" fill="none" x="7000" y="1000" width="3003" height="3002"/>
           <path fill="rgb(0,0,0)" stroke="none" d="M 10001,2501 C 10001,2764 9932,3023 9800,3251 9668,3479 9479,3668 9251,3800 9023,3932 8764,4001 8501,4001 8237,4001 7978,3932 7750,3800 7522,3668 7333,3479 7201,3251 7069,3023 7000,2764 7000,2501 7000,2237 7069,1978 7201,1750 7333,1522 7522,1333 7750,1201 7978,1069 8237,1000 8501,1000 8764,1000 9023,1069 9251,1201 9479,1333 9668,1522 9800,1750 9932,1978 10001,2237 10001,2500 L 10001,2501 Z"/>
          </g>
         </g>
         <g class="com.sun.star.drawing.CustomShape">
          <g id="id31">
           <rect class="BoundingBox" stroke="none" fill="none" x="9500" y="4000" width="3002" height="3002"/>
           <path fill="rgb(0,0,0)" stroke="none" d="M 12501,5501 C 12501,5764 12432,6023 12300,6251 12168,6479 11979,6668 11751,6800 11523,6932 11264,7001 11001,7001 10737,7001 10478,6932 10250,6800 10022,6668 9833,6479 9701,6251 9569,6023 9500,5764 9500,5501 9500,5237 9569,4978 9701,4750 9833,4522 10022,4333 10250,4201 10478,4069 10737,4000 11001,4000 11264,4000 11523,4069 11751,4201 11979,4333 12168,4522 12300,4750 12432,4978 12501,5237 12501,5500 L 12501,5501 Z"/>
          </g>
         </g>
        </g>
       </g>
      </g>
      <g class="Group">
       <g class="com.sun.star.drawing.LineShape">
        <g id="id32">
         <rect class="BoundingBox" stroke="none" fill="none" x="6920" y="2480" width="161" height="3161"/>
         <path fill="none" stroke="rgb(255,255,255)" stroke-width="159" stroke-linejoin="round" d="M 7000,2560 L 7000,5560"/>
        </g>
       </g>
       <g class="com.sun.star.drawing.LineShape">
        <g id="id33">
         <rect class="BoundingBox" stroke="none" fill="none" x="8420" y="6980" width="2661" height="161"/>
         <path fill="none" stroke="rgb(255,255,255)" stroke-width="159" stroke-linejoin="round" d="M 11000,7060 L 8500,7060"/>
        </g>
       </g>
       <g class="com.sun.star.drawing.LineShape">
        <g id="id34">
         <rect class="BoundingBox" stroke="none" fill="none" x="9486" y="1424" width="2674" height="3176"/>
         <path fill="none" stroke="rgb(255,255,255)" stroke-width="159" stroke-linejoin="round" d="M 12079,4519 L 9566,1504"/>
        </g>
       </g>
       <g class="com.sun.star.drawing.OpenBezierShape">
        <g id="id35">
         <rect class="BoundingBox" stroke="none" fill="none" x="6920" y="5480" width="1661" height="1661"/>
         <path fill="none" stroke="rgb(255,255,255)" stroke-width="159" stroke-linejoin="round" stroke-linecap="round" d="M 8500,7060 C 7000,7060 7000,5560 7000,5560"/>
        </g>
       </g>
       <g class="com.sun.star.drawing.OpenBezierShape">
        <g id="id36">
         <rect class="BoundingBox" stroke="none" fill="none" x="6920" y="980" width="1661" height="1661"/>
         <path fill="none" stroke="rgb(255,255,255)" stroke-width="159" stroke-linejoin="round" stroke-linecap="round" d="M 7000,2560 C 7000,1060 8500,1060 8500,1060"/>
        </g>
       </g>
       <g class="com.sun.star.drawing.OpenBezierShape">
        <g id="id37">
         <rect class="BoundingBox" stroke="none" fill="none" x="10920" y="5480" width="1661" height="1661"/>
         <path fill="none" stroke="rgb(255,255,255)" stroke-width="159" stroke-linejoin="round" stroke-linecap="round" d="M 12500,5560 C 12500,7060 11000,7060 11000,7060"/>
        </g>
       </g>
       <g class="com.sun.star.drawing.OpenBezierShape">
        <g id="id38">
         <rect class="BoundingBox" stroke="none" fill="none" x="8420" y="980" width="1222" height="600"/>
         <path fill="none" stroke="rgb(255,255,255)" stroke-width="159" stroke-linejoin="round" stroke-linecap="round" d="M 8500,1060 C 9178,1061 9561,1499 9561,1499"/>
        </g>
       </g>
       <g class="com.sun.star.drawing.OpenBezierShape">
        <g id="id39">
         <rect class="BoundingBox" stroke="none" fill="none" x="11980" y="4420" width="601" height="1221"/>
         <path fill="none" stroke="rgb(255,255,255)" stroke-width="159" stroke-linejoin="round" stroke-linecap="round" d="M 12060,4500 C 12539,4979 12500,5560 12500,5560"/>
        </g>
       </g>
      </g>
      <g class="com.sun.star.drawing.CustomShape">
       <g id="id40">
        <rect class="BoundingBox" stroke="none" fill="none" x="7997" y="2057" width="1004" height="1004"/>
        <path fill="rgb(51,51,51)" stroke="none" d="M 9000,2559 C 9000,2647 8977,2733 8933,2810 8889,2886 8826,2949 8749,2993 8673,3037 8587,3060 8499,3060 8411,3060 8325,3037 8249,2993 8172,2949 8109,2886 8065,2810 8021,2733 7998,2647 7998,2559 7998,2471 8021,2385 8065,2309 8109,2232 8172,2169 8249,2125 8325,2081 8411,2058 8499,2058 8587,2058 8673,2081 8749,2125 8826,2169 8889,2232 8933,2308 8977,2385 9000,2471 9000,2559 L 9000,2559 Z"/>
       </g>
      </g>
      <g class="com.sun.star.drawing.CustomShape">
       <g id="id41">
        <rect class="BoundingBox" stroke="none" fill="none" x="7997" y="3557" width="1004" height="1004"/>
        <path fill="rgb(51,51,51)" stroke="none" d="M 9000,4059 C 9000,4147 8977,4233 8933,4310 8889,4386 8826,4449 8749,4493 8673,4537 8587,4560 8499,4560 8411,4560 8325,4537 8249,4493 8172,4449 8109,4386 8065,4310 8021,4233 7998,4147 7998,4059 7998,3971 8021,3885 8065,3809 8109,3732 8172,3669 8249,3625 8325,3581 8411,3558 8499,3558 8587,3558 8673,3581 8749,3625 8826,3669 8889,3732 8933,3808 8977,3885 9000,3971 9000,4059 L 9000,4059 Z"/>
       </g>
      </g>
      <g class="com.sun.star.drawing.CustomShape">
       <g id="id42">
        <rect class="BoundingBox" stroke="none" fill="none" x="10750" y="8060" width="501" height="1001"/>
        <path fill="rgb(0,0,0)" stroke="none" d="M 11000,9060 L 10750,9060 10750,8060 11250,8060 11250,9060 11000,9060 Z"/>
       </g>
      </g>
      <g class="com.sun.star.drawing.CustomShape">
       <g id="id43">
        <rect class="BoundingBox" stroke="none" fill="none" x="10750" y="10060" width="501" height="1001"/>
        <path fill="rgb(0,0,0)" stroke="none" d="M 11000,11060 L 10750,11060 10750,10060 11250,10060 11250,11060 11000,11060 Z"/>
       </g>
      </g>
      <g class="com.sun.star.drawing.CustomShape">
       <g id="id44">
        <rect class="BoundingBox" stroke="none" fill="none" x="10750" y="12060" width="501" height="1001"/>
        <path fill="rgb(0,0,0)" stroke="none" d="M 11000,13060 L 10750,13060 10750,12060 11250,12060 11250,13060 11000,13060 Z"/>
       </g>
      </g>
      <g class="com.sun.star.drawing.CustomShape">
       <g id="id45">
        <rect class="BoundingBox" stroke="none" fill="none" x="10498" y="4999" width="1003" height="1003"/>
        <path fill="rgb(255,150,0)" stroke="none" d="M 11500,5500 C 11500,5588 11477,5674 11433,5751 11389,5827 11326,5890 11249,5934 11173,5978 11087,6001 10999,6001 10911,6001 10825,5978 10748,5934 10672,5890 10609,5827 10565,5751 10521,5674 10498,5588 10498,5500 10498,5412 10521,5326 10565,5250 10609,5173 10672,5110 10748,5066 10825,5022 10911,4999 10999,4999 11087,4999 11173,5022 11249,5066 11326,5110 11389,5173 11433,5250 11477,5326 11500,5412 11500,5500 L 11500,5500 Z"/>
       </g>
      </g>
      <g class="com.sun.star.drawing.CustomShape">
       <g id="id46">
        <rect class="BoundingBox" stroke="none" fill="none" x="7999" y="4998" width="1003" height="1003"/>
        <path fill="rgb(255,150,0)" stroke="none" d="M 9001,5499 C 9001,5587 8978,5673 8934,5749 8890,5826 8827,5889 8751,5933 8674,5977 8588,6000 8500,6000 8412,6000 8326,5977 8250,5933 8173,5889 8110,5826 8066,5749 8022,5673 7999,5587 7999,5499 7999,5411 8022,5325 8066,5248 8110,5172 8173,5109 8250,5065 8326,5021 8412,4998 8500,4998 8588,4998 8674,5021 8751,5065 8827,5109 8890,5172 8934,5248 8978,5325 9001,5411 9001,5499 L 9001,5499 Z"/>
       </g>
      </g>
      <g class="com.sun.star.drawing.CustomShape">
       <g id="id47">
        <rect class="BoundingBox" stroke="none" fill="none" x="16500" y="5750" width="501" height="7251"/>
        <path fill="rgb(255,255,255)" stroke="none" d="M 16750,13000 L 16500,13000 16500,5750 17000,5750 17000,13000 16750,13000 Z"/>
       </g>
      </g>
      <g class="Group">
       <g class="com.sun.star.drawing.CustomShape">
        <g id="id48">
         <rect class="BoundingBox" stroke="none" fill="none" x="12750" y="2690" width="3501" height="3001"/>
         <path fill="rgb(0,0,0)" stroke="none" d="M 14500,5690 L 12750,5690 12750,2690 16250,2690 16250,5690 14500,5690 Z"/>
        </g>
       </g>
       <g class="Group">
        <g class="com.sun.star.drawing.CustomShape">
         <g id="id49">
          <rect class="BoundingBox" stroke="none" fill="none" x="12750" y="3940" width="3003" height="3002"/>
          <path fill="rgb(0,0,0)" stroke="none" d="M 15751,5441 C 15751,5704 15682,5963 15550,6191 15418,6419 15229,6608 15001,6740 14773,6872 14514,6941 14251,6941 13987,6941 13728,6872 13500,6740 13272,6608 13083,6419 12951,6191 12819,5963 12750,5704 12750,5441 12750,5177 12819,4918 12951,4690 13083,4462 13272,4273 13500,4141 13728,4009 13987,3940 14251,3940 14514,3940 14773,4009 15001,4141 15229,4273 15418,4462 15550,4690 15682,4918 15751,5177 15751,5440 L 15751,5441 Z"/>
         </g>
        </g>
        <g class="Group">
         <g class="com.sun.star.drawing.CustomShape">
          <g id="id50">
           <rect class="BoundingBox" stroke="none" fill="none" x="12750" y="1689" width="4963" height="4973"/>
           <path fill="rgb(0,0,0)" stroke="none" d="M 16352,5559 L 14992,6660 12750,3892 15470,1689 17712,4458 16352,5559 Z"/>
          </g>
         </g>
         <g class="com.sun.star.drawing.CustomShape">
          <g id="id51">
           <rect class="BoundingBox" stroke="none" fill="none" x="14000" y="4940" width="2751" height="2001"/>
           <path fill="rgb(0,0,0)" stroke="none" d="M 15375,6940 L 14000,6940 14000,4940 16750,4940 16750,6940 15375,6940 Z"/>
          </g>
         </g>
         <g class="com.sun.star.drawing.CustomShape">
          <g id="id52">
           <rect class="BoundingBox" stroke="none" fill="none" x="12750" y="940" width="3003" height="3002"/>
           <path fill="rgb(0,0,0)" stroke="none" d="M 15751,2441 C 15751,2704 15682,2963 15550,3191 15418,3419 15229,3608 15001,3740 14773,3872 14514,3941 14251,3941 13987,3941 13728,3872 13500,3740 13272,3608 13083,3419 12951,3191 12819,2963 12750,2704 12750,2441 12750,2177 12819,1918 12951,1690 13083,1462 13272,1273 13500,1141 13728,1009 13987,940 14251,940 14514,940 14773,1009 15001,1141 15229,1273 15418,1462 15550,1690 15682,1918 15751,2177 15751,2440 L 15751,2441 Z"/>
          </g>
         </g>
         <g class="com.sun.star.drawing.CustomShape">
          <g id="id53">
           <rect class="BoundingBox" stroke="none" fill="none" x="15250" y="3940" width="3002" height="3002"/>
           <path fill="rgb(0,0,0)" stroke="none" d="M 18251,5441 C 18251,5704 18182,5963 18050,6191 17918,6419 17729,6608 17501,6740 17273,6872 17014,6941 16751,6941 16487,6941 16228,6872 16000,6740 15772,6608 15583,6419 15451,6191 15319,5963 15250,5704 15250,5441 15250,5177 15319,4918 15451,4690 15583,4462 15772,4273 16000,4141 16228,4009 16487,3940 16751,3940 17014,3940 17273,4009 17501,4141 17729,4273 17918,4462 18050,4690 18182,4918 18251,5177 18251,5440 L 18251,5441 Z"/>
          </g>
         </g>
        </g>
       </g>
      </g>
      <g class="Group">
       <g class="com.sun.star.drawing.LineShape">
        <g id="id54">
         <rect class="BoundingBox" stroke="none" fill="none" x="12670" y="2420" width="161" height="3161"/>
         <path fill="none" stroke="rgb(255,255,255)" stroke-width="159" stroke-linejoin="round" d="M 12750,2500 L 12750,5500"/>
        </g>
       </g>
       <g class="com.sun.star.drawing.LineShape">
        <g id="id55">
         <rect class="BoundingBox" stroke="none" fill="none" x="14170" y="6920" width="2661" height="161"/>
         <path fill="none" stroke="rgb(255,255,255)" stroke-width="159" stroke-linejoin="round" d="M 16750,7000 L 14250,7000"/>
        </g>
       </g>
       <g class="com.sun.star.drawing.LineShape">
        <g id="id56">
         <rect class="BoundingBox" stroke="none" fill="none" x="15236" y="1364" width="2674" height="3176"/>
         <path fill="none" stroke="rgb(255,255,255)" stroke-width="159" stroke-linejoin="round" d="M 17829,4459 L 15316,1444"/>
        </g>
       </g>
       <g class="com.sun.star.drawing.OpenBezierShape">
        <g id="id57">
         <rect class="BoundingBox" stroke="none" fill="none" x="12670" y="5420" width="1661" height="1661"/>
         <path fill="none" stroke="rgb(255,255,255)" stroke-width="159" stroke-linejoin="round" stroke-linecap="round" d="M 14250,7000 C 12750,7000 12750,5500 12750,5500"/>
        </g>
       </g>
       <g class="com.sun.star.drawing.OpenBezierShape">
        <g id="id58">
         <rect class="BoundingBox" stroke="none" fill="none" x="12670" y="920" width="1661" height="1661"/>
         <path fill="none" stroke="rgb(255,255,255)" stroke-width="159" stroke-linejoin="round" stroke-linecap="round" d="M 12750,2500 C 12750,1000 14250,1000 14250,1000"/>
        </g>
       </g>
       <g class="com.sun.star.drawing.OpenBezierShape">
        <g id="id59">
         <rect class="BoundingBox" stroke="none" fill="none" x="16670" y="5420" width="1661" height="1661"/>
         <path fill="none" stroke="rgb(255,255,255)" stroke-width="159" stroke-linejoin="round" stroke-linecap="round" d="M 18250,5500 C 18250,7000 16750,7000 16750,7000"/>
        </g>
       </g>
       <g class="com.sun.star.drawing.OpenBezierShape">
        <g id="id60">
         <rect class="BoundingBox" stroke="none" fill="none" x="14170" y="920" width="1222" height="600"/>
         <path fill="none" stroke="rgb(255,255,255)" stroke-width="159" stroke-linejoin="round" stroke-linecap="round" d="M 14250,1000 C 14928,1001 15311,1439 15311,1439"/>
        </g>
       </g>
       <g class="com.sun.star.drawing.OpenBezierShape">
        <g id="id61">
         <rect class="BoundingBox" stroke="none" fill="none" x="17730" y="4360" width="601" height="1221"/>
         <path fill="none" stroke="rgb(255,255,255)" stroke-width="159" stroke-linejoin="round" stroke-linecap="round" d="M 17810,4440 C 18289,4919 18250,5500 18250,5500"/>
        </g>
       </g>
      </g>
      <g class="com.sun.star.drawing.CustomShape">
       <g id="id62">
        <rect class="BoundingBox" stroke="none" fill="none" x="13747" y="4997" width="1004" height="1004"/>
        <path fill="rgb(51,51,51)" stroke="none" d="M 14750,5499 C 14750,5587 14727,5673 14683,5749 14639,5826 14576,5889 14499,5933 14423,5977 14337,6000 14249,6000 14161,6000 14075,5977 13998,5933 13922,5889 13859,5826 13815,5749 13771,5673 13748,5587 13748,5499 13748,5411 13771,5325 13815,5248 13859,5172 13922,5109 13998,5065 14075,5021 14161,4998 14249,4998 14337,4998 14423,5021 14499,5065 14576,5109 14639,5172 14683,5248 14727,5325 14750,5411 14750,5499 L 14750,5499 Z"/>
       </g>
      </g>
      <g class="com.sun.star.drawing.CustomShape">
       <g id="id63">
        <rect class="BoundingBox" stroke="none" fill="none" x="16248" y="4997" width="1004" height="1004"/>
        <path fill="rgb(51,51,51)" stroke="none" d="M 17251,5499 C 17251,5587 17228,5673 17184,5749 17140,5826 17077,5889 17001,5933 16924,5977 16838,6000 16750,6000 16662,6000 16576,5977 16500,5933 16423,5889 16360,5826 16316,5749 16272,5673 16249,5587 16249,5499 16249,5411 16272,5325 16316,5248 16360,5172 16423,5109 16500,5065 16576,5021 16662,4998 16750,4998 16838,4998 16924,5021 17001,5065 17077,5109 17140,5172 17184,5248 17228,5325 17251,5411 17251,5499 L 17251,5499 Z"/>
       </g>
      </g>
      <g class="com.sun.star.drawing.CustomShape">
       <g id="id64">
        <rect class="BoundingBox" stroke="none" fill="none" x="16500" y="8000" width="501" height="1001"/>
        <path fill="rgb(0,0,0)" stroke="none" d="M 16750,9000 L 16500,9000 16500,8000 17000,8000 17000,9000 16750,9000 Z"/>
       </g>
      </g>
      <g class="com.sun.star.drawing.CustomShape">
       <g id="id65">
        <rect class="BoundingBox" stroke="none" fill="none" x="16500" y="10000" width="501" height="1001"/>
        <path fill="rgb(0,0,0)" stroke="none" d="M 16750,11000 L 16500,11000 16500,10000 17000,10000 17000,11000 16750,11000 Z"/>
       </g>
      </g>
      <g class="com.sun.star.drawing.CustomShape">
       <g id="id66">
        <rect class="BoundingBox" stroke="none" fill="none" x="16500" y="12000" width="501" height="1001"/>
        <path fill="rgb(0,0,0)" stroke="none" d="M 16750,13000 L 16500,13000 16500,12000 17000,12000 17000,13000 16750,13000 Z"/>
       </g>
      </g>
      <g class="com.sun.star.drawing.CustomShape">
       <g id="id67">
        <rect class="BoundingBox" stroke="none" fill="none" x="13748" y="3499" width="1003" height="1003"/>
        <path fill="rgb(238,238,238)" stroke="none" d="M 14750,4000 C 14750,4088 14727,4174 14683,4251 14639,4327 14576,4390 14499,4434 14423,4478 14337,4501 14249,4501 14161,4501 14075,4478 13998,4434 13922,4390 13859,4327 13815,4251 13771,4174 13748,4088 13748,4000 13748,3912 13771,3826 13815,3750 13859,3673 13922,3610 13998,3566 14075,3522 14161,3499 14249,3499 14337,3499 14423,3522 14499,3566 14576,3610 14639,3673 14683,3750 14727,3826 14750,3912 14750,4000 L 14750,4000 Z"/>
       </g>
      </g>
      <g class="com.sun.star.drawing.CustomShape">
       <g id="id68">
        <rect class="BoundingBox" stroke="none" fill="none" x="13748" y="1998" width="1003" height="1003"/>
        <path fill="rgb(238,238,238)" stroke="none" d="M 14750,2499 C 14750,2587 14727,2673 14683,2749 14639,2826 14576,2889 14499,2933 14423,2977 14337,3000 14249,3000 14161,3000 14075,2977 13998,2933 13922,2889 13859,2826 13815,2749 13771,2673 13748,2587 13748,2499 13748,2411 13771,2325 13815,2248 13859,2172 13922,2109 13998,2065 14075,2021 14161,1998 14249,1998 14337,1998 14423,2021 14499,2065 14576,2109 14639,2172 14683,2248 14727,2325 14750,2411 14750,2499 L 14750,2499 Z"/>
       </g>
      </g>
      <g class="com.sun.star.drawing.CustomShape">
       <g id="id69">
        <rect class="BoundingBox" stroke="none" fill="none" x="22500" y="5810" width="501" height="7251"/>
        <path fill="rgb(255,255,255)" stroke="none" d="M 22750,13060 L 22500,13060 22500,5810 23000,5810 23000,13060 22750,13060 Z"/>
       </g>
      </g>
      <g class="Group">
       <g class="com.sun.star.drawing.CustomShape">
        <g id="id70">
         <rect class="BoundingBox" stroke="none" fill="none" x="18750" y="2750" width="3501" height="3001"/>
         <path fill="rgb(0,0,0)" stroke="none" d="M 20500,5750 L 18750,5750 18750,2750 22250,2750 22250,5750 20500,5750 Z"/>
        </g>
       </g>
       <g class="Group">
        <g class="com.sun.star.drawing.CustomShape">
         <g id="id71">
          <rect class="BoundingBox" stroke="none" fill="none" x="18750" y="4000" width="3002" height="3002"/>
          <path fill="rgb(0,0,0)" stroke="none" d="M 21751,5501 C 21751,5764 21682,6023 21550,6251 21418,6479 21229,6668 21001,6800 20773,6932 20514,7001 20251,7001 19987,7001 19728,6932 19500,6800 19272,6668 19083,6479 18951,6251 18819,6023 18750,5764 18750,5501 18750,5237 18819,4978 18951,4750 19083,4522 19272,4333 19500,4201 19728,4069 19987,4000 20251,4000 20514,4000 20773,4069 21001,4201 21229,4333 21418,4522 21550,4750 21682,4978 21751,5237 21751,5500 L 21751,5501 Z"/>
         </g>
        </g>
        <g class="Group">
         <g class="com.sun.star.drawing.CustomShape">
          <g id="id72">
           <rect class="BoundingBox" stroke="none" fill="none" x="18750" y="1749" width="4963" height="4973"/>
           <path fill="rgb(0,0,0)" stroke="none" d="M 22352,5619 L 20992,6720 18750,3952 21470,1749 23712,4518 22352,5619 Z"/>
          </g>
         </g>
         <g class="com.sun.star.drawing.CustomShape">
          <g id="id73">
           <rect class="BoundingBox" stroke="none" fill="none" x="20000" y="5000" width="2751" height="2001"/>
           <path fill="rgb(0,0,0)" stroke="none" d="M 21375,7000 L 20000,7000 20000,5000 22750,5000 22750,7000 21375,7000 Z"/>
          </g>
         </g>
         <g class="com.sun.star.drawing.CustomShape">
          <g id="id74">
           <rect class="BoundingBox" stroke="none" fill="none" x="18750" y="1000" width="3002" height="3002"/>
           <path fill="rgb(0,0,0)" stroke="none" d="M 21751,2501 C 21751,2764 21682,3023 21550,3251 21418,3479 21229,3668 21001,3800 20773,3932 20514,4001 20251,4001 19987,4001 19728,3932 19500,3800 19272,3668 19083,3479 18951,3251 18819,3023 18750,2764 18750,2501 18750,2237 18819,1978 18951,1750 19083,1522 19272,1333 19500,1201 19728,1069 19987,1000 20251,1000 20514,1000 20773,1069 21001,1201 21229,1333 21418,1522 21550,1750 21682,1978 21751,2237 21751,2500 L 21751,2501 Z"/>
          </g>
         </g>
         <g class="com.sun.star.drawing.CustomShape">
          <g id="id75">
           <rect class="BoundingBox" stroke="none" fill="none" x="21250" y="4000" width="3003" height="3002"/>
           <path fill="rgb(0,0,0)" stroke="none" d="M 24251,5501 C 24251,5764 24182,6023 24050,6251 23918,6479 23729,6668 23501,6800 23273,6932 23014,7001 22751,7001 22487,7001 22228,6932 22000,6800 21772,6668 21583,6479 21451,6251 21319,6023 21250,5764 21250,5501 21250,5237 21319,4978 21451,4750 21583,4522 21772,4333 22000,4201 22228,4069 22487,4000 22751,4000 23014,4000 23273,4069 23501,4201 23729,4333 23918,4522 24050,4750 24182,4978 24251,5237 24251,5500 L 24251,5501 Z"/>
          </g>
         </g>
        </g>
       </g>
      </g>
      <g class="Group">
       <g class="com.sun.star.drawing.LineShape">
        <g id="id76">
         <rect class="BoundingBox" stroke="none" fill="none" x="18670" y="2480" width="161" height="3161"/>
         <path fill="none" stroke="rgb(255,255,255)" stroke-width="159" stroke-linejoin="round" d="M 18750,2560 L 18750,5560"/>
        </g>
       </g>
       <g class="com.sun.star.drawing.LineShape">
        <g id="id77">
         <rect class="BoundingBox" stroke="none" fill="none" x="20170" y="6980" width="2661" height="161"/>
         <path fill="none" stroke="rgb(255,255,255)" stroke-width="159" stroke-linejoin="round" d="M 22750,7060 L 20250,7060"/>
        </g>
       </g>
       <g class="com.sun.star.drawing.LineShape">
        <g id="id78">
         <rect class="BoundingBox" stroke="none" fill="none" x="21236" y="1424" width="2674" height="3176"/>
         <path fill="none" stroke="rgb(255,255,255)" stroke-width="159" stroke-linejoin="round" d="M 23829,4519 L 21316,1504"/>
        </g>
       </g>
       <g class="com.sun.star.drawing.OpenBezierShape">
        <g id="id79">
         <rect class="BoundingBox" stroke="none" fill="none" x="18670" y="5480" width="1661" height="1661"/>
         <path fill="none" stroke="rgb(255,255,255)" stroke-width="159" stroke-linejoin="round" stroke-linecap="round" d="M 20250,7060 C 18750,7060 18750,5560 18750,5560"/>
        </g>
       </g>
       <g class="com.sun.star.drawing.OpenBezierShape">
        <g id="id80">
         <rect class="BoundingBox" stroke="none" fill="none" x="18670" y="980" width="1661" height="1661"/>
         <path fill="none" stroke="rgb(255,255,255)" stroke-width="159" stroke-linejoin="round" stroke-linecap="round" d="M 18750,2560 C 18750,1060 20250,1060 20250,1060"/>
        </g>
       </g>
       <g class="com.sun.star.drawing.OpenBezierShape">
        <g id="id81">
         <rect class="BoundingBox" stroke="none" fill="none" x="22670" y="5480" width="1661" height="1661"/>
         <path fill="none" stroke="rgb(255,255,255)" stroke-width="159" stroke-linejoin="round" stroke-linecap="round" d="M 24250,5560 C 24250,7060 22750,7060 22750,7060"/>
        </g>
       </g>
       <g class="com.sun.star.drawing.OpenBezierShape">
        <g id="id82">
         <rect class="BoundingBox" stroke="none" fill="none" x="20170" y="980" width="1222" height="600"/>
         <path fill="none" stroke="rgb(255,255,255)" stroke-width="159" stroke-linejoin="round" stroke-linecap="round" d="M 20250,1060 C 20928,1061 21311,1499 21311,1499"/>
        </g>
       </g>
       <g class="com.sun.star.drawing.OpenBezierShape">
        <g id="id83">
         <rect class="BoundingBox" stroke="none" fill="none" x="23730" y="4420" width="601" height="1221"/>
         <path fill="none" stroke="rgb(255,255,255)" stroke-width="159" stroke-linejoin="round" stroke-linecap="round" d="M 23810,4500 C 24289,4979 24250,5560 24250,5560"/>
        </g>
       </g>
      </g>
      <g class="com.sun.star.drawing.CustomShape">
       <g id="id84">
        <rect class="BoundingBox" stroke="none" fill="none" x="22500" y="8060" width="501" height="1001"/>
        <path fill="rgb(0,0,0)" stroke="none" d="M 22750,9060 L 22500,9060 22500,8060 23000,8060 23000,9060 22750,9060 Z"/>
       </g>
      </g>
      <g class="com.sun.star.drawing.CustomShape">
       <g id="id85">
        <rect class="BoundingBox" stroke="none" fill="none" x="22500" y="10060" width="501" height="1001"/>
        <path fill="rgb(0,0,0)" stroke="none" d="M 22750,11060 L 22500,11060 22500,10060 23000,10060 23000,11060 22750,11060 Z"/>
       </g>
      </g>
      <g class="com.sun.star.drawing.CustomShape">
       <g id="id86">
        <rect class="BoundingBox" stroke="none" fill="none" x="22500" y="12060" width="501" height="1001"/>
        <path fill="rgb(0,0,0)" stroke="none" d="M 22750,13060 L 22500,13060 22500,12060 23000,12060 23000,13060 22750,13060 Z"/>
       </g>
      </g>
      <g class="com.sun.star.drawing.CustomShape">
       <g id="id87">
        <rect class="BoundingBox" stroke="none" fill="none" x="22247" y="4998" width="1004" height="1004"/>
        <path fill="rgb(255,150,0)" stroke="none" d="M 23250,5500 C 23250,5588 23227,5674 23183,5751 23139,5827 23076,5890 22999,5934 22923,5978 22837,6001 22749,6001 22661,6001 22575,5978 22498,5934 22422,5890 22359,5827 22315,5751 22271,5674 22248,5588 22248,5500 22248,5412 22271,5326 22315,5250 22359,5173 22422,5110 22498,5066 22575,5022 22661,4999 22749,4999 22837,4999 22923,5022 22999,5066 23076,5110 23139,5173 23183,5250 23227,5326 23250,5412 23250,5500 L 23250,5500 Z"/>
       </g>
      </g>
      <g class="com.sun.star.drawing.CustomShape">
       <g id="id88">
        <rect class="BoundingBox" stroke="none" fill="none" x="19748" y="4998" width="1004" height="1003"/>
        <path fill="rgb(255,150,0)" stroke="none" d="M 20751,5499 C 20751,5587 20728,5673 20684,5749 20640,5826 20577,5889 20500,5933 20424,5977 20338,6000 20250,6000 20162,6000 20076,5977 19999,5933 19923,5889 19860,5826 19816,5749 19772,5673 19749,5587 19749,5499 19749,5411 19772,5325 19816,5248 19860,5172 19923,5109 19999,5065 20076,5021 20162,4998 20250,4998 20338,4998 20424,5021 20500,5065 20577,5109 20640,5172 20684,5248 20728,5325 20751,5411 20751,5499 L 20751,5499 Z"/>
       </g>
      </g>
      <g class="com.sun.star.drawing.CustomShape">
       <g id="id89">
        <rect class="BoundingBox" stroke="none" fill="none" x="19748" y="3498" width="1003" height="1003"/>
        <path fill="rgb(238,238,238)" stroke="none" d="M 20750,3999 C 20750,4087 20727,4173 20683,4249 20639,4326 20576,4389 20499,4433 20423,4477 20337,4500 20249,4500 20161,4500 20075,4477 19998,4433 19922,4389 19859,4326 19815,4249 19771,4173 19748,4087 19748,3999 19748,3911 19771,3825 19815,3749 19859,3672 19922,3609 19998,3565 20075,3521 20161,3498 20249,3498 20337,3498 20423,3521 20499,3565 20576,3609 20639,3672 20683,3748 20727,3825 20750,3911 20750,3999 L 20750,3999 Z"/>
       </g>
      </g>
      <g class="com.sun.star.drawing.CustomShape">
       <g id="id90">
        <rect class="BoundingBox" stroke="none" fill="none" x="19748" y="1996" width="1003" height="1004"/>
        <path fill="rgb(238,238,238)" stroke="none" d="M 20750,2498 C 20750,2586 20727,2672 20683,2749 20639,2825 20576,2888 20499,2932 20423,2976 20337,2999 20249,2999 20161,2999 20075,2976 19998,2932 19922,2888 19859,2825 19815,2749 19771,2672 19748,2586 19748,2498 19748,2410 19771,2324 19815,2248 19859,2171 19922,2108 19998,2064 20075,2020 20161,1997 20249,1997 20337,1997 20423,2020 20499,2064 20576,2108 20639,2171 20683,2247 20727,2324 20750,2410 20750,2498 L 20750,2498 Z"/>
       </g>
      </g>
     </g>
    </g>
   </g>
  </g>
 </g>
</svg>