<?xml version="1.0" encoding="UTF-8"?>
<!DOCTYPE svg PUBLIC "-//W3C//DTD SVG 1.1//EN" "http://www.w3.org/Graphics/SVG/1.1/DTD/svg11.dtd">
<svg version="1.2" width="25mm" height="125mm" viewBox="0 0 2500 12500" preserveAspectRatio="xMidYMid" fill-rule="evenodd" stroke-width="28.222" stroke-linejoin="round" xmlns="http://www.w3.org/2000/svg" xmlns:ooo="http://xml.openoffice.org/svg/export" xmlns:xlink="http://www.w3.org/1999/xlink" xmlns:presentation="http://sun.com/xmlns/staroffice/presentation" xmlns:smil="http://www.w3.org/2001/SMIL20/" xmlns:anim="urn:oasis:names:tc:opendocument:xmlns:animation:1.0" xmlns:svg="urn:oasis:names:tc:opendocument:xmlns:svg-compatible:1.0" xml:space="preserve">
 <defs class="ClipPathGroup">
  <clipPath id="presentation_clip_path" clipPathUnits="userSpaceOnUse">
   <rect x="0" y="0" width="2500" height="12500"/>
  </clipPath>
  <clipPath id="presentation_clip_path_shrink" clipPathUnits="userSpaceOnUse">
   <rect x="2" y="12" width="2495" height="12475"/>
  </clipPath>
 </defs>
 <defs class="TextShapeIndex">
  <g ooo:slide="id1" ooo:id-list="id3 id4 id5 id6 id7 id8 id9 id10 id11 id12 id13 id14 id15 id16 id17 id18 id19 id20 id21 id22 id23 id24 id25 id26 id27 id28 id29 id30 id31 id32 id33 id34 id35 id36 id37 id38 id39 id40 id41 id42 id43 id44 id45 id46 id47 id48 id49 id50 id51 id52 id53 id54 id55 id56 id57 id58 id59 id60 id61 id62 id63 id64 id65 id66 id67 id68 id69 id70 id71 id72 id73 id74 id75 id76 id77 id78 id79 id80"/>
 </defs>
 <defs class="EmbeddedBulletChars">
  <g id="bullet-char-template-57356" transform="scale(0.00048828125,-0.00048828125)">
   <path d="M 580,1141 L 1163,571 580,0 -4,571 580,1141 Z"/>
  </g>
  <g id="bullet-char-template-57354" transform="scale(0.00048828125,-0.00048828125)">
   <path d="M 8,1128 L 1137,1128 1137,0 8,0 8,1128 Z"/>
  </g>
  <g id="bullet-char-template-10146" transform="scale(0.00048828125,-0.00048828125)">
   <path d="M 174,0 L 602,739 174,1481 1456,739 174,0 Z M 1358,739 L 309,1346 659,739 1358,739 Z"/>
  </g>
  <g id="bullet-char-template-10132" transform="scale(0.00048828125,-0.00048828125)">
   <path d="M 2015,739 L 1276,0 717,0 1260,543 174,543 174,936 1260,936 717,1481 1274,1481 2015,739 Z"/>
  </g>
  <g id="bullet-char-template-10007" transform="scale(0.00048828125,-0.00048828125)">
   <path d="M 0,-2 C -7,14 -16,27 -25,37 L 356,567 C 262,823 215,952 215,954 215,979 228,992 255,992 264,992 276,990 289,987 310,991 331,999 354,1012 L 381,999 492,748 772,1049 836,1024 860,1049 C 881,1039 901,1025 922,1006 886,937 835,863 770,784 769,783 710,716 594,584 L 774,223 C 774,196 753,168 711,139 L 727,119 C 717,90 699,76 672,76 641,76 570,178 457,381 L 164,-76 C 142,-110 111,-127 72,-127 30,-127 9,-110 8,-76 1,-67 -2,-52 -2,-32 -2,-23 -1,-13 0,-2 Z"/>
  </g>
  <g id="bullet-char-template-10004" transform="scale(0.00048828125,-0.00048828125)">
   <path d="M 285,-33 C 182,-33 111,30 74,156 52,228 41,333 41,471 41,549 55,616 82,672 116,743 169,778 240,778 293,778 328,747 346,684 L 369,508 C 377,444 397,411 428,410 L 1163,1116 C 1174,1127 1196,1133 1229,1133 1271,1133 1292,1118 1292,1087 L 1292,965 C 1292,929 1282,901 1262,881 L 442,47 C 390,-6 338,-33 285,-33 Z"/>
  </g>
  <g id="bullet-char-template-9679" transform="scale(0.00048828125,-0.00048828125)">
   <path d="M 813,0 C 632,0 489,54 383,161 276,268 223,411 223,592 223,773 276,916 383,1023 489,1130 632,1184 813,1184 992,1184 1136,1130 1245,1023 1353,916 1407,772 1407,592 1407,412 1353,268 1245,161 1136,54 992,0 813,0 Z"/>
  </g>
  <g id="bullet-char-template-8226" transform="scale(0.00048828125,-0.00048828125)">
   <path d="M 346,457 C 273,457 209,483 155,535 101,586 74,649 74,723 74,796 101,859 155,911 209,963 273,989 346,989 419,989 480,963 531,910 582,859 608,796 608,723 608,648 583,586 532,535 482,483 420,457 346,457 Z"/>
  </g>
  <g id="bullet-char-template-8211" transform="scale(0.00048828125,-0.00048828125)">
   <path d="M -4,459 L 1135,459 1135,606 -4,606 -4,459 Z"/>
  </g>
  <g id="bullet-char-template-61548" transform="scale(0.00048828125,-0.00048828125)">
   <path d="M 173,740 C 173,903 231,1043 346,1159 462,1274 601,1332 765,1332 928,1332 1067,1274 1183,1159 1299,1043 1357,903 1357,740 1357,577 1299,437 1183,322 1067,206 928,148 765,148 601,148 462,206 346,322 231,437 173,577 173,740 Z"/>
  </g>
 </defs>
 <g>
  <g id="id2" class="Master_Slide">
   <g id="bg-id2" class="Background"/>
   <g id="bo-id2" class="BackgroundObjects"/>
  </g>
 </g>
 <g class="SlideGroup">
  <g>
   <g id="container-id1">
    <g id="id1" class="Slide" clip-path="url(#presentation_clip_path)">
     <g class="Page">
      <g class="com.sun.star.drawing.CustomShape">
       <g id="id3">
        <rect class="BoundingBox" stroke="none" fill="none" x="1000" y="2250" width="501" height="10001"/>
        <path fill="rgb(192,192,192)" stroke="none" d="M 1250,12250 L 1000,12250 1000,2250 1500,2250 1500,12250 1250,12250 Z"/>
       </g>
      </g>
      <g class="com.sun.star.drawing.CustomShape">
       <g id="id4">
        <rect class="BoundingBox" stroke="none" fill="none" x="250" y="3270" width="2002" height="2002"/>
        <path fill="rgb(19,19,19)" stroke="none" d="M 2251,4271 C 2251,4446 2205,4619 2117,4771 2029,4923 1903,5049 1751,5137 1599,5225 1426,5271 1251,5271 1075,5271 902,5225 750,5137 598,5049 472,4923 384,4771 296,4619 250,4446 250,4271 250,4095 296,3922 384,3770 472,3618 598,3492 750,3404 902,3316 1075,3270 1250,3270 1426,3270 1599,3316 1751,3404 1903,3492 2029,3618 2117,3770 2205,3922 2251,4095 2251,4270 L 2251,4271 Z"/>
       </g>
      </g>
      <g class="com.sun.star.drawing.CustomShape">
       <g id="id5">
        <rect class="BoundingBox" stroke="none" fill="none" x="749" y="3768" width="1003" height="1004"/>
        <path fill="rgb(255,0,0)" stroke="none" d="M 1751,4270 C 1751,4358 1728,4444 1684,4521 1640,4597 1577,4660 1501,4704 1424,4748 1338,4771 1250,4771 1162,4771 1076,4748 999,4704 923,4660 860,4597 816,4521 772,4444 749,4358 749,4270 749,4182 772,4096 816,4019 860,3943 923,3880 999,3836 1076,3792 1162,3769 1250,3769 1338,3769 1424,3792 1501,3836 1577,3880 1640,3943 1684,4019 1728,4096 1751,4182 1751,4270 L 1751,4270 Z"/>
       </g>
      </g>
      <g class="com.sun.star.drawing.CustomShape">
       <g id="id6">
        <rect class="BoundingBox" stroke="none" fill="none" x="250" y="1770" width="2002" height="2002"/>
        <path fill="rgb(19,19,19)" stroke="none" d="M 2251,2771 C 2251,2946 2205,3119 2117,3271 2029,3423 1903,3549 1751,3637 1599,3725 1426,3771 1251,3771 1075,3771 902,3725 750,3637 598,3549 472,3423 384,3271 296,3119 250,2946 250,2771 250,2595 296,2422 384,2270 472,2118 598,1992 750,1904 902,1816 1075,1770 1250,1770 1426,1770 1599,1816 1751,1904 1903,1992 2029,2118 2117,2270 2205,2422 2251,2595 2251,2770 L 2251,2771 Z"/>
       </g>
      </g>
      <g class="com.sun.star.drawing.CustomShape">
       <g id="id7">
        <rect class="BoundingBox" stroke="none" fill="none" x="749" y="2269" width="1003" height="1003"/>
        <path fill="rgb(255,150,0)" stroke="none" d="M 1751,2770 C 1751,2858 1728,2944 1684,3020 1640,3097 1577,3160 1501,3204 1424,3248 1338,3271 1250,3271 1162,3271 1076,3248 999,3204 923,3160 860,3097 816,3020 772,2944 749,2858 749,2770 749,2682 772,2596 816,2520 860,2443 923,2380 999,2336 1076,2292 1162,2269 1250,2269 1338,2269 1424,2292 1501,2336 1577,2380 1640,2443 1684,2519 1728,2596 1751,2682 1751,2770 L 1751,2770 Z"/>
       </g>
      </g>
      <g class="com.sun.star.drawing.LineShape">
       <g id="id8">
        <rect class="BoundingBox" stroke="none" fill="none" x="209" y="3479" width="2083" height="83"/>
        <path fill="none" stroke="rgb(0,0,0)" stroke-width="81" stroke-linejoin="round" d="M 250,3520 L 2250,3520"/>
       </g>
      </g>
      <g class="com.sun.star.drawing.LineShape">
       <g id="id9">
        <rect class="BoundingBox" stroke="none" fill="none" x="209" y="1979" width="2083" height="83"/>
        <path fill="none" stroke="rgb(0,0,0)" stroke-width="81" stroke-linejoin="round" d="M 250,2020 L 2250,2020"/>
       </g>
      </g>
      <g class="com.sun.star.drawing.OpenBezierShape">
       <g id="id10">
        <rect class="BoundingBox" stroke="none" fill="none" x="209" y="4229" width="1083" height="1083"/>
        <path fill="none" stroke="rgb(0,0,0)" stroke-width="81" stroke-linejoin="round" stroke-linecap="round" d="M 250,4270 C 250,5270 1250,5270 1250,5270"/>
       </g>
      </g>
      <g class="com.sun.star.drawing.OpenBezierShape">
       <g id="id11">
        <rect class="BoundingBox" stroke="none" fill="none" x="1209" y="4229" width="1083" height="1083"/>
        <path fill="none" stroke="rgb(0,0,0)" stroke-width="81" stroke-linejoin="round" stroke-linecap="round" d="M 1250,5270 C 2250,5270 2250,4270 2250,4270"/>
       </g>
      </g>
      <g class="com.sun.star.drawing.LineShape">
       <g id="id12">
        <rect class="BoundingBox" stroke="none" fill="none" x="697" y="2217" width="1107" height="1107"/>
        <path fill="none" stroke="rgb(255,150,0)" stroke-width="106" stroke-linejoin="round" d="M 750,2270 L 1750,3270"/>
       </g>
      </g>
      <g class="com.sun.star.drawing.LineShape">
       <g id="id13">
        <rect class="BoundingBox" stroke="none" fill="none" x="697" y="2217" width="1108" height="1107"/>
        <path fill="none" stroke="rgb(255,150,0)" stroke-width="106" stroke-linejoin="round" d="M 750,3270 L 1750,2270"/>
       </g>
      </g>
      <g class="com.sun.star.drawing.CustomShape">
       <g id="id14">
        <rect class="BoundingBox" stroke="none" fill="none" x="250" y="270" width="2002" height="2002"/>
        <path fill="rgb(19,19,19)" stroke="none" d="M 2251,1271 C 2251,1446 2205,1619 2117,1771 2029,1923 1903,2049 1751,2137 1599,2225 1426,2271 1251,2271 1075,2271 902,2225 750,2137 598,2049 472,1923 384,1771 296,1619 250,1446 250,1271 250,1095 296,922 384,770 472,618 598,492 750,404 902,316 1075,270 1250,270 1426,270 1599,316 1751,404 1903,492 2029,618 2117,770 2205,922 2251,1095 2251,1270 L 2251,1271 Z"/>
       </g>
      </g>
      <g class="com.sun.star.drawing.CustomShape">
       <g id="id15">
        <rect class="BoundingBox" stroke="none" fill="none" x="749" y="768" width="1003" height="1003"/>
        <path fill="rgb(0,255,0)" stroke="none" d="M 1751,1269 C 1751,1357 1728,1443 1684,1519 1640,1596 1577,1659 1501,1703 1424,1747 1338,1770 1250,1770 1162,1770 1076,1747 999,1703 923,1659 860,1596 816,1519 772,1443 749,1357 749,1269 749,1181 772,1095 816,1019 860,942 923,879 999,835 1076,791 1162,768 1250,768 1338,768 1424,791 1501,835 1577,879 1640,942 1684,1018 1728,1095 1751,1181 1751,1269 L 1751,1269 Z"/>
       </g>
      </g>
      <g class="com.sun.star.drawing.LineShape">
       <g id="id16">
        <rect class="BoundingBox" stroke="none" fill="none" x="697" y="717" width="1107" height="1107"/>
        <path fill="none" stroke="rgb(0,255,0)" stroke-width="106" stroke-linejoin="round" d="M 750,770 L 1750,1770"/>
       </g>
      </g>
      <g class="com.sun.star.drawing.OpenBezierShape">
       <g id="id17">
        <rect class="BoundingBox" stroke="none" fill="none" x="209" y="229" width="1083" height="1083"/>
        <path fill="none" stroke="rgb(0,0,0)" stroke-width="81" stroke-linejoin="round" stroke-linecap="round" d="M 250,1270 C 250,270 1250,270 1250,270"/>
       </g>
      </g>
      <g class="com.sun.star.drawing.LineShape">
       <g id="id18">
        <rect class="BoundingBox" stroke="none" fill="none" x="697" y="716" width="1107" height="1108"/>
        <path fill="none" stroke="rgb(0,255,0)" stroke-width="106" stroke-linejoin="round" d="M 750,1770 L 1750,770"/>
       </g>
      </g>
      <g class="com.sun.star.drawing.LineShape">
       <g id="id19">
        <rect class="BoundingBox" stroke="none" fill="none" x="209" y="1979" width="2083" height="83"/>
        <path fill="none" stroke="rgb(0,0,0)" stroke-width="81" stroke-linejoin="round" d="M 250,2020 L 2250,2020"/>
       </g>
      </g>
      <g class="com.sun.star.drawing.OpenBezierShape">
       <g id="id20">
        <rect class="BoundingBox" stroke="none" fill="none" x="1209" y="229" width="1083" height="1083"/>
        <path fill="none" stroke="rgb(0,0,0)" stroke-width="81" stroke-linejoin="round" stroke-linecap="round" d="M 1250,270 C 2250,270 2250,1270 2250,1270"/>
       </g>
      </g>
      <g class="com.sun.star.drawing.CustomShape">
       <g id="id21">
        <rect class="BoundingBox" stroke="none" fill="none" x="249" y="1249" width="2003" height="3003"/>
        <path fill="rgb(19,19,19)" stroke="none" d="M 1250,4250 L 250,4250 250,1250 2250,1250 2250,4250 1250,4250 Z"/>
        <path fill="none" stroke="rgb(0,0,0)" d="M 1250,4250 L 250,4250 250,1250 2250,1250 2250,4250 1250,4250 Z"/>
       </g>
      </g>
      <g class="com.sun.star.drawing.CustomShape">
       <g id="id22">
        <rect class="BoundingBox" stroke="none" fill="none" x="250" y="3250" width="2002" height="2002"/>
        <path fill="rgb(19,19,19)" stroke="none" d="M 2251,4251 C 2251,4426 2205,4599 2117,4751 2029,4903 1903,5029 1751,5117 1599,5205 1426,5251 1251,5251 1075,5251 902,5205 750,5117 598,5029 472,4903 384,4751 296,4599 250,4426 250,4251 250,4075 296,3902 384,3750 472,3598 598,3472 750,3384 902,3296 1075,3250 1250,3250 1426,3250 1599,3296 1751,3384 1903,3472 2029,3598 2117,3750 2205,3902 2251,4075 2251,4250 L 2251,4251 Z"/>
       </g>
      </g>
      <g class="com.sun.star.drawing.CustomShape">
       <g id="id23">
        <rect class="BoundingBox" stroke="none" fill="none" x="250" y="1750" width="2002" height="2002"/>
        <path fill="rgb(19,19,19)" stroke="none" d="M 2251,2751 C 2251,2926 2205,3099 2117,3251 2029,3403 1903,3529 1751,3617 1599,3705 1426,3751 1251,3751 1075,3751 902,3705 750,3617 598,3529 472,3403 384,3251 296,3099 250,2926 250,2751 250,2575 296,2402 384,2250 472,2098 598,1972 750,1884 902,1796 1075,1750 1250,1750 1426,1750 1599,1796 1751,1884 1903,1972 2029,2098 2117,2250 2205,2402 2251,2575 2251,2750 L 2251,2751 Z"/>
       </g>
      </g>
      <g class="com.sun.star.drawing.LineShape">
       <g id="id24">
        <rect class="BoundingBox" stroke="none" fill="none" x="209" y="3459" width="2083" height="83"/>
        <path fill="none" stroke="rgb(0,0,0)" stroke-width="81" stroke-linejoin="round" d="M 250,3500 L 2250,3500"/>
       </g>
      </g>
      <g class="com.sun.star.drawing.LineShape">
       <g id="id25">
        <rect class="BoundingBox" stroke="none" fill="none" x="209" y="1959" width="2083" height="83"/>
        <path fill="none" stroke="rgb(0,0,0)" stroke-width="81" stroke-linejoin="round" d="M 250,2000 L 2250,2000"/>
       </g>
      </g>
      <g class="com.sun.star.drawing.OpenBezierShape">
       <g id="id26">
        <rect class="BoundingBox" stroke="none" fill="none" x="209" y="4209" width="1083" height="1083"/>
        <path fill="none" stroke="rgb(0,0,0)" stroke-width="81" stroke-linejoin="round" stroke-linecap="round" d="M 250,4250 C 250,5250 1250,5250 1250,5250"/>
       </g>
      </g>
      <g class="com.sun.star.drawing.OpenBezierShape">
       <g id="id27">
        <rect class="BoundingBox" stroke="none" fill="none" x="1209" y="4209" width="1083" height="1083"/>
        <path fill="none" stroke="rgb(0,0,0)" stroke-width="81" stroke-linejoin="round" stroke-linecap="round" d="M 1250,5250 C 2250,5250 2250,4250 2250,4250"/>
       </g>
      </g>
      <g class="com.sun.star.drawing.CustomShape">
       <g id="id28">
        <rect class="BoundingBox" stroke="none" fill="none" x="250" y="250" width="2002" height="2002"/>
        <path fill="rgb(19,19,19)" stroke="none" d="M 2251,1251 C 2251,1426 2205,1599 2117,1751 2029,1903 1903,2029 1751,2117 1599,2205 1426,2251 1251,2251 1075,2251 902,2205 750,2117 598,2029 472,1903 384,1751 296,1599 250,1426 250,1251 250,1075 296,902 384,750 472,598 598,472 750,384 902,296 1075,250 1250,250 1426,250 1599,296 1751,384 1903,472 2029,598 2117,750 2205,902 2251,1075 2251,1250 L 2251,1251 Z"/>
       </g>
      </g>
      <g class="com.sun.star.drawing.OpenBezierShape">
       <g id="id29">
        <rect class="BoundingBox" stroke="none" fill="none" x="209" y="209" width="1083" height="1083"/>
        <path fill="none" stroke="rgb(0,0,0)" stroke-width="81" stroke-linejoin="round" stroke-linecap="round" d="M 250,1250 C 250,250 1250,250 1250,250"/>
       </g>
      </g>
      <g class="com.sun.star.drawing.LineShape">
       <g id="id30">
        <rect class="BoundingBox" stroke="none" fill="none" x="209" y="1959" width="2083" height="83"/>
        <path fill="none" stroke="rgb(0,0,0)" stroke-width="81" stroke-linejoin="round" d="M 250,2000 L 2250,2000"/>
       </g>
      </g>
      <g class="com.sun.star.drawing.OpenBezierShape">
       <g id="id31">
        <rect class="BoundingBox" stroke="none" fill="none" x="1209" y="209" width="1083" height="1083"/>
        <path fill="none" stroke="rgb(0,0,0)" stroke-width="81" stroke-linejoin="round" stroke-linecap="round" d="M 1250,250 C 2250,250 2250,1250 2250,1250"/>
       </g>
      </g>
      <g class="com.sun.star.drawing.LineShape">
       <g id="id32">
        <rect class="BoundingBox" stroke="none" fill="none" x="209" y="1209" width="83" height="3083"/>
        <path fill="none" stroke="rgb(0,0,0)" stroke-width="81" stroke-linejoin="round" d="M 250,1250 L 250,4250"/>
       </g>
      </g>
      <g class="com.sun.star.drawing.LineShape">
       <g id="id33">
        <rect class="BoundingBox" stroke="none" fill="none" x="2209" y="1209" width="83" height="3083"/>
        <path fill="none" stroke="rgb(0,0,0)" stroke-width="81" stroke-linejoin="round" d="M 2250,1250 L 2250,4250"/>
       </g>
      </g>
      <g class="com.sun.star.drawing.CustomShape">
       <g id="id34">
        <rect class="BoundingBox" stroke="none" fill="none" x="747" y="3748" width="1004" height="1003"/>
        <path fill="rgb(51,51,51)" stroke="none" d="M 1750,4249 C 1750,4337 1727,4423 1683,4500 1639,4576 1576,4639 1500,4683 1423,4727 1337,4750 1249,4750 1161,4750 1075,4727 999,4683 922,4639 859,4576 815,4500 771,4423 748,4337 748,4249 748,4161 771,4075 815,3999 859,3922 922,3859 999,3815 1075,3771 1161,3748 1249,3748 1337,3748 1423,3771 1500,3815 1576,3859 1639,3922 1683,3999 1727,4075 1750,4161 1750,4249 L 1750,4249 Z"/>
       </g>
      </g>
      <g class="com.sun.star.drawing.CustomShape">
       <g id="id35">
        <rect class="BoundingBox" stroke="none" fill="none" x="747" y="769" width="1004" height="1003"/>
        <path fill="rgb(255,150,0)" stroke="none" d="M 1750,1270 C 1750,1358 1727,1444 1683,1521 1639,1597 1576,1660 1500,1704 1423,1748 1337,1771 1249,1771 1161,1771 1075,1748 999,1704 922,1660 859,1597 815,1521 771,1444 748,1358 748,1270 748,1182 771,1096 815,1020 859,943 922,880 999,836 1075,792 1161,769 1249,769 1337,769 1423,792 1500,836 1576,880 1639,943 1683,1019 1727,1096 1750,1182 1750,1270 L 1750,1270 Z"/>
       </g>
      </g>
      <g class="com.sun.star.drawing.LineShape">
       <g id="id36">
        <rect class="BoundingBox" stroke="none" fill="none" x="696" y="717" width="1107" height="1107"/>
        <path fill="none" stroke="rgb(255,150,0)" stroke-width="106" stroke-linejoin="round" d="M 749,770 L 1749,1770"/>
       </g>
      </g>
      <g class="com.sun.star.drawing.LineShape">
       <g id="id37">
        <rect class="BoundingBox" stroke="none" fill="none" x="696" y="717" width="1108" height="1107"/>
        <path fill="none" stroke="rgb(255,150,0)" stroke-width="106" stroke-linejoin="round" d="M 749,1770 L 1749,770"/>
       </g>
      </g>
      <g class="com.sun.star.drawing.CustomShape">
       <g id="id38">
        <rect class="BoundingBox" stroke="none" fill="none" x="747" y="748" width="1004" height="1004"/>
        <path fill="rgb(255,150,0)" stroke="none" d="M 1750,1250 C 1750,1338 1727,1424 1683,1501 1639,1577 1576,1640 1500,1684 1423,1728 1337,1751 1249,1751 1161,1751 1075,1728 999,1684 922,1640 859,1577 815,1501 771,1424 748,1338 748,1250 748,1162 771,1076 815,1000 859,923 922,860 999,816 1075,772 1161,749 1249,749 1337,749 1423,772 1500,816 1576,860 1639,923 1683,999 1727,1076 1750,1162 1750,1250 L 1750,1250 Z"/>
       </g>
      </g>
      <g class="com.sun.star.drawing.LineShape">
       <g id="id39">
        <rect class="BoundingBox" stroke="none" fill="none" x="696" y="697" width="1107" height="1107"/>
        <path fill="none" stroke="rgb(255,150,0)" stroke-width="106" stroke-linejoin="round" d="M 749,750 L 1749,1750"/>
       </g>
      </g>
      <g class="com.sun.star.drawing.LineShape">
       <g id="id40">
        <rect class="BoundingBox" stroke="none" fill="none" x="696" y="697" width="1108" height="1107"/>
        <path fill="none" stroke="rgb(255,150,0)" stroke-width="106" stroke-linejoin="round" d="M 749,1750 L 1749,750"/>
       </g>
      </g>
      <g class="com.sun.star.drawing.CustomShape">
       <g id="id41">
        <rect class="BoundingBox" stroke="none" fill="none" x="747" y="2249" width="1004" height="1003"/>
        <path fill="rgb(0,255,0)" stroke="none" d="M 1750,2750 C 1750,2838 1727,2924 1683,3001 1639,3077 1576,3140 1500,3184 1423,3228 1337,3251 1249,3251 1161,3251 1075,3228 999,3184 922,3140 859,3077 815,3001 771,2924 748,2838 748,2750 748,2662 771,2576 815,2500 859,2423 922,2360 999,2316 1075,2272 1161,2249 1249,2249 1337,2249 1423,2272 1500,2316 1576,2360 1639,2423 1683,2499 1727,2576 1750,2662 1750,2750 L 1750,2750 Z"/>
       </g>
      </g>
      <g class="com.sun.star.drawing.CustomShape">
       <g id="id42">
        <rect class="BoundingBox" stroke="none" fill="none" x="1000" y="2230" width="501" height="10001"/>
        <path fill="rgb(192,192,192)" stroke="none" d="M 1250,12230 L 1000,12230 1000,2230 1500,2230 1500,12230 1250,12230 Z"/>
       </g>
      </g>
      <g class="com.sun.star.drawing.CustomShape">
       <g id="id43">
        <rect class="BoundingBox" stroke="none" fill="none" x="250" y="3250" width="2002" height="2002"/>
        <path fill="rgb(19,19,19)" stroke="none" d="M 2251,4251 C 2251,4426 2205,4599 2117,4751 2029,4903 1903,5029 1751,5117 1599,5205 1426,5251 1251,5251 1075,5251 902,5205 750,5117 598,5029 472,4903 384,4751 296,4599 250,4426 250,4251 250,4075 296,3902 384,3750 472,3598 598,3472 750,3384 902,3296 1075,3250 1250,3250 1426,3250 1599,3296 1751,3384 1903,3472 2029,3598 2117,3750 2205,3902 2251,4075 2251,4250 L 2251,4251 Z"/>
       </g>
      </g>
      <g class="com.sun.star.drawing.CustomShape">
       <g id="id44">
        <rect class="BoundingBox" stroke="none" fill="none" x="749" y="3748" width="1003" height="1004"/>
        <path fill="rgb(255,0,0)" stroke="none" d="M 1751,4250 C 1751,4338 1728,4424 1684,4501 1640,4577 1577,4640 1501,4684 1424,4728 1338,4751 1250,4751 1162,4751 1076,4728 999,4684 923,4640 860,4577 816,4501 772,4424 749,4338 749,4250 749,4162 772,4076 816,3999 860,3923 923,3860 999,3816 1076,3772 1162,3749 1250,3749 1338,3749 1424,3772 1501,3816 1577,3860 1640,3923 1684,3999 1728,4076 1751,4162 1751,4250 L 1751,4250 Z"/>
       </g>
      </g>
      <g class="com.sun.star.drawing.CustomShape">
       <g id="id45">
        <rect class="BoundingBox" stroke="none" fill="none" x="250" y="1750" width="2002" height="2002"/>
        <path fill="rgb(19,19,19)" stroke="none" d="M 2251,2751 C 2251,2926 2205,3099 2117,3251 2029,3403 1903,3529 1751,3617 1599,3705 1426,3751 1251,3751 1075,3751 902,3705 750,3617 598,3529 472,3403 384,3251 296,3099 250,2926 250,2751 250,2575 296,2402 384,2250 472,2098 598,1972 750,1884 902,1796 1075,1750 1250,1750 1426,1750 1599,1796 1751,1884 1903,1972 2029,2098 2117,2250 2205,2402 2251,2575 2251,2750 L 2251,2751 Z"/>
       </g>
      </g>
      <g class="com.sun.star.drawing.CustomShape">
       <g id="id46">
        <rect class="BoundingBox" stroke="none" fill="none" x="749" y="2249" width="1003" height="1003"/>
        <path fill="rgb(255,150,0)" stroke="none" d="M 1751,2750 C 1751,2838 1728,2924 1684,3001 1640,3077 1577,3140 1501,3184 1424,3228 1338,3251 1250,3251 1162,3251 1076,3228 999,3184 923,3140 860,3077 816,3001 772,2924 749,2838 749,2750 749,2662 772,2576 816,2500 860,2423 923,2360 999,2316 1076,2272 1162,2249 1250,2249 1338,2249 1424,2272 1501,2316 1577,2360 1640,2423 1684,2499 1728,2576 1751,2662 1751,2750 L 1751,2750 Z"/>
       </g>
      </g>
      <g class="com.sun.star.drawing.LineShape">
       <g id="id47">
        <rect class="BoundingBox" stroke="none" fill="none" x="209" y="3459" width="2083" height="83"/>
        <path fill="none" stroke="rgb(0,0,0)" stroke-width="81" stroke-linejoin="round" d="M 250,3500 L 2250,3500"/>
       </g>
      </g>
      <g class="com.sun.star.drawing.LineShape">
       <g id="id48">
        <rect class="BoundingBox" stroke="none" fill="none" x="209" y="1959" width="2083" height="83"/>
        <path fill="none" stroke="rgb(0,0,0)" stroke-width="81" stroke-linejoin="round" d="M 250,2000 L 2250,2000"/>
       </g>
      </g>
      <g class="com.sun.star.drawing.OpenBezierShape">
       <g id="id49">
        <rect class="BoundingBox" stroke="none" fill="none" x="209" y="4209" width="1083" height="1083"/>
        <path fill="none" stroke="rgb(0,0,0)" stroke-width="81" stroke-linejoin="round" stroke-linecap="round" d="M 250,4250 C 250,5250 1250,5250 1250,5250"/>
       </g>
      </g>
      <g class="com.sun.star.drawing.OpenBezierShape">
       <g id="id50">
        <rect class="BoundingBox" stroke="none" fill="none" x="1209" y="4209" width="1083" height="1083"/>
        <path fill="none" stroke="rgb(0,0,0)" stroke-width="81" stroke-linejoin="round" stroke-linecap="round" d="M 1250,5250 C 2250,5250 2250,4250 2250,4250"/>
       </g>
      </g>
      <g class="com.sun.star.drawing.LineShape">
       <g id="id51">
        <rect class="BoundingBox" stroke="none" fill="none" x="697" y="2197" width="1107" height="1107"/>
        <path fill="none" stroke="rgb(255,150,0)" stroke-width="106" stroke-linejoin="round" d="M 750,2250 L 1750,3250"/>
       </g>
      </g>
      <g class="com.sun.star.drawing.LineShape">
       <g id="id52">
        <rect class="BoundingBox" stroke="none" fill="none" x="697" y="2197" width="1108" height="1107"/>
        <path fill="none" stroke="rgb(255,150,0)" stroke-width="106" stroke-linejoin="round" d="M 750,3250 L 1750,2250"/>
       </g>
      </g>
      <g class="com.sun.star.drawing.CustomShape">
       <g id="id53">
        <rect class="BoundingBox" stroke="none" fill="none" x="250" y="250" width="2002" height="2002"/>
        <path fill="rgb(19,19,19)" stroke="none" d="M 2251,1251 C 2251,1426 2205,1599 2117,1751 2029,1903 1903,2029 1751,2117 1599,2205 1426,2251 1251,2251 1075,2251 902,2205 750,2117 598,2029 472,1903 384,1751 296,1599 250,1426 250,1251 250,1075 296,902 384,750 472,598 598,472 750,384 902,296 1075,250 1250,250 1426,250 1599,296 1751,384 1903,472 2029,598 2117,750 2205,902 2251,1075 2251,1250 L 2251,1251 Z"/>
       </g>
      </g>
      <g class="com.sun.star.drawing.CustomShape">
       <g id="id54">
        <rect class="BoundingBox" stroke="none" fill="none" x="749" y="748" width="1003" height="1003"/>
        <path fill="rgb(0,255,0)" stroke="none" d="M 1751,1249 C 1751,1337 1728,1423 1684,1500 1640,1576 1577,1639 1501,1683 1424,1727 1338,1750 1250,1750 1162,1750 1076,1727 999,1683 923,1639 860,1576 816,1500 772,1423 749,1337 749,1249 749,1161 772,1075 816,999 860,922 923,859 999,815 1076,771 1162,748 1250,748 1338,748 1424,771 1501,815 1577,859 1640,922 1684,998 1728,1075 1751,1161 1751,1249 L 1751,1249 Z"/>
       </g>
      </g>
      <g class="com.sun.star.drawing.LineShape">
       <g id="id55">
        <rect class="BoundingBox" stroke="none" fill="none" x="697" y="697" width="1107" height="1107"/>
        <path fill="none" stroke="rgb(0,255,0)" stroke-width="106" stroke-linejoin="round" d="M 750,750 L 1750,1750"/>
       </g>
      </g>
      <g class="com.sun.star.drawing.OpenBezierShape">
       <g id="id56">
        <rect class="BoundingBox" stroke="none" fill="none" x="209" y="209" width="1083" height="1083"/>
        <path fill="none" stroke="rgb(0,0,0)" stroke-width="81" stroke-linejoin="round" stroke-linecap="round" d="M 250,1250 C 250,250 1250,250 1250,250"/>
       </g>
      </g>
      <g class="com.sun.star.drawing.LineShape">
       <g id="id57">
        <rect class="BoundingBox" stroke="none" fill="none" x="697" y="696" width="1107" height="1108"/>
        <path fill="none" stroke="rgb(0,255,0)" stroke-width="106" stroke-linejoin="round" d="M 750,1750 L 1750,750"/>
       </g>
      </g>
      <g class="com.sun.star.drawing.LineShape">
       <g id="id58">
        <rect class="BoundingBox" stroke="none" fill="none" x="209" y="1959" width="2083" height="83"/>
        <path fill="none" stroke="rgb(0,0,0)" stroke-width="81" stroke-linejoin="round" d="M 250,2000 L 2250,2000"/>
       </g>
      </g>
      <g class="com.sun.star.drawing.OpenBezierShape">
       <g id="id59">
        <rect class="BoundingBox" stroke="none" fill="none" x="1209" y="209" width="1083" height="1083"/>
        <path fill="none" stroke="rgb(0,0,0)" stroke-width="81" stroke-linejoin="round" stroke-linecap="round" d="M 1250,250 C 2250,250 2250,1250 2250,1250"/>
       </g>
      </g>
      <g class="com.sun.star.drawing.CustomShape">
       <g id="id60">
        <rect class="BoundingBox" stroke="none" fill="none" x="249" y="1229" width="2003" height="3003"/>
        <path fill="rgb(19,19,19)" stroke="none" d="M 1250,4230 L 250,4230 250,1230 2250,1230 2250,4230 1250,4230 Z"/>
        <path fill="none" stroke="rgb(0,0,0)" d="M 1250,4230 L 250,4230 250,1230 2250,1230 2250,4230 1250,4230 Z"/>
       </g>
      </g>
      <g class="com.sun.star.drawing.CustomShape">
       <g id="id61">
        <rect class="BoundingBox" stroke="none" fill="none" x="250" y="3230" width="2002" height="2002"/>
        <path fill="rgb(19,19,19)" stroke="none" d="M 2251,4231 C 2251,4406 2205,4579 2117,4731 2029,4883 1903,5009 1751,5097 1599,5185 1426,5231 1251,5231 1075,5231 902,5185 750,5097 598,5009 472,4883 384,4731 296,4579 250,4406 250,4231 250,4055 296,3882 384,3730 472,3578 598,3452 750,3364 902,3276 1075,3230 1250,3230 1426,3230 1599,3276 1751,3364 1903,3452 2029,3578 2117,3730 2205,3882 2251,4055 2251,4230 L 2251,4231 Z"/>
       </g>
      </g>
      <g class="com.sun.star.drawing.CustomShape">
       <g id="id62">
        <rect class="BoundingBox" stroke="none" fill="none" x="250" y="1730" width="2002" height="2002"/>
        <path fill="rgb(19,19,19)" stroke="none" d="M 2251,2731 C 2251,2906 2205,3079 2117,3231 2029,3383 1903,3509 1751,3597 1599,3685 1426,3731 1251,3731 1075,3731 902,3685 750,3597 598,3509 472,3383 384,3231 296,3079 250,2906 250,2731 250,2555 296,2382 384,2230 472,2078 598,1952 750,1864 902,1776 1075,1730 1250,1730 1426,1730 1599,1776 1751,1864 1903,1952 2029,2078 2117,2230 2205,2382 2251,2555 2251,2730 L 2251,2731 Z"/>
       </g>
      </g>
      <g class="com.sun.star.drawing.LineShape">
       <g id="id63">
        <rect class="BoundingBox" stroke="none" fill="none" x="209" y="3439" width="2083" height="83"/>
        <path fill="none" stroke="rgb(0,0,0)" stroke-width="81" stroke-linejoin="round" d="M 250,3480 L 2250,3480"/>
       </g>
      </g>
      <g class="com.sun.star.drawing.LineShape">
       <g id="id64">
        <rect class="BoundingBox" stroke="none" fill="none" x="209" y="1939" width="2083" height="83"/>
        <path fill="none" stroke="rgb(0,0,0)" stroke-width="81" stroke-linejoin="round" d="M 250,1980 L 2250,1980"/>
       </g>
      </g>
      <g class="com.sun.star.drawing.OpenBezierShape">
       <g id="id65">
        <rect class="BoundingBox" stroke="none" fill="none" x="209" y="4189" width="1083" height="1083"/>
        <path fill="none" stroke="rgb(0,0,0)" stroke-width="81" stroke-linejoin="round" stroke-linecap="round" d="M 250,4230 C 250,5230 1250,5230 1250,5230"/>
       </g>
      </g>
      <g class="com.sun.star.drawing.OpenBezierShape">
       <g id="id66">
        <rect class="BoundingBox" stroke="none" fill="none" x="1209" y="4189" width="1083" height="1083"/>
        <path fill="none" stroke="rgb(0,0,0)" stroke-width="81" stroke-linejoin="round" stroke-linecap="round" d="M 1250,5230 C 2250,5230 2250,4230 2250,4230"/>
       </g>
      </g>
      <g class="com.sun.star.drawing.CustomShape">
       <g id="id67">
        <rect class="BoundingBox" stroke="none" fill="none" x="250" y="230" width="2002" height="2002"/>
        <path fill="rgb(19,19,19)" stroke="none" d="M 2251,1231 C 2251,1406 2205,1579 2117,1731 2029,1883 1903,2009 1751,2097 1599,2185 1426,2231 1251,2231 1075,2231 902,2185 750,2097 598,2009 472,1883 384,1731 296,1579 250,1406 250,1231 250,1055 296,882 384,730 472,578 598,452 750,364 902,276 1075,230 1250,230 1426,230 1599,276 1751,364 1903,452 2029,578 2117,730 2205,882 2251,1055 2251,1230 L 2251,1231 Z"/>
       </g>
      </g>
      <g class="com.sun.star.drawing.OpenBezierShape">
       <g id="id68">
        <rect class="BoundingBox" stroke="none" fill="none" x="209" y="189" width="1083" height="1083"/>
        <path fill="none" stroke="rgb(0,0,0)" stroke-width="81" stroke-linejoin="round" stroke-linecap="round" d="M 250,1230 C 250,230 1250,230 1250,230"/>
       </g>
      </g>
      <g class="com.sun.star.drawing.LineShape">
       <g id="id69">
        <rect class="BoundingBox" stroke="none" fill="none" x="209" y="1939" width="2083" height="83"/>
        <path fill="none" stroke="rgb(0,0,0)" stroke-width="81" stroke-linejoin="round" d="M 250,1980 L 2250,1980"/>
       </g>
      </g>
      <g class="com.sun.star.drawing.OpenBezierShape">
       <g id="id70">
        <rect class="BoundingBox" stroke="none" fill="none" x="1209" y="189" width="1083" height="1083"/>
        <path fill="none" stroke="rgb(0,0,0)" stroke-width="81" stroke-linejoin="round" stroke-linecap="round" d="M 1250,230 C 2250,230 2250,1230 2250,1230"/>
       </g>
      </g>
      <g class="com.sun.star.drawing.LineShape">
       <g id="id71">
        <rect class="BoundingBox" stroke="none" fill="none" x="209" y="1189" width="83" height="3083"/>
        <path fill="none" stroke="rgb(0,0,0)" stroke-width="81" stroke-linejoin="round" d="M 250,1230 L 250,4230"/>
       </g>
      </g>
      <g class="com.sun.star.drawing.LineShape">
       <g id="id72">
        <rect class="BoundingBox" stroke="none" fill="none" x="2209" y="1189" width="83" height="3083"/>
        <path fill="none" stroke="rgb(0,0,0)" stroke-width="81" stroke-linejoin="round" d="M 2250,1230 L 2250,4230"/>
       </g>
      </g>
      <g class="com.sun.star.drawing.CustomShape">
       <g id="id73">
        <rect class="BoundingBox" stroke="none" fill="none" x="747" y="3728" width="1004" height="1003"/>
        <path fill="rgb(51,51,51)" stroke="none" d="M 1750,4229 C 1750,4317 1727,4403 1683,4480 1639,4556 1576,4619 1500,4663 1423,4707 1337,4730 1249,4730 1161,4730 1075,4707 999,4663 922,4619 859,4556 815,4480 771,4403 748,4317 748,4229 748,4141 771,4055 815,3978 859,3902 922,3839 999,3795 1075,3751 1161,3728 1249,3728 1337,3728 1423,3751 1500,3795 1576,3839 1639,3902 1683,3978 1727,4055 1750,4141 1750,4229 L 1750,4229 Z"/>
       </g>
      </g>
      <g class="com.sun.star.drawing.CustomShape">
       <g id="id74">
        <rect class="BoundingBox" stroke="none" fill="none" x="747" y="748" width="1004" height="1004"/>
        <path fill="rgb(255,150,0)" stroke="none" d="M 1750,1250 C 1750,1338 1727,1424 1683,1501 1639,1577 1576,1640 1500,1684 1423,1728 1337,1751 1249,1751 1161,1751 1075,1728 999,1684 922,1640 859,1577 815,1501 771,1424 748,1338 748,1250 748,1162 771,1076 815,1000 859,923 922,860 999,816 1075,772 1161,749 1249,749 1337,749 1423,772 1500,816 1576,860 1639,923 1683,999 1727,1076 1750,1162 1750,1250 L 1750,1250 Z"/>
       </g>
      </g>
      <g class="com.sun.star.drawing.LineShape">
       <g id="id75">
        <rect class="BoundingBox" stroke="none" fill="none" x="696" y="697" width="1107" height="1107"/>
        <path fill="none" stroke="rgb(255,150,0)" stroke-width="106" stroke-linejoin="round" d="M 749,750 L 1749,1750"/>
       </g>
      </g>
      <g class="com.sun.star.drawing.LineShape">
       <g id="id76">
        <rect class="BoundingBox" stroke="none" fill="none" x="696" y="697" width="1108" height="1107"/>
        <path fill="none" stroke="rgb(255,150,0)" stroke-width="106" stroke-linejoin="round" d="M 749,1750 L 1749,750"/>
       </g>
      </g>
      <g class="com.sun.star.drawing.CustomShape">
       <g id="id77">
        <rect class="BoundingBox" stroke="none" fill="none" x="747" y="729" width="1004" height="1003"/>
        <path fill="rgb(255,150,0)" stroke="none" d="M 1750,1230 C 1750,1318 1727,1404 1683,1480 1639,1557 1576,1620 1500,1664 1423,1708 1337,1731 1249,1731 1161,1731 1075,1708 999,1664 922,1620 859,1557 815,1480 771,1404 748,1318 748,1230 748,1142 771,1056 815,980 859,903 922,840 999,796 1075,752 1161,729 1249,729 1337,729 1423,752 1500,796 1576,840 1639,903 1683,979 1727,1056 1750,1142 1750,1230 L 1750,1230 Z"/>
       </g>
      </g>
      <g class="com.sun.star.drawing.LineShape">
       <g id="id78">
        <rect class="BoundingBox" stroke="none" fill="none" x="696" y="677" width="1107" height="1107"/>
        <path fill="none" stroke="rgb(255,150,0)" stroke-width="106" stroke-linejoin="round" d="M 749,730 L 1749,1730"/>
       </g>
      </g>
      <g class="com.sun.star.drawing.LineShape">
       <g id="id79">
        <rect class="BoundingBox" stroke="none" fill="none" x="696" y="677" width="1108" height="1107"/>
        <path fill="none" stroke="rgb(255,150,0)" stroke-width="106" stroke-linejoin="round" d="M 749,1730 L 1749,730"/>
       </g>
      </g>
      <g class="com.sun.star.drawing.CustomShape">
       <g id="id80">
        <rect class="BoundingBox" stroke="none" fill="none" x="747" y="2228" width="1004" height="1004"/>
        <path fill="rgb(0,255,0)" stroke="none" d="M 1750,2730 C 1750,2818 1727,2904 1683,2981 1639,3057 1576,3120 1500,3164 1423,3208 1337,3231 1249,3231 1161,3231 1075,3208 999,3164 922,3120 859,3057 815,2981 771,2904 748,2818 748,2730 748,2642 771,2556 815,2480 859,2403 922,2340 999,2296 1075,2252 1161,2229 1249,2229 1337,2229 1423,2252 1500,2296 1576,2340 1639,2403 1683,2479 1727,2556 1750,2642 1750,2730 L 1750,2730 Z"/>
       </g>
      </g>
     </g>
    </g>
   </g>
  </g>
 </g>
</svg>