<?xml version="1.0" encoding="UTF-8"?>
<!DOCTYPE svg PUBLIC "-//W3C//DTD SVG 1.1//EN" "http://www.w3.org/Graphics/SVG/1.1/DTD/svg11.dtd">
<svg version="1.2" width="40mm" height="117.5mm" viewBox="0 0 4000 11750" preserveAspectRatio="xMidYMid" fill-rule="evenodd" stroke-width="28.222" stroke-linejoin="round" xmlns="http://www.w3.org/2000/svg" xmlns:ooo="http://xml.openoffice.org/svg/export" xmlns:xlink="http://www.w3.org/1999/xlink" xmlns:presentation="http://sun.com/xmlns/staroffice/presentation" xmlns:smil="http://www.w3.org/2001/SMIL20/" xmlns:anim="urn:oasis:names:tc:opendocument:xmlns:animation:1.0" xmlns:svg="urn:oasis:names:tc:opendocument:xmlns:svg-compatible:1.0" xml:space="preserve">
 <defs class="ClipPathGroup">
  <clipPath id="presentation_clip_path" clipPathUnits="userSpaceOnUse">
   <rect x="0" y="0" width="4000" height="11750"/>
  </clipPath>
  <clipPath id="presentation_clip_path_shrink" clipPathUnits="userSpaceOnUse">
   <rect x="4" y="11" width="3992" height="11727"/>
  </clipPath>
 </defs>
 <defs class="TextShapeIndex">
  <g ooo:slide="id1" ooo:id-list="id3 id4 id5 id6 id7 id8 id9 id10 id11 id12 id13 id14 id15 id16 id17 id18 id19 id20 id21 id22 id23 id24 id25 id26 id27"/>
 </defs>
 <defs class="EmbeddedBulletChars">
  <g id="bullet-char-template-57356" transform="scale(0.00048828125,-0.00048828125)">
   <path d="M 580,1141 L 1163,571 580,0 -4,571 580,1141 Z"/>
  </g>
  <g id="bullet-char-template-57354" transform="scale(0.00048828125,-0.00048828125)">
   <path d="M 8,1128 L 1137,1128 1137,0 8,0 8,1128 Z"/>
  </g>
  <g id="bullet-char-template-10146" transform="scale(0.00048828125,-0.00048828125)">
   <path d="M 174,0 L 602,739 174,1481 1456,739 174,0 Z M 1358,739 L 309,1346 659,739 1358,739 Z"/>
  </g>
  <g id="bullet-char-template-10132" transform="scale(0.00048828125,-0.00048828125)">
   <path d="M 2015,739 L 1276,0 717,0 1260,543 174,543 174,936 1260,936 717,1481 1274,1481 2015,739 Z"/>
  </g>
  <g id="bullet-char-template-10007" transform="scale(0.00048828125,-0.00048828125)">
   <path d="M 0,-2 C -7,14 -16,27 -25,37 L 356,567 C 262,823 215,952 215,954 215,979 228,992 255,992 264,992 276,990 289,987 310,991 331,999 354,1012 L 381,999 492,748 772,1049 836,1024 860,1049 C 881,1039 901,1025 922,1006 886,937 835,863 770,784 769,783 710,716 594,584 L 774,223 C 774,196 753,168 711,139 L 727,119 C 717,90 699,76 672,76 641,76 570,178 457,381 L 164,-76 C 142,-110 111,-127 72,-127 30,-127 9,-110 8,-76 1,-67 -2,-52 -2,-32 -2,-23 -1,-13 0,-2 Z"/>
  </g>
  <g id="bullet-char-template-10004" transform="scale(0.00048828125,-0.00048828125)">
   <path d="M 285,-33 C 182,-33 111,30 74,156 52,228 41,333 41,471 41,549 55,616 82,672 116,743 169,778 240,778 293,778 328,747 346,684 L 369,508 C 377,444 397,411 428,410 L 1163,1116 C 1174,1127 1196,1133 1229,1133 1271,1133 1292,1118 1292,1087 L 1292,965 C 1292,929 1282,901 1262,881 L 442,47 C 390,-6 338,-33 285,-33 Z"/>
  </g>
  <g id="bullet-char-template-9679" transform="scale(0.00048828125,-0.00048828125)">
   <path d="M 813,0 C 632,0 489,54 383,161 276,268 223,411 223,592 223,773 276,916 383,1023 489,1130 632,1184 813,1184 992,1184 1136,1130 1245,1023 1353,916 1407,772 1407,592 1407,412 1353,268 1245,161 1136,54 992,0 813,0 Z"/>
  </g>
  <g id="bullet-char-template-8226" transform="scale(0.00048828125,-0.00048828125)">
   <path d="M 346,457 C 273,457 209,483 155,535 101,586 74,649 74,723 74,796 101,859 155,911 209,963 273,989 346,989 419,989 480,963 531,910 582,859 608,796 608,723 608,648 583,586 532,535 482,483 420,457 346,457 Z"/>
  </g>
  <g id="bullet-char-template-8211" transform="scale(0.00048828125,-0.00048828125)">
   <path d="M -4,459 L 1135,459 1135,606 -4,606 -4,459 Z"/>
  </g>
  <g id="bullet-char-template-61548" transform="scale(0.00048828125,-0.00048828125)">
   <path d="M 173,740 C 173,903 231,1043 346,1159 462,1274 601,1332 765,1332 928,1332 1067,1274 1183,1159 1299,1043 1357,903 1357,740 1357,577 1299,437 1183,322 1067,206 928,148 765,148 601,148 462,206 346,322 231,437 173,577 173,740 Z"/>
  </g>
 </defs>
 <g>
  <g id="id2" class="Master_Slide">
   <g id="bg-id2" class="Background"/>
   <g id="bo-id2" class="BackgroundObjects"/>
  </g>
 </g>
 <g class="SlideGroup">
  <g>
   <g id="container-id1">
    <g id="id1" class="Slide" clip-path="url(#presentation_clip_path)">
     <g class="Page">
      <g class="com.sun.star.drawing.CustomShape">
       <g id="id3">
        <rect class="BoundingBox" stroke="none" fill="none" x="1077" y="2941" width="829" height="830"/>
        <path fill="rgb(190,190,190)" stroke="none" d="M 1717,3582 L 1530,3769 1077,3316 1451,2942 1904,3395 1717,3582 Z"/>
       </g>
      </g>
      <g class="com.sun.star.drawing.CustomShape">
       <g id="id4">
        <rect class="BoundingBox" stroke="none" fill="none" x="999" y="3204" width="644" height="644"/>
        <path fill="rgb(190,190,190)" stroke="none" d="M 1547,3298 C 1587,3338 1616,3388 1631,3442 1645,3497 1645,3554 1631,3609 1616,3663 1588,3713 1548,3753 1508,3793 1458,3821 1404,3836 1349,3850 1292,3850 1237,3836 1183,3821 1133,3792 1093,3752 1053,3712 1025,3663 1010,3608 995,3554 995,3496 1010,3442 1025,3388 1053,3338 1093,3298 1133,3258 1183,3230 1237,3215 1291,3200 1349,3200 1403,3215 1458,3230 1507,3258 1547,3298 L 1547,3298 Z"/>
       </g>
      </g>
      <g class="com.sun.star.drawing.CustomShape">
       <g id="id5">
        <rect class="BoundingBox" stroke="none" fill="none" x="1357" y="2847" width="644" height="644"/>
        <path fill="rgb(190,190,190)" stroke="none" d="M 1905,2941 C 1945,2981 1974,3031 1989,3085 2003,3140 2003,3197 1989,3252 1974,3306 1946,3356 1906,3396 1866,3436 1816,3464 1762,3479 1707,3493 1650,3493 1595,3479 1541,3464 1491,3435 1451,3395 1411,3355 1383,3306 1368,3251 1353,3197 1353,3139 1368,3085 1383,3031 1411,2981 1451,2941 1491,2901 1541,2873 1595,2858 1649,2843 1707,2843 1761,2858 1816,2873 1865,2901 1905,2941 L 1905,2941 Z"/>
       </g>
      </g>
      <g class="com.sun.star.drawing.CustomShape">
       <g id="id6">
        <rect class="BoundingBox" stroke="none" fill="none" x="1456" y="2930" width="458" height="458"/>
        <path fill="rgb(255,0,0)" stroke="none" d="M 1845,2998 C 1874,3026 1894,3061 1904,3100 1915,3139 1915,3179 1904,3218 1894,3256 1874,3292 1846,3320 1817,3348 1782,3368 1744,3379 1705,3389 1664,3389 1626,3379 1587,3368 1552,3348 1523,3320 1495,3291 1475,3256 1464,3217 1454,3179 1454,3138 1464,3099 1475,3061 1495,3026 1523,2997 1551,2969 1587,2949 1625,2939 1664,2928 1704,2928 1743,2939 1782,2949 1817,2969 1845,2998 L 1845,2998 Z"/>
        <path fill="none" stroke="rgb(0,0,0)" d="M 1845,2998 C 1874,3026 1894,3061 1904,3100 1915,3139 1915,3179 1904,3218 1894,3256 1874,3292 1846,3320 1817,3348 1782,3368 1744,3379 1705,3389 1664,3389 1626,3379 1587,3368 1552,3348 1523,3320 1495,3291 1475,3256 1464,3217 1454,3179 1454,3138 1464,3099 1475,3061 1495,3026 1523,2997 1551,2969 1587,2949 1625,2939 1664,2928 1704,2928 1743,2939 1782,2949 1817,2969 1845,2998 L 1845,2998 Z"/>
       </g>
      </g>
      <g class="com.sun.star.drawing.CustomShape">
       <g id="id7">
        <rect class="BoundingBox" stroke="none" fill="none" x="1086" y="3306" width="458" height="458"/>
        <path fill="rgb(255,255,255)" stroke="none" d="M 1475,3374 C 1504,3402 1524,3437 1534,3476 1545,3515 1545,3555 1534,3594 1524,3632 1504,3668 1476,3696 1447,3724 1412,3744 1374,3755 1335,3765 1294,3765 1256,3755 1217,3744 1182,3724 1153,3696 1125,3667 1105,3632 1094,3593 1084,3555 1084,3514 1094,3475 1105,3437 1125,3402 1153,3373 1181,3345 1217,3325 1255,3315 1294,3304 1334,3304 1373,3315 1412,3325 1447,3345 1475,3374 L 1475,3374 Z"/>
        <path fill="none" stroke="rgb(0,0,0)" d="M 1475,3374 C 1504,3402 1524,3437 1534,3476 1545,3515 1545,3555 1534,3594 1524,3632 1504,3668 1476,3696 1447,3724 1412,3744 1374,3755 1335,3765 1294,3765 1256,3755 1217,3744 1182,3724 1153,3696 1125,3667 1105,3632 1094,3593 1084,3555 1084,3514 1094,3475 1105,3437 1125,3402 1153,3373 1181,3345 1217,3325 1255,3315 1294,3304 1334,3304 1373,3315 1412,3325 1447,3345 1475,3374 Z"/>
       </g>
      </g>
      <g class="com.sun.star.drawing.CustomShape">
       <g id="id8">
        <rect class="BoundingBox" stroke="none" fill="none" x="577" y="1750" width="425" height="10001"/>
        <path fill="rgb(192,192,192)" stroke="none" d="M 789,11750 L 577,11750 577,1750 1001,1750 1001,11750 789,11750 Z"/>
       </g>
      </g>
      <g class="com.sun.star.drawing.CustomShape">
       <g id="id9">
        <rect class="BoundingBox" stroke="none" fill="none" x="-1" y="2327" width="3906" height="530"/>
        <path fill="rgb(250,1,0)" stroke="none" d="M 1952,2856 L -1,2856 -1,2327 3904,2327 3904,2856 1952,2856 Z"/>
       </g>
      </g>
      <g class="com.sun.star.drawing.CustomShape">
       <g id="id10">
        <rect class="BoundingBox" stroke="none" fill="none" x="3067" y="2122" width="930" height="931"/>
        <path fill="rgb(250,1,0)" stroke="none" d="M 3996,2587 C 3996,2669 3975,2749 3934,2820 3893,2890 3834,2949 3764,2990 3693,3031 3613,3052 3531,3052 3450,3052 3370,3031 3299,2990 3229,2949 3170,2890 3129,2820 3088,2749 3067,2669 3067,2588 3067,2506 3088,2426 3129,2355 3170,2285 3229,2226 3299,2185 3370,2144 3450,2123 3531,2123 3613,2123 3693,2144 3764,2185 3834,2226 3893,2285 3934,2355 3975,2426 3996,2506 3996,2587 L 3996,2587 Z"/>
       </g>
      </g>
      <g class="com.sun.star.drawing.CustomShape">
       <g id="id11">
        <rect class="BoundingBox" stroke="none" fill="none" x="146" y="2480" width="2918" height="221"/>
        <path fill="rgb(255,252,255)" stroke="none" d="M 1605,2700 L 146,2700 146,2480 3063,2480 3063,2700 1605,2700 Z"/>
       </g>
      </g>
      <g class="com.sun.star.drawing.CustomShape">
       <g id="id12">
        <rect class="BoundingBox" stroke="none" fill="none" x="3245" y="2295" width="599" height="599"/>
        <path fill="rgb(255,252,255)" stroke="none" d="M 3843,2594 C 3843,2646 3829,2698 3803,2744 3777,2789 3739,2827 3694,2853 3648,2879 3596,2893 3544,2893 3492,2893 3440,2879 3395,2853 3349,2827 3311,2789 3285,2744 3259,2698 3245,2646 3245,2594 3245,2542 3259,2490 3285,2445 3311,2399 3349,2361 3395,2335 3440,2309 3492,2295 3544,2295 3596,2295 3648,2309 3694,2335 3739,2361 3777,2399 3803,2444 3829,2490 3843,2542 3843,2594 L 3843,2594 Z"/>
       </g>
      </g>
      <g class="com.sun.star.drawing.CustomShape">
       <g id="id13">
        <rect class="BoundingBox" stroke="none" fill="none" x="2250" y="4301" width="931" height="931"/>
        <path fill="rgb(250,1,0)" stroke="none" d="M 3043,4438 C 3101,4495 3142,4567 3163,4646 3184,4725 3184,4807 3163,4886 3142,4965 3101,5037 3043,5094 2986,5152 2914,5194 2835,5215 2756,5236 2673,5236 2594,5215 2516,5194 2444,5152 2386,5094 2329,5037 2287,4965 2266,4886 2245,4807 2245,4725 2266,4646 2287,4567 2329,4495 2386,4438 2444,4380 2516,4338 2594,4317 2673,4296 2756,4296 2835,4317 2914,4338 2986,4380 3043,4438 L 3043,4438 Z"/>
       </g>
      </g>
      <g class="com.sun.star.drawing.CustomShape">
       <g id="id14">
        <rect class="BoundingBox" stroke="none" fill="none" x="1097" y="6768" width="831" height="830"/>
        <path fill="rgb(190,190,190)" stroke="none" d="M 1740,6955 L 1927,7142 1472,7597 1098,7223 1553,6768 1740,6955 Z"/>
       </g>
      </g>
      <g class="com.sun.star.drawing.CustomShape">
       <g id="id15">
        <rect class="BoundingBox" stroke="none" fill="none" x="1357" y="7030" width="644" height="644"/>
        <path fill="rgb(190,190,190)" stroke="none" d="M 1451,7125 C 1491,7085 1541,7056 1595,7041 1650,7027 1707,7027 1762,7041 1816,7056 1866,7084 1906,7124 1946,7164 1974,7214 1989,7268 2003,7323 2003,7380 1989,7435 1974,7489 1945,7539 1905,7579 1865,7619 1816,7647 1761,7662 1707,7677 1649,7677 1595,7662 1541,7647 1491,7619 1451,7579 1411,7539 1383,7489 1368,7435 1353,7381 1353,7323 1368,7269 1383,7214 1411,7165 1451,7125 L 1451,7125 Z"/>
       </g>
      </g>
      <g class="com.sun.star.drawing.CustomShape">
       <g id="id16">
        <rect class="BoundingBox" stroke="none" fill="none" x="1011" y="6676" width="644" height="644"/>
        <path fill="rgb(190,190,190)" stroke="none" d="M 1106,6771 C 1146,6731 1195,6703 1250,6688 1304,6673 1362,6673 1416,6688 1471,6703 1520,6731 1560,6771 1600,6811 1628,6860 1643,6915 1658,6969 1658,7027 1643,7081 1628,7136 1600,7185 1560,7225 1520,7265 1471,7293 1416,7308 1362,7323 1304,7323 1250,7308 1195,7293 1146,7265 1106,7225 1066,7185 1038,7136 1023,7081 1008,7027 1008,6969 1023,6915 1038,6860 1066,6811 1106,6771 L 1106,6771 Z"/>
       </g>
      </g>
      <g class="com.sun.star.drawing.CustomShape">
       <g id="id17">
        <rect class="BoundingBox" stroke="none" fill="none" x="1460" y="7129" width="458" height="458"/>
        <path fill="rgb(255,255,255)" stroke="none" d="M 1528,7197 C 1556,7168 1591,7148 1630,7138 1669,7127 1709,7127 1748,7138 1786,7148 1822,7168 1850,7196 1878,7225 1898,7260 1909,7298 1919,7337 1919,7378 1909,7416 1898,7455 1878,7490 1850,7519 1821,7547 1786,7567 1747,7578 1709,7588 1668,7588 1629,7578 1591,7567 1556,7547 1527,7519 1499,7491 1479,7455 1469,7417 1458,7378 1458,7338 1469,7299 1479,7260 1499,7225 1528,7197 L 1528,7197 Z"/>
        <path fill="none" stroke="rgb(0,0,0)" d="M 1528,7197 C 1556,7168 1591,7148 1630,7138 1669,7127 1709,7127 1748,7138 1786,7148 1822,7168 1850,7196 1878,7225 1898,7260 1909,7298 1919,7337 1919,7378 1909,7416 1898,7455 1878,7490 1850,7519 1821,7547 1786,7567 1747,7578 1709,7588 1668,7588 1629,7578 1591,7567 1556,7547 1527,7519 1499,7491 1479,7455 1469,7417 1458,7378 1458,7338 1469,7299 1479,7260 1499,7225 1528,7197 Z"/>
       </g>
      </g>
      <g class="com.sun.star.drawing.CustomShape">
       <g id="id18">
        <rect class="BoundingBox" stroke="none" fill="none" x="1093" y="6767" width="830" height="829"/>
        <path fill="rgb(190,190,190)" stroke="none" d="M 1734,6955 L 1921,7142 1468,7595 1094,7221 1547,6768 1734,6955 Z"/>
       </g>
      </g>
      <g class="com.sun.star.drawing.CustomShape">
       <g id="id19">
        <rect class="BoundingBox" stroke="none" fill="none" x="1356" y="7030" width="644" height="644"/>
        <path fill="rgb(190,190,190)" stroke="none" d="M 1450,7125 C 1490,7085 1540,7056 1594,7041 1649,7027 1706,7027 1761,7041 1815,7056 1865,7084 1905,7124 1945,7164 1973,7214 1988,7268 2002,7323 2002,7380 1988,7435 1973,7489 1944,7539 1904,7579 1864,7619 1815,7647 1760,7662 1706,7677 1648,7677 1594,7662 1540,7647 1490,7619 1450,7579 1410,7539 1382,7489 1367,7435 1352,7381 1352,7323 1367,7269 1382,7214 1410,7165 1450,7125 L 1450,7125 Z"/>
       </g>
      </g>
      <g class="com.sun.star.drawing.CustomShape">
       <g id="id20">
        <rect class="BoundingBox" stroke="none" fill="none" x="999" y="6671" width="644" height="644"/>
        <path fill="rgb(190,190,190)" stroke="none" d="M 1093,6766 C 1133,6726 1183,6697 1237,6682 1292,6668 1349,6668 1404,6682 1458,6697 1508,6725 1548,6765 1588,6805 1616,6855 1631,6909 1645,6964 1645,7021 1631,7076 1616,7130 1587,7180 1547,7220 1507,7260 1458,7288 1403,7303 1349,7318 1291,7318 1237,7303 1183,7288 1133,7260 1093,7220 1053,7180 1025,7130 1010,7076 995,7022 995,6964 1010,6910 1025,6855 1053,6806 1093,6766 L 1093,6766 Z"/>
       </g>
      </g>
      <g class="com.sun.star.drawing.CustomShape">
       <g id="id21">
        <rect class="BoundingBox" stroke="none" fill="none" x="1458" y="7130" width="458" height="458"/>
        <path fill="rgb(255,150,0)" stroke="none" d="M 1526,7198 C 1554,7169 1589,7149 1628,7139 1667,7128 1707,7128 1746,7139 1784,7149 1820,7169 1848,7197 1876,7226 1896,7261 1907,7299 1917,7338 1917,7379 1907,7417 1896,7456 1876,7491 1848,7520 1819,7548 1784,7568 1745,7579 1707,7589 1666,7589 1627,7579 1589,7568 1554,7548 1525,7520 1497,7492 1477,7456 1467,7418 1456,7379 1456,7339 1467,7300 1477,7261 1497,7226 1526,7198 L 1526,7198 Z"/>
        <path fill="none" stroke="rgb(0,0,0)" d="M 1526,7198 C 1554,7169 1589,7149 1628,7139 1667,7128 1707,7128 1746,7139 1784,7149 1820,7169 1848,7197 1876,7226 1896,7261 1907,7299 1917,7338 1917,7379 1907,7417 1896,7456 1876,7491 1848,7520 1819,7548 1784,7568 1745,7579 1707,7589 1666,7589 1627,7579 1589,7568 1554,7548 1525,7520 1497,7492 1477,7456 1467,7418 1456,7379 1456,7339 1467,7300 1477,7261 1497,7226 1526,7198 Z"/>
       </g>
      </g>
      <g class="com.sun.star.drawing.CustomShape">
       <g id="id22">
        <rect class="BoundingBox" stroke="none" fill="none" x="161" y="5020" width="2305" height="2305"/>
        <path fill="rgb(255,252,255)" stroke="none" d="M 1391,6250 L 318,7323 162,7167 2308,5021 2464,5176 1391,6250 Z"/>
        <path fill="none" stroke="rgb(19,19,19)" d="M 1391,6250 L 318,7323 162,7167 2308,5021 2464,5176 1391,6250 Z"/>
       </g>
      </g>
      <g class="com.sun.star.drawing.CustomShape">
       <g id="id23">
        <rect class="BoundingBox" stroke="none" fill="none" x="2428" y="4461" width="601" height="601"/>
        <path fill="rgb(255,252,255)" stroke="none" d="M 2939,4550 C 2977,4587 3003,4633 3017,4684 3030,4734 3030,4788 3017,4838 3003,4889 2977,4935 2939,4972 2902,5010 2856,5036 2805,5050 2755,5063 2701,5063 2651,5050 2600,5036 2554,5010 2517,4972 2479,4935 2453,4889 2439,4838 2426,4788 2426,4734 2439,4684 2453,4633 2479,4587 2517,4550 2554,4512 2600,4486 2651,4472 2701,4459 2755,4459 2805,4472 2856,4486 2902,4512 2939,4550 L 2939,4550 Z"/>
        <path fill="none" stroke="rgb(19,19,19)" d="M 2939,4550 C 2977,4587 3003,4633 3017,4684 3030,4734 3030,4788 3017,4838 3003,4889 2977,4935 2939,4972 2902,5010 2856,5036 2805,5050 2755,5063 2701,5063 2651,5050 2600,5036 2554,5010 2517,4972 2479,4935 2453,4889 2439,4838 2426,4788 2426,4734 2439,4684 2453,4633 2479,4587 2517,4550 2554,4512 2600,4486 2651,4472 2701,4459 2755,4459 2805,4472 2856,4486 2902,4512 2939,4550 Z"/>
       </g>
      </g>
      <g class="com.sun.star.drawing.CustomShape">
       <g id="id24">
        <rect class="BoundingBox" stroke="none" fill="none" x="32" y="4317" width="3137" height="3138"/>
        <path fill="rgb(250,1,0)" stroke="none" d="M 1787,6072 L 406,7453 32,7079 2793,4318 3167,4692 1787,6072 Z"/>
       </g>
      </g>
      <g class="com.sun.star.drawing.CustomShape">
       <g id="id25">
        <rect class="BoundingBox" stroke="none" fill="none" x="2248" y="4299" width="931" height="931"/>
        <path fill="rgb(250,1,0)" stroke="none" d="M 3041,4436 C 3099,4493 3140,4565 3161,4644 3182,4723 3182,4805 3161,4884 3140,4963 3099,5035 3041,5092 2984,5150 2912,5192 2833,5213 2754,5234 2671,5234 2592,5213 2514,5192 2442,5150 2384,5092 2327,5035 2285,4963 2264,4884 2243,4805 2243,4723 2264,4644 2285,4565 2327,4493 2384,4436 2442,4378 2514,4336 2592,4315 2671,4294 2754,4294 2833,4315 2912,4336 2984,4378 3041,4436 L 3041,4436 Z"/>
       </g>
      </g>
      <g class="com.sun.star.drawing.CustomShape">
       <g id="id26">
        <rect class="BoundingBox" stroke="none" fill="none" x="244" y="5018" width="2220" height="2220"/>
        <path fill="rgb(255,252,255)" stroke="none" d="M 1431,6205 L 400,7237 244,7081 2307,5018 2462,5174 1431,6205 Z"/>
       </g>
      </g>
      <g class="com.sun.star.drawing.CustomShape">
       <g id="id27">
        <rect class="BoundingBox" stroke="none" fill="none" x="2429" y="4462" width="599" height="599"/>
        <path fill="rgb(255,252,255)" stroke="none" d="M 2939,4550 C 2977,4587 3003,4633 3017,4684 3030,4734 3030,4788 3017,4838 3003,4889 2977,4935 2939,4972 2902,5010 2856,5036 2805,5050 2755,5063 2701,5063 2651,5050 2600,5036 2554,5010 2517,4972 2479,4935 2453,4889 2439,4838 2426,4788 2426,4734 2439,4684 2453,4633 2479,4587 2517,4550 2554,4512 2600,4486 2651,4472 2701,4459 2755,4459 2805,4472 2856,4486 2902,4512 2939,4550 L 2939,4550 Z"/>
       </g>
      </g>
     </g>
    </g>
   </g>
  </g>
 </g>
</svg>