<?xml version="1.0" encoding="UTF-8"?>
<!DOCTYPE svg PUBLIC "-//W3C//DTD SVG 1.1//EN" "http://www.w3.org/Graphics/SVG/1.1/DTD/svg11.dtd">
<svg version="1.2" width="40mm" height="117.5mm" viewBox="0 0 4000 11750" preserveAspectRatio="xMidYMid" fill-rule="evenodd" stroke-width="28.222" stroke-linejoin="round" xmlns="http://www.w3.org/2000/svg" xmlns:ooo="http://xml.openoffice.org/svg/export" xmlns:xlink="http://www.w3.org/1999/xlink" xmlns:presentation="http://sun.com/xmlns/staroffice/presentation" xmlns:smil="http://www.w3.org/2001/SMIL20/" xmlns:anim="urn:oasis:names:tc:opendocument:xmlns:animation:1.0" xmlns:svg="urn:oasis:names:tc:opendocument:xmlns:svg-compatible:1.0" xml:space="preserve">
 <defs class="ClipPathGroup">
  <clipPath id="presentation_clip_path" clipPathUnits="userSpaceOnUse">
   <rect x="0" y="0" width="4000" height="11750"/>
  </clipPath>
  <clipPath id="presentation_clip_path_shrink" clipPathUnits="userSpaceOnUse">
   <rect x="4" y="11" width="3992" height="11727"/>
  </clipPath>
 </defs>
 <defs class="TextShapeIndex">
  <g ooo:slide="id1" ooo:id-list="id3 id4 id5 id6 id7 id8 id9 id10 id11 id12 id13 id14 id15 id16 id17 id18 id19 id20 id21 id22 id23 id24 id25 id26 id27"/>
 </defs>
 <defs class="EmbeddedBulletChars">
  <g id="bullet-char-template-57356" transform="scale(0.00048828125,-0.00048828125)">
   <path d="M 580,1141 L 1163,571 580,0 -4,571 580,1141 Z"/>
  </g>
  <g id="bullet-char-template-57354" transform="scale(0.00048828125,-0.00048828125)">
   <path d="M 8,1128 L 1137,1128 1137,0 8,0 8,1128 Z"/>
  </g>
  <g id="bullet-char-template-10146" transform="scale(0.00048828125,-0.00048828125)">
   <path d="M 174,0 L 602,739 174,1481 1456,739 174,0 Z M 1358,739 L 309,1346 659,739 1358,739 Z"/>
  </g>
  <g id="bullet-char-template-10132" transform="scale(0.00048828125,-0.00048828125)">
   <path d="M 2015,739 L 1276,0 717,0 1260,543 174,543 174,936 1260,936 717,1481 1274,1481 2015,739 Z"/>
  </g>
  <g id="bullet-char-template-10007" transform="scale(0.00048828125,-0.00048828125)">
   <path d="M 0,-2 C -7,14 -16,27 -25,37 L 356,567 C 262,823 215,952 215,954 215,979 228,992 255,992 264,992 276,990 289,987 310,991 331,999 354,1012 L 381,999 492,748 772,1049 836,1024 860,1049 C 881,1039 901,1025 922,1006 886,937 835,863 770,784 769,783 710,716 594,584 L 774,223 C 774,196 753,168 711,139 L 727,119 C 717,90 699,76 672,76 641,76 570,178 457,381 L 164,-76 C 142,-110 111,-127 72,-127 30,-127 9,-110 8,-76 1,-67 -2,-52 -2,-32 -2,-23 -1,-13 0,-2 Z"/>
  </g>
  <g id="bullet-char-template-10004" transform="scale(0.00048828125,-0.00048828125)">
   <path d="M 285,-33 C 182,-33 111,30 74,156 52,228 41,333 41,471 41,549 55,616 82,672 116,743 169,778 240,778 293,778 328,747 346,684 L 369,508 C 377,444 397,411 428,410 L 1163,1116 C 1174,1127 1196,1133 1229,1133 1271,1133 1292,1118 1292,1087 L 1292,965 C 1292,929 1282,901 1262,881 L 442,47 C 390,-6 338,-33 285,-33 Z"/>
  </g>
  <g id="bullet-char-template-9679" transform="scale(0.00048828125,-0.00048828125)">
   <path d="M 813,0 C 632,0 489,54 383,161 276,268 223,411 223,592 223,773 276,916 383,1023 489,1130 632,1184 813,1184 992,1184 1136,1130 1245,1023 1353,916 1407,772 1407,592 1407,412 1353,268 1245,161 1136,54 992,0 813,0 Z"/>
  </g>
  <g id="bullet-char-template-8226" transform="scale(0.00048828125,-0.00048828125)">
   <path d="M 346,457 C 273,457 209,483 155,535 101,586 74,649 74,723 74,796 101,859 155,911 209,963 273,989 346,989 419,989 480,963 531,910 582,859 608,796 608,723 608,648 583,586 532,535 482,483 420,457 346,457 Z"/>
  </g>
  <g id="bullet-char-template-8211" transform="scale(0.00048828125,-0.00048828125)">
   <path d="M -4,459 L 1135,459 1135,606 -4,606 -4,459 Z"/>
  </g>
  <g id="bullet-char-template-61548" transform="scale(0.00048828125,-0.00048828125)">
   <path d="M 173,740 C 173,903 231,1043 346,1159 462,1274 601,1332 765,1332 928,1332 1067,1274 1183,1159 1299,1043 1357,903 1357,740 1357,577 1299,437 1183,322 1067,206 928,148 765,148 601,148 462,206 346,322 231,437 173,577 173,740 Z"/>
  </g>
 </defs>
 <g>
  <g id="id2" class="Master_Slide">
   <g id="bg-id2" class="Background"/>
   <g id="bo-id2" class="BackgroundObjects"/>
  </g>
 </g>
 <g class="SlideGroup">
  <g>
   <g id="container-id1">
    <g id="id1" class="Slide" clip-path="url(#presentation_clip_path)">
     <g class="Page">
      <g class="Group">
       <g class="com.sun.star.drawing.CustomShape">
        <g id="id3">
         <rect class="BoundingBox" stroke="none" fill="none" x="1121" y="6398" width="830" height="831"/>
         <path fill="rgb(190,190,190)" stroke="none" d="M 1763,7041 L 1576,7228 1121,6773 1495,6399 1950,6854 1763,7041 Z"/>
        </g>
       </g>
       <g class="com.sun.star.drawing.CustomShape">
        <g id="id4">
         <rect class="BoundingBox" stroke="none" fill="none" x="1043" y="6660" width="644" height="644"/>
         <path fill="rgb(190,190,190)" stroke="none" d="M 1591,6754 C 1631,6794 1660,6844 1675,6898 1689,6953 1689,7010 1675,7065 1660,7119 1632,7169 1592,7209 1552,7249 1502,7277 1448,7292 1393,7306 1336,7306 1281,7292 1227,7277 1177,7248 1137,7208 1097,7168 1069,7119 1054,7064 1039,7010 1039,6952 1054,6898 1069,6844 1097,6794 1137,6754 1177,6714 1227,6686 1281,6671 1335,6656 1393,6656 1447,6671 1502,6686 1551,6714 1591,6754 L 1591,6754 Z"/>
        </g>
       </g>
       <g class="com.sun.star.drawing.CustomShape">
        <g id="id5">
         <rect class="BoundingBox" stroke="none" fill="none" x="1397" y="6314" width="643" height="644"/>
         <path fill="rgb(190,190,190)" stroke="none" d="M 1945,6408 C 1985,6448 2013,6497 2028,6552 2043,6606 2043,6664 2028,6718 2013,6773 1985,6822 1945,6862 1905,6902 1856,6930 1801,6945 1747,6960 1689,6960 1635,6945 1580,6930 1531,6902 1491,6862 1451,6822 1423,6773 1408,6718 1393,6664 1393,6606 1408,6552 1423,6497 1451,6448 1491,6408 1531,6368 1580,6340 1635,6325 1689,6310 1747,6310 1801,6325 1856,6340 1905,6368 1945,6408 L 1945,6408 Z"/>
        </g>
       </g>
       <g class="com.sun.star.drawing.CustomShape">
        <g id="id6">
         <rect class="BoundingBox" stroke="none" fill="none" x="1130" y="6762" width="458" height="458"/>
         <path fill="rgb(255,255,255)" stroke="none" d="M 1519,6830 C 1548,6858 1568,6893 1578,6932 1589,6971 1589,7011 1578,7050 1568,7088 1548,7124 1520,7152 1491,7180 1456,7200 1418,7211 1379,7221 1338,7221 1300,7211 1261,7200 1226,7180 1197,7152 1169,7123 1149,7088 1138,7049 1128,7011 1128,6970 1138,6931 1149,6893 1169,6858 1197,6829 1225,6801 1261,6781 1299,6771 1338,6760 1378,6760 1417,6771 1456,6781 1491,6801 1519,6830 L 1519,6830 Z"/>
         <path fill="none" stroke="rgb(0,0,0)" d="M 1519,6830 C 1548,6858 1568,6893 1578,6932 1589,6971 1589,7011 1578,7050 1568,7088 1548,7124 1520,7152 1491,7180 1456,7200 1418,7211 1379,7221 1338,7221 1300,7211 1261,7200 1226,7180 1197,7152 1169,7123 1149,7088 1138,7049 1128,7011 1128,6970 1138,6931 1149,6893 1169,6858 1197,6829 1225,6801 1261,6781 1299,6771 1338,6760 1378,6760 1417,6771 1456,6781 1491,6801 1519,6830 Z"/>
        </g>
       </g>
       <g class="com.sun.star.drawing.CustomShape">
        <g id="id7">
         <rect class="BoundingBox" stroke="none" fill="none" x="1122" y="6395" width="829" height="830"/>
         <path fill="rgb(190,190,190)" stroke="none" d="M 1762,7036 L 1575,7223 1122,6770 1496,6396 1949,6849 1762,7036 Z"/>
        </g>
       </g>
       <g class="com.sun.star.drawing.CustomShape">
        <g id="id8">
         <rect class="BoundingBox" stroke="none" fill="none" x="1044" y="6658" width="644" height="644"/>
         <path fill="rgb(190,190,190)" stroke="none" d="M 1592,6752 C 1632,6792 1661,6842 1676,6896 1690,6951 1690,7008 1676,7063 1661,7117 1633,7167 1593,7207 1553,7247 1503,7275 1449,7290 1394,7304 1337,7304 1282,7290 1228,7275 1178,7246 1138,7206 1098,7166 1070,7117 1055,7062 1040,7008 1040,6950 1055,6896 1070,6842 1098,6792 1138,6752 1178,6712 1228,6684 1282,6669 1336,6654 1394,6654 1448,6669 1503,6684 1552,6712 1592,6752 L 1592,6752 Z"/>
        </g>
       </g>
       <g class="com.sun.star.drawing.CustomShape">
        <g id="id9">
         <rect class="BoundingBox" stroke="none" fill="none" x="1402" y="6301" width="644" height="644"/>
         <path fill="rgb(190,190,190)" stroke="none" d="M 1950,6395 C 1990,6435 2019,6485 2034,6539 2048,6594 2048,6651 2034,6706 2019,6760 1991,6810 1951,6850 1911,6890 1861,6918 1807,6933 1752,6947 1695,6947 1640,6933 1586,6918 1536,6889 1496,6849 1456,6809 1428,6760 1413,6705 1398,6651 1398,6593 1413,6539 1428,6485 1456,6435 1496,6395 1536,6355 1586,6327 1640,6312 1694,6297 1752,6297 1806,6312 1861,6327 1910,6355 1950,6395 L 1950,6395 Z"/>
        </g>
       </g>
       <g class="com.sun.star.drawing.CustomShape">
        <g id="id10">
         <rect class="BoundingBox" stroke="none" fill="none" x="1131" y="6760" width="458" height="458"/>
         <path fill="rgb(255,255,255)" stroke="none" d="M 1520,6828 C 1549,6856 1569,6891 1579,6930 1590,6969 1590,7009 1579,7048 1569,7086 1549,7122 1521,7150 1492,7178 1457,7198 1419,7209 1380,7219 1339,7219 1301,7209 1262,7198 1227,7178 1198,7150 1170,7121 1150,7086 1139,7047 1129,7009 1129,6968 1139,6929 1150,6891 1170,6856 1198,6827 1226,6799 1262,6779 1300,6769 1339,6758 1379,6758 1418,6769 1457,6779 1492,6799 1520,6828 L 1520,6828 Z"/>
         <path fill="none" stroke="rgb(0,0,0)" d="M 1520,6828 C 1549,6856 1569,6891 1579,6930 1590,6969 1590,7009 1579,7048 1569,7086 1549,7122 1521,7150 1492,7178 1457,7198 1419,7209 1380,7219 1339,7219 1301,7209 1262,7198 1227,7178 1198,7150 1170,7121 1150,7086 1139,7047 1129,7009 1129,6968 1139,6929 1150,6891 1170,6856 1198,6827 1226,6799 1262,6779 1300,6769 1339,6758 1379,6758 1418,6769 1457,6779 1492,6799 1520,6828 Z"/>
        </g>
       </g>
       <g class="com.sun.star.drawing.CustomShape">
        <g id="id11">
         <rect class="BoundingBox" stroke="none" fill="none" x="1101" y="2631" width="830" height="829"/>
         <path fill="rgb(190,190,190)" stroke="none" d="M 1742,2819 L 1929,3006 1476,3459 1102,3085 1555,2632 1742,2819 Z"/>
        </g>
       </g>
       <g class="com.sun.star.drawing.CustomShape">
        <g id="id12">
         <rect class="BoundingBox" stroke="none" fill="none" x="585" y="1750" width="425" height="10001"/>
         <path fill="rgb(192,192,192)" stroke="none" d="M 797,11750 L 585,11750 585,1750 1009,1750 1009,11750 797,11750 Z"/>
        </g>
       </g>
       <g class="com.sun.star.drawing.CustomShape">
        <g id="id13">
         <rect class="BoundingBox" stroke="none" fill="none" x="45" y="176" width="3137" height="3138"/>
         <path fill="rgb(250,1,0)" stroke="none" d="M 1800,1931 L 419,3312 45,2938 2806,177 3180,551 1800,1931 Z"/>
        </g>
       </g>
       <g class="com.sun.star.drawing.CustomShape">
        <g id="id14">
         <rect class="BoundingBox" stroke="none" fill="none" x="2262" y="159" width="931" height="931"/>
         <path fill="rgb(250,1,0)" stroke="none" d="M 3055,296 C 3113,353 3154,425 3175,504 3196,583 3196,665 3175,744 3154,823 3113,895 3055,952 2998,1010 2926,1052 2847,1073 2768,1094 2685,1094 2606,1073 2528,1052 2456,1010 2398,952 2341,895 2299,823 2278,744 2257,665 2257,583 2278,504 2299,425 2341,353 2398,296 2456,238 2528,196 2606,175 2685,154 2768,154 2847,175 2926,196 2998,238 3055,296 L 3055,296 Z"/>
        </g>
       </g>
       <g class="com.sun.star.drawing.CustomShape">
        <g id="id15">
         <rect class="BoundingBox" stroke="none" fill="none" x="257" y="878" width="2220" height="2220"/>
         <path fill="rgb(255,252,255)" stroke="none" d="M 1444,2065 L 413,3097 257,2941 2320,878 2475,1034 1444,2065 Z"/>
        </g>
       </g>
       <g class="com.sun.star.drawing.CustomShape">
        <g id="id16">
         <rect class="BoundingBox" stroke="none" fill="none" x="2441" y="321" width="599" height="600"/>
         <path fill="rgb(255,252,255)" stroke="none" d="M 2951,409 C 2989,446 3015,492 3029,543 3042,593 3042,647 3029,697 3015,748 2989,794 2951,831 2914,869 2868,895 2817,909 2767,922 2713,922 2663,909 2612,895 2566,869 2529,831 2491,794 2465,748 2451,697 2438,647 2438,593 2451,543 2465,492 2491,446 2529,409 2566,371 2612,345 2663,331 2713,318 2767,318 2817,331 2868,345 2914,371 2951,409 L 2951,409 Z"/>
        </g>
       </g>
       <g class="com.sun.star.drawing.CustomShape">
        <g id="id17">
         <rect class="BoundingBox" stroke="none" fill="none" x="1363" y="2895" width="644" height="644"/>
         <path fill="rgb(190,190,190)" stroke="none" d="M 1457,2990 C 1497,2950 1547,2921 1601,2906 1656,2892 1713,2892 1768,2906 1822,2921 1872,2949 1912,2989 1952,3029 1980,3079 1995,3133 2009,3188 2009,3245 1995,3300 1980,3354 1951,3404 1911,3444 1871,3484 1822,3512 1767,3527 1713,3542 1655,3542 1601,3527 1547,3512 1497,3484 1457,3444 1417,3404 1389,3354 1374,3300 1359,3246 1359,3188 1374,3134 1389,3079 1417,3030 1457,2990 L 1457,2990 Z"/>
        </g>
       </g>
       <g class="com.sun.star.drawing.CustomShape">
        <g id="id18">
         <rect class="BoundingBox" stroke="none" fill="none" x="1007" y="2536" width="644" height="644"/>
         <path fill="rgb(190,190,190)" stroke="none" d="M 1101,2631 C 1141,2591 1191,2562 1245,2547 1300,2533 1357,2533 1412,2547 1466,2562 1516,2590 1556,2630 1596,2670 1624,2720 1639,2774 1653,2829 1653,2886 1639,2941 1624,2995 1595,3045 1555,3085 1515,3125 1466,3153 1411,3168 1357,3183 1299,3183 1245,3168 1191,3153 1141,3125 1101,3085 1061,3045 1033,2995 1018,2941 1003,2887 1003,2829 1018,2775 1033,2720 1061,2671 1101,2631 L 1101,2631 Z"/>
        </g>
       </g>
       <g class="com.sun.star.drawing.CustomShape">
        <g id="id19">
         <rect class="BoundingBox" stroke="none" fill="none" x="1090" y="2623" width="458" height="458"/>
         <path fill="rgb(255,255,255)" stroke="none" d="M 1158,2691 C 1186,2662 1221,2642 1260,2632 1299,2621 1339,2621 1378,2632 1416,2642 1452,2662 1480,2690 1508,2719 1528,2754 1539,2792 1549,2831 1549,2872 1539,2910 1528,2949 1508,2984 1480,3013 1451,3041 1416,3061 1377,3072 1339,3082 1298,3082 1259,3072 1221,3061 1186,3041 1157,3013 1129,2985 1109,2949 1099,2911 1088,2872 1088,2832 1099,2793 1109,2754 1129,2719 1158,2691 L 1158,2691 Z"/>
         <path fill="none" stroke="rgb(0,0,0)" d="M 1158,2691 C 1186,2662 1221,2642 1260,2632 1299,2621 1339,2621 1378,2632 1416,2642 1452,2662 1480,2690 1508,2719 1528,2754 1539,2792 1549,2831 1549,2872 1539,2910 1528,2949 1508,2984 1480,3013 1451,3041 1416,3061 1377,3072 1339,3082 1298,3082 1259,3072 1221,3061 1186,3041 1157,3013 1129,2985 1109,2949 1099,2911 1088,2872 1088,2832 1099,2793 1109,2754 1129,2719 1158,2691 Z"/>
        </g>
       </g>
       <g class="com.sun.star.drawing.CustomShape">
        <g id="id20">
         <rect class="BoundingBox" stroke="none" fill="none" x="1465" y="2993" width="458" height="458"/>
         <path fill="rgb(0,255,0)" stroke="none" d="M 1533,3061 C 1561,3032 1596,3012 1635,3002 1674,2991 1714,2991 1753,3002 1791,3012 1827,3032 1855,3060 1883,3089 1903,3124 1914,3162 1924,3201 1924,3242 1914,3280 1903,3319 1883,3354 1855,3383 1826,3411 1791,3431 1752,3442 1714,3452 1673,3452 1634,3442 1596,3431 1561,3411 1532,3383 1504,3355 1484,3319 1474,3281 1463,3242 1463,3202 1474,3163 1484,3124 1504,3089 1533,3061 L 1533,3061 Z"/>
         <path fill="none" stroke="rgb(0,0,0)" d="M 1533,3061 C 1561,3032 1596,3012 1635,3002 1674,2991 1714,2991 1753,3002 1791,3012 1827,3032 1855,3060 1883,3089 1903,3124 1914,3162 1924,3201 1924,3242 1914,3280 1903,3319 1883,3354 1855,3383 1826,3411 1791,3431 1752,3442 1714,3452 1673,3452 1634,3442 1596,3431 1561,3411 1532,3383 1504,3355 1484,3319 1474,3281 1463,3242 1463,3202 1474,3163 1484,3124 1504,3089 1533,3061 Z"/>
        </g>
       </g>
       <g class="com.sun.star.drawing.CustomShape">
        <g id="id21">
         <rect class="BoundingBox" stroke="none" fill="none" x="331" y="3420" width="930" height="930"/>
         <path fill="rgb(250,1,0)" stroke="none" d="M 795,3420 C 877,3420 957,3441 1028,3482 1098,3523 1157,3582 1198,3652 1239,3723 1260,3803 1260,3885 1260,3966 1239,4046 1198,4117 1157,4187 1098,4246 1028,4287 957,4328 877,4349 795,4349 714,4349 634,4328 563,4287 493,4246 434,4187 393,4117 352,4046 331,3966 331,3885 331,3803 352,3723 393,3652 434,3582 493,3523 563,3482 634,3441 714,3420 795,3420 L 795,3420 Z"/>
        </g>
       </g>
       <g class="com.sun.star.drawing.CustomShape">
        <g id="id22">
         <rect class="BoundingBox" stroke="none" fill="none" x="687" y="4351" width="223" height="3038"/>
         <path fill="rgb(255,252,255)" stroke="none" d="M 908,5870 L 908,7387 688,7387 688,4352 908,4352 908,5870 Z"/>
         <path fill="none" stroke="rgb(19,19,19)" d="M 908,5870 L 908,7387 688,7387 688,4352 908,4352 908,5870 Z"/>
        </g>
       </g>
       <g class="com.sun.star.drawing.CustomShape">
        <g id="id23">
         <rect class="BoundingBox" stroke="none" fill="none" x="502" y="3571" width="601" height="601"/>
         <path fill="rgb(255,252,255)" stroke="none" d="M 802,3572 C 854,3572 906,3586 952,3612 997,3638 1035,3676 1061,3722 1087,3767 1101,3819 1101,3871 1101,3923 1087,3975 1061,4021 1035,4066 997,4104 952,4130 906,4156 854,4170 802,4170 750,4170 698,4156 653,4130 607,4104 569,4066 543,4021 517,3975 503,3923 503,3871 503,3819 517,3767 543,3722 569,3676 607,3638 653,3612 698,3586 750,3572 802,3572 L 802,3572 Z"/>
         <path fill="none" stroke="rgb(19,19,19)" d="M 802,3572 C 854,3572 906,3586 952,3612 997,3638 1035,3676 1061,3722 1087,3767 1101,3819 1101,3871 1101,3923 1087,3975 1061,4021 1035,4066 997,4104 952,4130 906,4156 854,4170 802,4170 750,4170 698,4156 653,4130 607,4104 569,4066 543,4021 517,3975 503,3923 503,3871 503,3819 517,3767 543,3722 569,3676 607,3638 653,3612 698,3586 750,3572 802,3572 Z"/>
        </g>
       </g>
       <g class="com.sun.star.drawing.CustomShape">
        <g id="id24">
         <rect class="BoundingBox" stroke="none" fill="none" x="534" y="3511" width="530" height="3906"/>
         <path fill="rgb(250,1,0)" stroke="none" d="M 1063,5464 L 1063,7416 534,7416 534,3511 1063,3511 1063,5464 Z"/>
        </g>
       </g>
       <g class="com.sun.star.drawing.CustomShape">
        <g id="id25">
         <rect class="BoundingBox" stroke="none" fill="none" x="328" y="3420" width="931" height="930"/>
         <path fill="rgb(250,1,0)" stroke="none" d="M 794,3420 C 875,3420 955,3441 1026,3482 1096,3523 1155,3582 1196,3652 1237,3723 1258,3803 1258,3885 1258,3966 1237,4046 1196,4117 1155,4187 1096,4246 1026,4287 955,4328 875,4349 794,4349 712,4349 632,4328 561,4287 491,4246 432,4187 391,4117 350,4046 329,3966 329,3885 329,3803 350,3723 391,3652 432,3582 491,3523 561,3482 632,3441 712,3420 793,3420 L 794,3420 Z"/>
        </g>
       </g>
       <g class="com.sun.star.drawing.CustomShape">
        <g id="id26">
         <rect class="BoundingBox" stroke="none" fill="none" x="686" y="4351" width="221" height="2918"/>
         <path fill="rgb(255,252,255)" stroke="none" d="M 906,5810 L 906,7268 686,7268 686,4351 906,4351 906,5810 Z"/>
        </g>
       </g>
       <g class="com.sun.star.drawing.CustomShape">
        <g id="id27">
         <rect class="BoundingBox" stroke="none" fill="none" x="501" y="3572" width="600" height="599"/>
         <path fill="rgb(255,252,255)" stroke="none" d="M 801,3572 C 853,3572 905,3586 951,3612 996,3638 1034,3676 1060,3722 1086,3767 1100,3819 1100,3871 1100,3923 1086,3975 1060,4021 1034,4066 996,4104 951,4130 905,4156 853,4170 801,4170 749,4170 697,4156 652,4130 606,4104 568,4066 542,4021 516,3975 502,3923 502,3871 502,3819 516,3767 542,3722 568,3676 606,3638 652,3612 697,3586 749,3572 801,3572 L 801,3572 Z"/>
        </g>
       </g>
      </g>
     </g>
    </g>
   </g>
  </g>
 </g>
</svg>