<?xml version="1.0" encoding="UTF-8"?>
<!DOCTYPE svg PUBLIC "-//W3C//DTD SVG 1.1//EN" "http://www.w3.org/Graphics/SVG/1.1/DTD/svg11.dtd">
<svg version="1.2" width="40mm" height="117.5mm" viewBox="0 0 4000 11750" preserveAspectRatio="xMidYMid" fill-rule="evenodd" stroke-width="28.222" stroke-linejoin="round" xmlns="http://www.w3.org/2000/svg" xmlns:ooo="http://xml.openoffice.org/svg/export" xmlns:xlink="http://www.w3.org/1999/xlink" xmlns:presentation="http://sun.com/xmlns/staroffice/presentation" xmlns:smil="http://www.w3.org/2001/SMIL20/" xmlns:anim="urn:oasis:names:tc:opendocument:xmlns:animation:1.0" xmlns:svg="urn:oasis:names:tc:opendocument:xmlns:svg-compatible:1.0" xml:space="preserve">
 <defs class="ClipPathGroup">
  <clipPath id="presentation_clip_path" clipPathUnits="userSpaceOnUse">
   <rect x="0" y="0" width="4000" height="11750"/>
  </clipPath>
  <clipPath id="presentation_clip_path_shrink" clipPathUnits="userSpaceOnUse">
   <rect x="4" y="11" width="3992" height="11727"/>
  </clipPath>
 </defs>
 <defs class="TextShapeIndex">
  <g ooo:slide="id1" ooo:id-list="id3 id4 id5 id6 id7 id8 id9 id10 id11 id12 id13 id14 id15 id16 id17 id18 id19 id20 id21 id22 id23 id24 id25 id26 id27"/>
 </defs>
 <defs class="EmbeddedBulletChars">
  <g id="bullet-char-template-57356" transform="scale(0.00048828125,-0.00048828125)">
   <path d="M 580,1141 L 1163,571 580,0 -4,571 580,1141 Z"/>
  </g>
  <g id="bullet-char-template-57354" transform="scale(0.00048828125,-0.00048828125)">
   <path d="M 8,1128 L 1137,1128 1137,0 8,0 8,1128 Z"/>
  </g>
  <g id="bullet-char-template-10146" transform="scale(0.00048828125,-0.00048828125)">
   <path d="M 174,0 L 602,739 174,1481 1456,739 174,0 Z M 1358,739 L 309,1346 659,739 1358,739 Z"/>
  </g>
  <g id="bullet-char-template-10132" transform="scale(0.00048828125,-0.00048828125)">
   <path d="M 2015,739 L 1276,0 717,0 1260,543 174,543 174,936 1260,936 717,1481 1274,1481 2015,739 Z"/>
  </g>
  <g id="bullet-char-template-10007" transform="scale(0.00048828125,-0.00048828125)">
   <path d="M 0,-2 C -7,14 -16,27 -25,37 L 356,567 C 262,823 215,952 215,954 215,979 228,992 255,992 264,992 276,990 289,987 310,991 331,999 354,1012 L 381,999 492,748 772,1049 836,1024 860,1049 C 881,1039 901,1025 922,1006 886,937 835,863 770,784 769,783 710,716 594,584 L 774,223 C 774,196 753,168 711,139 L 727,119 C 717,90 699,76 672,76 641,76 570,178 457,381 L 164,-76 C 142,-110 111,-127 72,-127 30,-127 9,-110 8,-76 1,-67 -2,-52 -2,-32 -2,-23 -1,-13 0,-2 Z"/>
  </g>
  <g id="bullet-char-template-10004" transform="scale(0.00048828125,-0.00048828125)">
   <path d="M 285,-33 C 182,-33 111,30 74,156 52,228 41,333 41,471 41,549 55,616 82,672 116,743 169,778 240,778 293,778 328,747 346,684 L 369,508 C 377,444 397,411 428,410 L 1163,1116 C 1174,1127 1196,1133 1229,1133 1271,1133 1292,1118 1292,1087 L 1292,965 C 1292,929 1282,901 1262,881 L 442,47 C 390,-6 338,-33 285,-33 Z"/>
  </g>
  <g id="bullet-char-template-9679" transform="scale(0.00048828125,-0.00048828125)">
   <path d="M 813,0 C 632,0 489,54 383,161 276,268 223,411 223,592 223,773 276,916 383,1023 489,1130 632,1184 813,1184 992,1184 1136,1130 1245,1023 1353,916 1407,772 1407,592 1407,412 1353,268 1245,161 1136,54 992,0 813,0 Z"/>
  </g>
  <g id="bullet-char-template-8226" transform="scale(0.00048828125,-0.00048828125)">
   <path d="M 346,457 C 273,457 209,483 155,535 101,586 74,649 74,723 74,796 101,859 155,911 209,963 273,989 346,989 419,989 480,963 531,910 582,859 608,796 608,723 608,648 583,586 532,535 482,483 420,457 346,457 Z"/>
  </g>
  <g id="bullet-char-template-8211" transform="scale(0.00048828125,-0.00048828125)">
   <path d="M -4,459 L 1135,459 1135,606 -4,606 -4,459 Z"/>
  </g>
  <g id="bullet-char-template-61548" transform="scale(0.00048828125,-0.00048828125)">
   <path d="M 173,740 C 173,903 231,1043 346,1159 462,1274 601,1332 765,1332 928,1332 1067,1274 1183,1159 1299,1043 1357,903 1357,740 1357,577 1299,437 1183,322 1067,206 928,148 765,148 601,148 462,206 346,322 231,437 173,577 173,740 Z"/>
  </g>
 </defs>
 <g>
  <g id="id2" class="Master_Slide">
   <g id="bg-id2" class="Background"/>
   <g id="bo-id2" class="BackgroundObjects"/>
  </g>
 </g>
 <g class="SlideGroup">
  <g>
   <g id="container-id1">
    <g id="id1" class="Slide" clip-path="url(#presentation_clip_path)">
     <g class="Page">
      <g class="com.sun.star.drawing.CustomShape">
       <g id="id3">
        <rect class="BoundingBox" stroke="none" fill="none" x="1098" y="2631" width="830" height="829"/>
        <path fill="rgb(190,190,190)" stroke="none" d="M 1739,2819 L 1926,3006 1473,3459 1099,3085 1552,2632 1739,2819 Z"/>
       </g>
      </g>
      <g class="com.sun.star.drawing.CustomShape">
       <g id="id4">
        <rect class="BoundingBox" stroke="none" fill="none" x="1360" y="2895" width="644" height="644"/>
        <path fill="rgb(190,190,190)" stroke="none" d="M 1454,2990 C 1494,2950 1544,2921 1598,2906 1653,2892 1710,2892 1765,2906 1819,2921 1869,2949 1909,2989 1949,3029 1977,3079 1992,3133 2006,3188 2006,3245 1992,3300 1977,3354 1948,3404 1908,3444 1868,3484 1819,3512 1764,3527 1710,3542 1652,3542 1598,3527 1544,3512 1494,3484 1454,3444 1414,3404 1386,3354 1371,3300 1356,3246 1356,3188 1371,3134 1386,3079 1414,3030 1454,2990 L 1454,2990 Z"/>
       </g>
      </g>
      <g class="com.sun.star.drawing.CustomShape">
       <g id="id5">
        <rect class="BoundingBox" stroke="none" fill="none" x="1004" y="2536" width="644" height="644"/>
        <path fill="rgb(190,190,190)" stroke="none" d="M 1098,2631 C 1138,2591 1188,2562 1242,2547 1297,2533 1354,2533 1409,2547 1463,2562 1513,2590 1553,2630 1593,2670 1621,2720 1636,2774 1650,2829 1650,2886 1636,2941 1621,2995 1592,3045 1552,3085 1512,3125 1463,3153 1408,3168 1354,3183 1296,3183 1242,3168 1188,3153 1138,3125 1098,3085 1058,3045 1030,2995 1015,2941 1000,2887 1000,2829 1015,2775 1030,2720 1058,2671 1098,2631 L 1098,2631 Z"/>
       </g>
      </g>
      <g class="com.sun.star.drawing.CustomShape">
       <g id="id6">
        <rect class="BoundingBox" stroke="none" fill="none" x="1087" y="2623" width="458" height="458"/>
        <path fill="rgb(255,255,255)" stroke="none" d="M 1155,2691 C 1183,2662 1218,2642 1257,2632 1296,2621 1336,2621 1375,2632 1413,2642 1449,2662 1477,2690 1505,2719 1525,2754 1536,2792 1546,2831 1546,2872 1536,2910 1525,2949 1505,2984 1477,3013 1448,3041 1413,3061 1374,3072 1336,3082 1295,3082 1256,3072 1218,3061 1183,3041 1154,3013 1126,2985 1106,2949 1096,2911 1085,2872 1085,2832 1096,2793 1106,2754 1126,2719 1155,2691 L 1155,2691 Z"/>
        <path fill="none" stroke="rgb(0,0,0)" d="M 1155,2691 C 1183,2662 1218,2642 1257,2632 1296,2621 1336,2621 1375,2632 1413,2642 1449,2662 1477,2690 1505,2719 1525,2754 1536,2792 1546,2831 1546,2872 1536,2910 1525,2949 1505,2984 1477,3013 1448,3041 1413,3061 1374,3072 1336,3082 1295,3082 1256,3072 1218,3061 1183,3041 1154,3013 1126,2985 1106,2949 1096,2911 1085,2872 1085,2832 1096,2793 1106,2754 1126,2719 1155,2691 L 1155,2691 Z"/>
       </g>
      </g>
      <g class="com.sun.star.drawing.CustomShape">
       <g id="id7">
        <rect class="BoundingBox" stroke="none" fill="none" x="1462" y="2993" width="458" height="458"/>
        <path fill="rgb(255,255,255)" stroke="none" d="M 1530,3061 C 1558,3032 1593,3012 1632,3002 1671,2991 1711,2991 1750,3002 1788,3012 1824,3032 1852,3060 1880,3089 1900,3124 1911,3162 1921,3201 1921,3242 1911,3280 1900,3319 1880,3354 1852,3383 1823,3411 1788,3431 1749,3442 1711,3452 1670,3452 1631,3442 1593,3431 1558,3411 1529,3383 1501,3355 1481,3319 1471,3281 1460,3242 1460,3202 1471,3163 1481,3124 1501,3089 1530,3061 L 1530,3061 Z"/>
        <path fill="none" stroke="rgb(0,0,0)" d="M 1530,3061 C 1558,3032 1593,3012 1632,3002 1671,2991 1711,2991 1750,3002 1788,3012 1824,3032 1852,3060 1880,3089 1900,3124 1911,3162 1921,3201 1921,3242 1911,3280 1900,3319 1880,3354 1852,3383 1823,3411 1788,3431 1749,3442 1711,3452 1670,3452 1631,3442 1593,3431 1558,3411 1529,3383 1501,3355 1481,3319 1471,3281 1460,3242 1460,3202 1471,3163 1481,3124 1501,3089 1530,3061 Z"/>
       </g>
      </g>
      <g class="com.sun.star.drawing.CustomShape">
       <g id="id8">
        <rect class="BoundingBox" stroke="none" fill="none" x="1118" y="6398" width="830" height="831"/>
        <path fill="rgb(190,190,190)" stroke="none" d="M 1760,7041 L 1573,7228 1118,6773 1492,6399 1947,6854 1760,7041 Z"/>
       </g>
      </g>
      <g class="com.sun.star.drawing.CustomShape">
       <g id="id9">
        <rect class="BoundingBox" stroke="none" fill="none" x="1040" y="6660" width="644" height="644"/>
        <path fill="rgb(190,190,190)" stroke="none" d="M 1588,6754 C 1628,6794 1657,6844 1672,6898 1686,6953 1686,7010 1672,7065 1657,7119 1629,7169 1589,7209 1549,7249 1499,7277 1445,7292 1390,7306 1333,7306 1278,7292 1224,7277 1174,7248 1134,7208 1094,7168 1066,7119 1051,7064 1036,7010 1036,6952 1051,6898 1066,6844 1094,6794 1134,6754 1174,6714 1224,6686 1278,6671 1332,6656 1390,6656 1444,6671 1499,6686 1548,6714 1588,6754 L 1588,6754 Z"/>
       </g>
      </g>
      <g class="com.sun.star.drawing.CustomShape">
       <g id="id10">
        <rect class="BoundingBox" stroke="none" fill="none" x="1394" y="6313" width="644" height="644"/>
        <path fill="rgb(190,190,190)" stroke="none" d="M 1942,6408 C 1982,6448 2010,6497 2025,6552 2040,6606 2040,6664 2025,6718 2010,6773 1982,6822 1942,6862 1902,6902 1853,6930 1798,6945 1744,6960 1686,6960 1632,6945 1577,6930 1528,6902 1488,6862 1448,6822 1420,6773 1405,6718 1390,6664 1390,6606 1405,6552 1420,6497 1448,6448 1488,6408 1528,6368 1577,6340 1632,6325 1686,6310 1744,6310 1798,6325 1853,6340 1902,6368 1942,6408 L 1942,6408 Z"/>
       </g>
      </g>
      <g class="com.sun.star.drawing.CustomShape">
       <g id="id11">
        <rect class="BoundingBox" stroke="none" fill="none" x="1127" y="6762" width="458" height="458"/>
        <path fill="rgb(255,255,255)" stroke="none" d="M 1516,6830 C 1545,6858 1565,6893 1575,6932 1586,6971 1586,7011 1575,7050 1565,7088 1545,7124 1517,7152 1488,7180 1453,7200 1415,7211 1376,7221 1335,7221 1297,7211 1258,7200 1223,7180 1194,7152 1166,7123 1146,7088 1135,7049 1125,7011 1125,6970 1135,6931 1146,6893 1166,6858 1194,6829 1222,6801 1258,6781 1296,6771 1335,6760 1375,6760 1414,6771 1453,6781 1488,6801 1516,6830 L 1516,6830 Z"/>
        <path fill="none" stroke="rgb(0,0,0)" d="M 1516,6830 C 1545,6858 1565,6893 1575,6932 1586,6971 1586,7011 1575,7050 1565,7088 1545,7124 1517,7152 1488,7180 1453,7200 1415,7211 1376,7221 1335,7221 1297,7211 1258,7200 1223,7180 1194,7152 1166,7123 1146,7088 1135,7049 1125,7011 1125,6970 1135,6931 1146,6893 1166,6858 1194,6829 1222,6801 1258,6781 1296,6771 1335,6760 1375,6760 1414,6771 1453,6781 1488,6801 1516,6830 Z"/>
       </g>
      </g>
      <g class="com.sun.star.drawing.CustomShape">
       <g id="id12">
        <rect class="BoundingBox" stroke="none" fill="none" x="1119" y="6395" width="829" height="830"/>
        <path fill="rgb(190,190,190)" stroke="none" d="M 1759,7036 L 1572,7223 1119,6770 1493,6396 1946,6849 1759,7036 Z"/>
       </g>
      </g>
      <g class="com.sun.star.drawing.CustomShape">
       <g id="id13">
        <rect class="BoundingBox" stroke="none" fill="none" x="1041" y="6658" width="644" height="644"/>
        <path fill="rgb(190,190,190)" stroke="none" d="M 1589,6752 C 1629,6792 1658,6842 1673,6896 1687,6951 1687,7008 1673,7063 1658,7117 1630,7167 1590,7207 1550,7247 1500,7275 1446,7290 1391,7304 1334,7304 1279,7290 1225,7275 1175,7246 1135,7206 1095,7166 1067,7117 1052,7062 1037,7008 1037,6950 1052,6896 1067,6842 1095,6792 1135,6752 1175,6712 1225,6684 1279,6669 1333,6654 1391,6654 1445,6669 1500,6684 1549,6712 1589,6752 L 1589,6752 Z"/>
       </g>
      </g>
      <g class="com.sun.star.drawing.CustomShape">
       <g id="id14">
        <rect class="BoundingBox" stroke="none" fill="none" x="1399" y="6301" width="644" height="644"/>
        <path fill="rgb(190,190,190)" stroke="none" d="M 1947,6395 C 1987,6435 2016,6485 2031,6539 2045,6594 2045,6651 2031,6706 2016,6760 1988,6810 1948,6850 1908,6890 1858,6918 1804,6933 1749,6947 1692,6947 1637,6933 1583,6918 1533,6889 1493,6849 1453,6809 1425,6760 1410,6705 1395,6651 1395,6593 1410,6539 1425,6485 1453,6435 1493,6395 1533,6355 1583,6327 1637,6312 1691,6297 1749,6297 1803,6312 1858,6327 1907,6355 1947,6395 L 1947,6395 Z"/>
       </g>
      </g>
      <g class="com.sun.star.drawing.CustomShape">
       <g id="id15">
        <rect class="BoundingBox" stroke="none" fill="none" x="1128" y="6760" width="458" height="458"/>
        <path fill="rgb(255,255,255)" stroke="none" d="M 1517,6828 C 1546,6856 1566,6891 1576,6930 1587,6969 1587,7009 1576,7048 1566,7086 1546,7122 1518,7150 1489,7178 1454,7198 1416,7209 1377,7219 1336,7219 1298,7209 1259,7198 1224,7178 1195,7150 1167,7121 1147,7086 1136,7047 1126,7009 1126,6968 1136,6929 1147,6891 1167,6856 1195,6827 1223,6799 1259,6779 1297,6769 1336,6758 1376,6758 1415,6769 1454,6779 1489,6799 1517,6828 L 1517,6828 Z"/>
        <path fill="none" stroke="rgb(0,0,0)" d="M 1517,6828 C 1546,6856 1566,6891 1576,6930 1587,6969 1587,7009 1576,7048 1566,7086 1546,7122 1518,7150 1489,7178 1454,7198 1416,7209 1377,7219 1336,7219 1298,7209 1259,7198 1224,7178 1195,7150 1167,7121 1147,7086 1136,7047 1126,7009 1126,6968 1136,6929 1147,6891 1167,6856 1195,6827 1223,6799 1259,6779 1297,6769 1336,6758 1376,6758 1415,6769 1454,6779 1489,6799 1517,6828 Z"/>
       </g>
      </g>
      <g class="com.sun.star.drawing.CustomShape">
       <g id="id16">
        <rect class="BoundingBox" stroke="none" fill="none" x="582" y="1750" width="425" height="10001"/>
        <path fill="rgb(192,192,192)" stroke="none" d="M 794,11750 L 582,11750 582,1750 1006,1750 1006,11750 794,11750 Z"/>
       </g>
      </g>
      <g class="com.sun.star.drawing.CustomShape">
       <g id="id17">
        <rect class="BoundingBox" stroke="none" fill="none" x="42" y="176" width="3137" height="3138"/>
        <path fill="rgb(250,1,0)" stroke="none" d="M 1797,1931 L 416,3312 42,2938 2803,177 3177,551 1797,1931 Z"/>
       </g>
      </g>
      <g class="com.sun.star.drawing.CustomShape">
       <g id="id18">
        <rect class="BoundingBox" stroke="none" fill="none" x="2259" y="159" width="931" height="931"/>
        <path fill="rgb(250,1,0)" stroke="none" d="M 3052,296 C 3110,353 3151,425 3172,504 3193,583 3193,665 3172,744 3151,823 3110,895 3052,952 2995,1010 2923,1052 2844,1073 2765,1094 2682,1094 2603,1073 2525,1052 2453,1010 2395,952 2338,895 2296,823 2275,744 2254,665 2254,583 2275,504 2296,425 2338,353 2395,296 2453,238 2525,196 2603,175 2682,154 2765,154 2844,175 2923,196 2995,238 3052,296 L 3052,296 Z"/>
       </g>
      </g>
      <g class="com.sun.star.drawing.CustomShape">
       <g id="id19">
        <rect class="BoundingBox" stroke="none" fill="none" x="254" y="878" width="2220" height="2220"/>
        <path fill="rgb(255,252,255)" stroke="none" d="M 1441,2065 L 410,3097 254,2941 2317,878 2472,1034 1441,2065 Z"/>
       </g>
      </g>
      <g class="com.sun.star.drawing.CustomShape">
       <g id="id20">
        <rect class="BoundingBox" stroke="none" fill="none" x="2438" y="320" width="600" height="601"/>
        <path fill="rgb(255,252,255)" stroke="none" d="M 2948,409 C 2986,446 3012,492 3026,543 3039,593 3039,647 3026,697 3012,748 2986,794 2948,831 2911,869 2865,895 2814,909 2764,922 2710,922 2660,909 2609,895 2563,869 2526,831 2488,794 2462,748 2448,697 2435,647 2435,593 2448,543 2462,492 2488,446 2526,409 2563,371 2609,345 2660,331 2710,318 2764,318 2814,331 2865,345 2911,371 2948,409 L 2948,409 Z"/>
       </g>
      </g>
      <g class="com.sun.star.drawing.CustomShape">
       <g id="id21">
        <rect class="BoundingBox" stroke="none" fill="none" x="327" y="3419" width="931" height="931"/>
        <path fill="rgb(250,1,0)" stroke="none" d="M 793,3420 C 874,3420 954,3441 1025,3482 1095,3523 1154,3582 1195,3652 1236,3723 1257,3803 1257,3885 1257,3966 1236,4046 1195,4117 1154,4187 1095,4246 1025,4287 954,4328 874,4349 793,4349 711,4349 631,4328 560,4287 490,4246 431,4187 390,4117 349,4046 328,3966 328,3885 328,3803 349,3723 390,3652 431,3582 490,3523 560,3482 631,3441 711,3420 792,3420 L 793,3420 Z"/>
       </g>
      </g>
      <g class="com.sun.star.drawing.CustomShape">
       <g id="id22">
        <rect class="BoundingBox" stroke="none" fill="none" x="684" y="4351" width="223" height="3038"/>
        <path fill="rgb(255,252,255)" stroke="none" d="M 905,5870 L 905,7387 685,7387 685,4352 905,4352 905,5870 Z"/>
        <path fill="none" stroke="rgb(19,19,19)" d="M 905,5870 L 905,7387 685,7387 685,4352 905,4352 905,5870 Z"/>
       </g>
      </g>
      <g class="com.sun.star.drawing.CustomShape">
       <g id="id23">
        <rect class="BoundingBox" stroke="none" fill="none" x="499" y="3571" width="601" height="601"/>
        <path fill="rgb(255,252,255)" stroke="none" d="M 799,3572 C 851,3572 903,3586 949,3612 994,3638 1032,3676 1058,3722 1084,3767 1098,3819 1098,3871 1098,3923 1084,3975 1058,4021 1032,4066 994,4104 949,4130 903,4156 851,4170 799,4170 747,4170 695,4156 650,4130 604,4104 566,4066 540,4021 514,3975 500,3923 500,3871 500,3819 514,3767 540,3722 566,3676 604,3638 649,3612 695,3586 747,3572 799,3572 L 799,3572 Z"/>
        <path fill="none" stroke="rgb(19,19,19)" d="M 799,3572 C 851,3572 903,3586 949,3612 994,3638 1032,3676 1058,3722 1084,3767 1098,3819 1098,3871 1098,3923 1084,3975 1058,4021 1032,4066 994,4104 949,4130 903,4156 851,4170 799,4170 747,4170 695,4156 650,4130 604,4104 566,4066 540,4021 514,3975 500,3923 500,3871 500,3819 514,3767 540,3722 566,3676 604,3638 649,3612 695,3586 747,3572 799,3572 L 799,3572 Z"/>
       </g>
      </g>
      <g class="com.sun.star.drawing.CustomShape">
       <g id="id24">
        <rect class="BoundingBox" stroke="none" fill="none" x="531" y="3511" width="530" height="3906"/>
        <path fill="rgb(250,1,0)" stroke="none" d="M 1060,5464 L 1060,7416 531,7416 531,3511 1060,3511 1060,5464 Z"/>
       </g>
      </g>
      <g class="com.sun.star.drawing.CustomShape">
       <g id="id25">
        <rect class="BoundingBox" stroke="none" fill="none" x="325" y="3419" width="931" height="931"/>
        <path fill="rgb(250,1,0)" stroke="none" d="M 791,3420 C 872,3420 952,3441 1023,3482 1093,3523 1152,3582 1193,3652 1234,3723 1255,3803 1255,3885 1255,3966 1234,4046 1193,4117 1152,4187 1093,4246 1023,4287 952,4328 872,4349 791,4349 709,4349 629,4328 558,4287 488,4246 429,4187 388,4117 347,4046 326,3966 326,3885 326,3803 347,3723 388,3652 429,3582 488,3523 558,3482 629,3441 709,3420 790,3420 L 791,3420 Z"/>
       </g>
      </g>
      <g class="com.sun.star.drawing.CustomShape">
       <g id="id26">
        <rect class="BoundingBox" stroke="none" fill="none" x="683" y="4351" width="221" height="2918"/>
        <path fill="rgb(255,252,255)" stroke="none" d="M 903,5810 L 903,7268 683,7268 683,4351 903,4351 903,5810 Z"/>
       </g>
      </g>
      <g class="com.sun.star.drawing.CustomShape">
       <g id="id27">
        <rect class="BoundingBox" stroke="none" fill="none" x="499" y="3572" width="599" height="599"/>
        <path fill="rgb(255,252,255)" stroke="none" d="M 798,3572 C 850,3572 902,3586 948,3612 993,3638 1031,3676 1057,3722 1083,3767 1097,3819 1097,3871 1097,3923 1083,3975 1057,4021 1031,4066 993,4104 948,4130 902,4156 850,4170 798,4170 746,4170 694,4156 649,4130 603,4104 565,4066 539,4021 513,3975 499,3923 499,3871 499,3819 513,3767 539,3722 565,3676 603,3638 648,3612 694,3586 746,3572 798,3572 L 798,3572 Z"/>
       </g>
      </g>
     </g>
    </g>
   </g>
  </g>
 </g>
</svg>