<?xml version="1.0" encoding="UTF-8"?>
<!DOCTYPE svg PUBLIC "-//W3C//DTD SVG 1.1//EN" "http://www.w3.org/Graphics/SVG/1.1/DTD/svg11.dtd">
<svg version="1.2" width="40mm" height="117.5mm" viewBox="0 0 4000 11750" preserveAspectRatio="xMidYMid" fill-rule="evenodd" stroke-width="28.222" stroke-linejoin="round" xmlns="http://www.w3.org/2000/svg" xmlns:ooo="http://xml.openoffice.org/svg/export" xmlns:xlink="http://www.w3.org/1999/xlink" xmlns:presentation="http://sun.com/xmlns/staroffice/presentation" xmlns:smil="http://www.w3.org/2001/SMIL20/" xmlns:anim="urn:oasis:names:tc:opendocument:xmlns:animation:1.0" xmlns:svg="urn:oasis:names:tc:opendocument:xmlns:svg-compatible:1.0" xml:space="preserve">
 <defs class="ClipPathGroup">
  <clipPath id="presentation_clip_path" clipPathUnits="userSpaceOnUse">
   <rect x="0" y="0" width="4000" height="11750"/>
  </clipPath>
  <clipPath id="presentation_clip_path_shrink" clipPathUnits="userSpaceOnUse">
   <rect x="4" y="11" width="3992" height="11727"/>
  </clipPath>
 </defs>
 <defs class="TextShapeIndex">
  <g ooo:slide="id1" ooo:id-list="id3 id4 id5 id6 id7 id8 id9 id10 id11 id12 id13 id14 id15 id16 id17 id18 id19 id20 id21 id22 id23 id24 id25 id26 id27"/>
 </defs>
 <defs class="EmbeddedBulletChars">
  <g id="bullet-char-template-57356" transform="scale(0.00048828125,-0.00048828125)">
   <path d="M 580,1141 L 1163,571 580,0 -4,571 580,1141 Z"/>
  </g>
  <g id="bullet-char-template-57354" transform="scale(0.00048828125,-0.00048828125)">
   <path d="M 8,1128 L 1137,1128 1137,0 8,0 8,1128 Z"/>
  </g>
  <g id="bullet-char-template-10146" transform="scale(0.00048828125,-0.00048828125)">
   <path d="M 174,0 L 602,739 174,1481 1456,739 174,0 Z M 1358,739 L 309,1346 659,739 1358,739 Z"/>
  </g>
  <g id="bullet-char-template-10132" transform="scale(0.00048828125,-0.00048828125)">
   <path d="M 2015,739 L 1276,0 717,0 1260,543 174,543 174,936 1260,936 717,1481 1274,1481 2015,739 Z"/>
  </g>
  <g id="bullet-char-template-10007" transform="scale(0.00048828125,-0.00048828125)">
   <path d="M 0,-2 C -7,14 -16,27 -25,37 L 356,567 C 262,823 215,952 215,954 215,979 228,992 255,992 264,992 276,990 289,987 310,991 331,999 354,1012 L 381,999 492,748 772,1049 836,1024 860,1049 C 881,1039 901,1025 922,1006 886,937 835,863 770,784 769,783 710,716 594,584 L 774,223 C 774,196 753,168 711,139 L 727,119 C 717,90 699,76 672,76 641,76 570,178 457,381 L 164,-76 C 142,-110 111,-127 72,-127 30,-127 9,-110 8,-76 1,-67 -2,-52 -2,-32 -2,-23 -1,-13 0,-2 Z"/>
  </g>
  <g id="bullet-char-template-10004" transform="scale(0.00048828125,-0.00048828125)">
   <path d="M 285,-33 C 182,-33 111,30 74,156 52,228 41,333 41,471 41,549 55,616 82,672 116,743 169,778 240,778 293,778 328,747 346,684 L 369,508 C 377,444 397,411 428,410 L 1163,1116 C 1174,1127 1196,1133 1229,1133 1271,1133 1292,1118 1292,1087 L 1292,965 C 1292,929 1282,901 1262,881 L 442,47 C 390,-6 338,-33 285,-33 Z"/>
  </g>
  <g id="bullet-char-template-9679" transform="scale(0.00048828125,-0.00048828125)">
   <path d="M 813,0 C 632,0 489,54 383,161 276,268 223,411 223,592 223,773 276,916 383,1023 489,1130 632,1184 813,1184 992,1184 1136,1130 1245,1023 1353,916 1407,772 1407,592 1407,412 1353,268 1245,161 1136,54 992,0 813,0 Z"/>
  </g>
  <g id="bullet-char-template-8226" transform="scale(0.00048828125,-0.00048828125)">
   <path d="M 346,457 C 273,457 209,483 155,535 101,586 74,649 74,723 74,796 101,859 155,911 209,963 273,989 346,989 419,989 480,963 531,910 582,859 608,796 608,723 608,648 583,586 532,535 482,483 420,457 346,457 Z"/>
  </g>
  <g id="bullet-char-template-8211" transform="scale(0.00048828125,-0.00048828125)">
   <path d="M -4,459 L 1135,459 1135,606 -4,606 -4,459 Z"/>
  </g>
  <g id="bullet-char-template-61548" transform="scale(0.00048828125,-0.00048828125)">
   <path d="M 173,740 C 173,903 231,1043 346,1159 462,1274 601,1332 765,1332 928,1332 1067,1274 1183,1159 1299,1043 1357,903 1357,740 1357,577 1299,437 1183,322 1067,206 928,148 765,148 601,148 462,206 346,322 231,437 173,577 173,740 Z"/>
  </g>
 </defs>
 <g>
  <g id="id2" class="Master_Slide">
   <g id="bg-id2" class="Background"/>
   <g id="bo-id2" class="BackgroundObjects"/>
  </g>
 </g>
 <g class="SlideGroup">
  <g>
   <g id="container-id1">
    <g id="id1" class="Slide" clip-path="url(#presentation_clip_path)">
     <g class="Page">
      <g class="com.sun.star.drawing.CustomShape">
       <g id="id3">
        <rect class="BoundingBox" stroke="none" fill="none" x="1082" y="2941" width="829" height="830"/>
        <path fill="rgb(190,190,190)" stroke="none" d="M 1722,3582 L 1535,3769 1082,3316 1456,2942 1909,3395 1722,3582 Z"/>
       </g>
      </g>
      <g class="com.sun.star.drawing.CustomShape">
       <g id="id4">
        <rect class="BoundingBox" stroke="none" fill="none" x="1004" y="3204" width="644" height="644"/>
        <path fill="rgb(190,190,190)" stroke="none" d="M 1552,3298 C 1592,3338 1621,3388 1636,3442 1650,3497 1650,3554 1636,3609 1621,3663 1593,3713 1553,3753 1513,3793 1463,3821 1409,3836 1354,3850 1297,3850 1242,3836 1188,3821 1138,3792 1098,3752 1058,3712 1030,3663 1015,3608 1000,3554 1000,3496 1015,3442 1030,3388 1058,3338 1098,3298 1138,3258 1188,3230 1242,3215 1296,3200 1354,3200 1408,3215 1463,3230 1512,3258 1552,3298 L 1552,3298 Z"/>
       </g>
      </g>
      <g class="com.sun.star.drawing.CustomShape">
       <g id="id5">
        <rect class="BoundingBox" stroke="none" fill="none" x="1362" y="2847" width="644" height="644"/>
        <path fill="rgb(190,190,190)" stroke="none" d="M 1910,2941 C 1950,2981 1979,3031 1994,3085 2008,3140 2008,3197 1994,3252 1979,3306 1951,3356 1911,3396 1871,3436 1821,3464 1767,3479 1712,3493 1655,3493 1600,3479 1546,3464 1496,3435 1456,3395 1416,3355 1388,3306 1373,3251 1358,3197 1358,3139 1373,3085 1388,3031 1416,2981 1456,2941 1496,2901 1546,2873 1600,2858 1654,2843 1712,2843 1766,2858 1821,2873 1870,2901 1910,2941 L 1910,2941 Z"/>
       </g>
      </g>
      <g class="com.sun.star.drawing.CustomShape">
       <g id="id6">
        <rect class="BoundingBox" stroke="none" fill="none" x="1461" y="2930" width="458" height="458"/>
        <path fill="rgb(255,255,255)" stroke="none" d="M 1850,2998 C 1879,3026 1899,3061 1909,3100 1920,3139 1920,3179 1909,3218 1899,3256 1879,3292 1851,3320 1822,3348 1787,3368 1749,3379 1710,3389 1669,3389 1631,3379 1592,3368 1557,3348 1528,3320 1500,3291 1480,3256 1469,3217 1459,3179 1459,3138 1469,3099 1480,3061 1500,3026 1528,2997 1556,2969 1592,2949 1630,2939 1669,2928 1709,2928 1748,2939 1787,2949 1822,2969 1850,2998 L 1850,2998 Z"/>
        <path fill="none" stroke="rgb(0,0,0)" d="M 1850,2998 C 1879,3026 1899,3061 1909,3100 1920,3139 1920,3179 1909,3218 1899,3256 1879,3292 1851,3320 1822,3348 1787,3368 1749,3379 1710,3389 1669,3389 1631,3379 1592,3368 1557,3348 1528,3320 1500,3291 1480,3256 1469,3217 1459,3179 1459,3138 1469,3099 1480,3061 1500,3026 1528,2997 1556,2969 1592,2949 1630,2939 1669,2928 1709,2928 1748,2939 1787,2949 1822,2969 1850,2998 L 1850,2998 Z"/>
       </g>
      </g>
      <g class="com.sun.star.drawing.CustomShape">
       <g id="id7">
        <rect class="BoundingBox" stroke="none" fill="none" x="1091" y="3306" width="458" height="458"/>
        <path fill="rgb(255,255,255)" stroke="none" d="M 1480,3374 C 1509,3402 1529,3437 1539,3476 1550,3515 1550,3555 1539,3594 1529,3632 1509,3668 1481,3696 1452,3724 1417,3744 1379,3755 1340,3765 1299,3765 1261,3755 1222,3744 1187,3724 1158,3696 1130,3667 1110,3632 1099,3593 1089,3555 1089,3514 1099,3475 1110,3437 1130,3402 1158,3373 1186,3345 1222,3325 1260,3315 1299,3304 1339,3304 1378,3315 1417,3325 1452,3345 1480,3374 L 1480,3374 Z"/>
        <path fill="none" stroke="rgb(0,0,0)" d="M 1480,3374 C 1509,3402 1529,3437 1539,3476 1550,3515 1550,3555 1539,3594 1529,3632 1509,3668 1481,3696 1452,3724 1417,3744 1379,3755 1340,3765 1299,3765 1261,3755 1222,3744 1187,3724 1158,3696 1130,3667 1110,3632 1099,3593 1089,3555 1089,3514 1099,3475 1110,3437 1130,3402 1158,3373 1186,3345 1222,3325 1260,3315 1299,3304 1339,3304 1378,3315 1417,3325 1452,3345 1480,3374 Z"/>
       </g>
      </g>
      <g class="com.sun.star.drawing.CustomShape">
       <g id="id8">
        <rect class="BoundingBox" stroke="none" fill="none" x="1117" y="6398" width="830" height="831"/>
        <path fill="rgb(190,190,190)" stroke="none" d="M 1759,7041 L 1572,7228 1117,6773 1491,6399 1946,6854 1759,7041 Z"/>
       </g>
      </g>
      <g class="com.sun.star.drawing.CustomShape">
       <g id="id9">
        <rect class="BoundingBox" stroke="none" fill="none" x="1039" y="6660" width="644" height="644"/>
        <path fill="rgb(190,190,190)" stroke="none" d="M 1587,6754 C 1627,6794 1656,6844 1671,6898 1685,6953 1685,7010 1671,7065 1656,7119 1628,7169 1588,7209 1548,7249 1498,7277 1444,7292 1389,7306 1332,7306 1277,7292 1223,7277 1173,7248 1133,7208 1093,7168 1065,7119 1050,7064 1035,7010 1035,6952 1050,6898 1065,6844 1093,6794 1133,6754 1173,6714 1223,6686 1277,6671 1331,6656 1389,6656 1443,6671 1498,6686 1547,6714 1587,6754 L 1587,6754 Z"/>
       </g>
      </g>
      <g class="com.sun.star.drawing.CustomShape">
       <g id="id10">
        <rect class="BoundingBox" stroke="none" fill="none" x="1393" y="6314" width="644" height="643"/>
        <path fill="rgb(190,190,190)" stroke="none" d="M 1941,6408 C 1981,6448 2009,6497 2024,6552 2039,6606 2039,6664 2024,6718 2009,6773 1981,6822 1941,6862 1901,6902 1852,6930 1797,6945 1743,6960 1685,6960 1631,6945 1576,6930 1527,6902 1487,6862 1447,6822 1419,6773 1404,6718 1389,6664 1389,6606 1404,6552 1419,6497 1447,6448 1487,6408 1527,6368 1576,6340 1631,6325 1685,6310 1743,6310 1797,6325 1852,6340 1901,6368 1941,6408 L 1941,6408 Z"/>
       </g>
      </g>
      <g class="com.sun.star.drawing.CustomShape">
       <g id="id11">
        <rect class="BoundingBox" stroke="none" fill="none" x="1126" y="6762" width="458" height="458"/>
        <path fill="rgb(255,255,255)" stroke="none" d="M 1515,6830 C 1544,6858 1564,6893 1574,6932 1585,6971 1585,7011 1574,7050 1564,7088 1544,7124 1516,7152 1487,7180 1452,7200 1414,7211 1375,7221 1334,7221 1296,7211 1257,7200 1222,7180 1193,7152 1165,7123 1145,7088 1134,7049 1124,7011 1124,6970 1134,6931 1145,6893 1165,6858 1193,6829 1221,6801 1257,6781 1295,6771 1334,6760 1374,6760 1413,6771 1452,6781 1487,6801 1515,6830 L 1515,6830 Z"/>
        <path fill="none" stroke="rgb(0,0,0)" d="M 1515,6830 C 1544,6858 1564,6893 1574,6932 1585,6971 1585,7011 1574,7050 1564,7088 1544,7124 1516,7152 1487,7180 1452,7200 1414,7211 1375,7221 1334,7221 1296,7211 1257,7200 1222,7180 1193,7152 1165,7123 1145,7088 1134,7049 1124,7011 1124,6970 1134,6931 1145,6893 1165,6858 1193,6829 1221,6801 1257,6781 1295,6771 1334,6760 1374,6760 1413,6771 1452,6781 1487,6801 1515,6830 Z"/>
       </g>
      </g>
      <g class="com.sun.star.drawing.CustomShape">
       <g id="id12">
        <rect class="BoundingBox" stroke="none" fill="none" x="1118" y="6395" width="829" height="830"/>
        <path fill="rgb(190,190,190)" stroke="none" d="M 1758,7036 L 1571,7223 1118,6770 1492,6396 1945,6849 1758,7036 Z"/>
       </g>
      </g>
      <g class="com.sun.star.drawing.CustomShape">
       <g id="id13">
        <rect class="BoundingBox" stroke="none" fill="none" x="1040" y="6658" width="644" height="644"/>
        <path fill="rgb(190,190,190)" stroke="none" d="M 1588,6752 C 1628,6792 1657,6842 1672,6896 1686,6951 1686,7008 1672,7063 1657,7117 1629,7167 1589,7207 1549,7247 1499,7275 1445,7290 1390,7304 1333,7304 1278,7290 1224,7275 1174,7246 1134,7206 1094,7166 1066,7117 1051,7062 1036,7008 1036,6950 1051,6896 1066,6842 1094,6792 1134,6752 1174,6712 1224,6684 1278,6669 1332,6654 1390,6654 1444,6669 1499,6684 1548,6712 1588,6752 L 1588,6752 Z"/>
       </g>
      </g>
      <g class="com.sun.star.drawing.CustomShape">
       <g id="id14">
        <rect class="BoundingBox" stroke="none" fill="none" x="1398" y="6301" width="644" height="644"/>
        <path fill="rgb(190,190,190)" stroke="none" d="M 1946,6395 C 1986,6435 2015,6485 2030,6539 2044,6594 2044,6651 2030,6706 2015,6760 1987,6810 1947,6850 1907,6890 1857,6918 1803,6933 1748,6947 1691,6947 1636,6933 1582,6918 1532,6889 1492,6849 1452,6809 1424,6760 1409,6705 1394,6651 1394,6593 1409,6539 1424,6485 1452,6435 1492,6395 1532,6355 1582,6327 1636,6312 1690,6297 1748,6297 1802,6312 1857,6327 1906,6355 1946,6395 L 1946,6395 Z"/>
       </g>
      </g>
      <g class="com.sun.star.drawing.CustomShape">
       <g id="id15">
        <rect class="BoundingBox" stroke="none" fill="none" x="1127" y="6760" width="458" height="458"/>
        <path fill="rgb(255,255,255)" stroke="none" d="M 1516,6828 C 1545,6856 1565,6891 1575,6930 1586,6969 1586,7009 1575,7048 1565,7086 1545,7122 1517,7150 1488,7178 1453,7198 1415,7209 1376,7219 1335,7219 1297,7209 1258,7198 1223,7178 1194,7150 1166,7121 1146,7086 1135,7047 1125,7009 1125,6968 1135,6929 1146,6891 1166,6856 1194,6827 1222,6799 1258,6779 1296,6769 1335,6758 1375,6758 1414,6769 1453,6779 1488,6799 1516,6828 L 1516,6828 Z"/>
        <path fill="none" stroke="rgb(0,0,0)" d="M 1516,6828 C 1545,6856 1565,6891 1575,6930 1586,6969 1586,7009 1575,7048 1565,7086 1545,7122 1517,7150 1488,7178 1453,7198 1415,7209 1376,7219 1335,7219 1297,7209 1258,7198 1223,7178 1194,7150 1166,7121 1146,7086 1135,7047 1125,7009 1125,6968 1135,6929 1146,6891 1166,6856 1194,6827 1222,6799 1258,6779 1296,6769 1335,6758 1375,6758 1414,6769 1453,6779 1488,6799 1516,6828 Z"/>
       </g>
      </g>
      <g class="com.sun.star.drawing.CustomShape">
       <g id="id16">
        <rect class="BoundingBox" stroke="none" fill="none" x="582" y="1750" width="425" height="10001"/>
        <path fill="rgb(192,192,192)" stroke="none" d="M 794,11750 L 582,11750 582,1750 1006,1750 1006,11750 794,11750 Z"/>
       </g>
      </g>
      <g class="com.sun.star.drawing.CustomShape">
       <g id="id17">
        <rect class="BoundingBox" stroke="none" fill="none" x="4" y="2327" width="3906" height="530"/>
        <path fill="rgb(250,1,0)" stroke="none" d="M 1957,2856 L 4,2856 4,2327 3909,2327 3909,2856 1957,2856 Z"/>
       </g>
      </g>
      <g class="com.sun.star.drawing.CustomShape">
       <g id="id18">
        <rect class="BoundingBox" stroke="none" fill="none" x="3071" y="2122" width="931" height="931"/>
        <path fill="rgb(250,1,0)" stroke="none" d="M 4001,2587 C 4001,2669 3980,2749 3939,2820 3898,2890 3839,2949 3769,2990 3698,3031 3618,3052 3536,3052 3455,3052 3375,3031 3304,2990 3234,2949 3175,2890 3134,2820 3093,2749 3072,2669 3072,2588 3072,2506 3093,2426 3134,2355 3175,2285 3234,2226 3304,2185 3375,2144 3455,2123 3536,2123 3618,2123 3698,2144 3769,2185 3839,2226 3898,2285 3939,2355 3980,2426 4001,2506 4001,2587 L 4001,2587 Z"/>
       </g>
      </g>
      <g class="com.sun.star.drawing.CustomShape">
       <g id="id19">
        <rect class="BoundingBox" stroke="none" fill="none" x="151" y="2480" width="2918" height="221"/>
        <path fill="rgb(255,252,255)" stroke="none" d="M 1610,2700 L 151,2700 151,2480 3068,2480 3068,2700 1610,2700 Z"/>
       </g>
      </g>
      <g class="com.sun.star.drawing.CustomShape">
       <g id="id20">
        <rect class="BoundingBox" stroke="none" fill="none" x="3250" y="2295" width="599" height="599"/>
        <path fill="rgb(255,252,255)" stroke="none" d="M 3848,2594 C 3848,2646 3834,2698 3808,2744 3782,2789 3744,2827 3699,2853 3653,2879 3601,2893 3549,2893 3497,2893 3445,2879 3400,2853 3354,2827 3316,2789 3290,2744 3264,2698 3250,2646 3250,2594 3250,2542 3264,2490 3290,2445 3316,2399 3354,2361 3400,2335 3445,2309 3497,2295 3549,2295 3601,2295 3653,2309 3699,2335 3744,2361 3782,2399 3808,2444 3834,2490 3848,2542 3848,2594 L 3848,2594 Z"/>
       </g>
      </g>
      <g class="com.sun.star.drawing.CustomShape">
       <g id="id21">
        <rect class="BoundingBox" stroke="none" fill="none" x="326" y="3419" width="931" height="931"/>
        <path fill="rgb(250,1,0)" stroke="none" d="M 792,3420 C 873,3420 953,3441 1024,3482 1094,3523 1153,3582 1194,3652 1235,3723 1256,3803 1256,3885 1256,3966 1235,4046 1194,4117 1153,4187 1094,4246 1024,4287 953,4328 873,4349 792,4349 710,4349 630,4328 559,4287 489,4246 430,4187 389,4117 348,4046 327,3966 327,3885 327,3803 348,3723 389,3652 430,3582 489,3523 559,3482 630,3441 710,3420 791,3420 L 792,3420 Z"/>
       </g>
      </g>
      <g class="com.sun.star.drawing.CustomShape">
       <g id="id22">
        <rect class="BoundingBox" stroke="none" fill="none" x="683" y="4351" width="223" height="3038"/>
        <path fill="rgb(255,252,255)" stroke="none" d="M 904,5870 L 904,7387 684,7387 684,4352 904,4352 904,5870 Z"/>
        <path fill="none" stroke="rgb(19,19,19)" d="M 904,5870 L 904,7387 684,7387 684,4352 904,4352 904,5870 Z"/>
       </g>
      </g>
      <g class="com.sun.star.drawing.CustomShape">
       <g id="id23">
        <rect class="BoundingBox" stroke="none" fill="none" x="498" y="3571" width="601" height="601"/>
        <path fill="rgb(255,252,255)" stroke="none" d="M 798,3572 C 850,3572 902,3586 948,3612 993,3638 1031,3676 1057,3722 1083,3767 1097,3819 1097,3871 1097,3923 1083,3975 1057,4021 1031,4066 993,4104 948,4130 902,4156 850,4170 798,4170 746,4170 694,4156 649,4130 603,4104 565,4066 539,4021 513,3975 499,3923 499,3871 499,3819 513,3767 539,3722 565,3676 603,3638 648,3612 694,3586 746,3572 798,3572 L 798,3572 Z"/>
        <path fill="none" stroke="rgb(19,19,19)" d="M 798,3572 C 850,3572 902,3586 948,3612 993,3638 1031,3676 1057,3722 1083,3767 1097,3819 1097,3871 1097,3923 1083,3975 1057,4021 1031,4066 993,4104 948,4130 902,4156 850,4170 798,4170 746,4170 694,4156 649,4130 603,4104 565,4066 539,4021 513,3975 499,3923 499,3871 499,3819 513,3767 539,3722 565,3676 603,3638 648,3612 694,3586 746,3572 798,3572 L 798,3572 Z"/>
       </g>
      </g>
      <g class="com.sun.star.drawing.CustomShape">
       <g id="id24">
        <rect class="BoundingBox" stroke="none" fill="none" x="530" y="3511" width="530" height="3906"/>
        <path fill="rgb(250,1,0)" stroke="none" d="M 1059,5464 L 1059,7416 530,7416 530,3511 1059,3511 1059,5464 Z"/>
       </g>
      </g>
      <g class="com.sun.star.drawing.CustomShape">
       <g id="id25">
        <rect class="BoundingBox" stroke="none" fill="none" x="324" y="3419" width="931" height="931"/>
        <path fill="rgb(250,1,0)" stroke="none" d="M 790,3420 C 871,3420 951,3441 1022,3482 1092,3523 1151,3582 1192,3652 1233,3723 1254,3803 1254,3885 1254,3966 1233,4046 1192,4117 1151,4187 1092,4246 1022,4287 951,4328 871,4349 790,4349 708,4349 628,4328 557,4287 487,4246 428,4187 387,4117 346,4046 325,3966 325,3885 325,3803 346,3723 387,3652 428,3582 487,3523 557,3482 628,3441 708,3420 789,3420 L 790,3420 Z"/>
       </g>
      </g>
      <g class="com.sun.star.drawing.CustomShape">
       <g id="id26">
        <rect class="BoundingBox" stroke="none" fill="none" x="682" y="4351" width="221" height="2918"/>
        <path fill="rgb(255,252,255)" stroke="none" d="M 902,5810 L 902,7268 682,7268 682,4351 902,4351 902,5810 Z"/>
       </g>
      </g>
      <g class="com.sun.star.drawing.CustomShape">
       <g id="id27">
        <rect class="BoundingBox" stroke="none" fill="none" x="498" y="3572" width="599" height="599"/>
        <path fill="rgb(255,252,255)" stroke="none" d="M 797,3572 C 849,3572 901,3586 947,3612 992,3638 1030,3676 1056,3722 1082,3767 1096,3819 1096,3871 1096,3923 1082,3975 1056,4021 1030,4066 992,4104 947,4130 901,4156 849,4170 797,4170 745,4170 693,4156 648,4130 602,4104 564,4066 538,4021 512,3975 498,3923 498,3871 498,3819 512,3767 538,3722 564,3676 602,3638 647,3612 693,3586 745,3572 797,3572 L 797,3572 Z"/>
       </g>
      </g>
     </g>
    </g>
   </g>
  </g>
 </g>
</svg>