<?xml version="1.0" encoding="UTF-8"?>
<!DOCTYPE svg PUBLIC "-//W3C//DTD SVG 1.1//EN" "http://www.w3.org/Graphics/SVG/1.1/DTD/svg11.dtd">
<svg version="1.2" width="40mm" height="117.5mm" viewBox="0 0 4000 11750" preserveAspectRatio="xMidYMid" fill-rule="evenodd" stroke-width="28.222" stroke-linejoin="round" xmlns="http://www.w3.org/2000/svg" xmlns:ooo="http://xml.openoffice.org/svg/export" xmlns:xlink="http://www.w3.org/1999/xlink" xmlns:presentation="http://sun.com/xmlns/staroffice/presentation" xmlns:smil="http://www.w3.org/2001/SMIL20/" xmlns:anim="urn:oasis:names:tc:opendocument:xmlns:animation:1.0" xmlns:svg="urn:oasis:names:tc:opendocument:xmlns:svg-compatible:1.0" xml:space="preserve">
 <defs class="ClipPathGroup">
  <clipPath id="presentation_clip_path" clipPathUnits="userSpaceOnUse">
   <rect x="0" y="0" width="4000" height="11750"/>
  </clipPath>
  <clipPath id="presentation_clip_path_shrink" clipPathUnits="userSpaceOnUse">
   <rect x="4" y="11" width="3992" height="11727"/>
  </clipPath>
 </defs>
 <defs class="TextShapeIndex">
  <g ooo:slide="id1" ooo:id-list="id3 id4 id5 id6 id7 id8 id9 id10 id11 id12 id13 id14 id15 id16 id17 id18 id19 id20 id21 id22 id23 id24 id25 id26 id27"/>
 </defs>
 <defs class="EmbeddedBulletChars">
  <g id="bullet-char-template-57356" transform="scale(0.00048828125,-0.00048828125)">
   <path d="M 580,1141 L 1163,571 580,0 -4,571 580,1141 Z"/>
  </g>
  <g id="bullet-char-template-57354" transform="scale(0.00048828125,-0.00048828125)">
   <path d="M 8,1128 L 1137,1128 1137,0 8,0 8,1128 Z"/>
  </g>
  <g id="bullet-char-template-10146" transform="scale(0.00048828125,-0.00048828125)">
   <path d="M 174,0 L 602,739 174,1481 1456,739 174,0 Z M 1358,739 L 309,1346 659,739 1358,739 Z"/>
  </g>
  <g id="bullet-char-template-10132" transform="scale(0.00048828125,-0.00048828125)">
   <path d="M 2015,739 L 1276,0 717,0 1260,543 174,543 174,936 1260,936 717,1481 1274,1481 2015,739 Z"/>
  </g>
  <g id="bullet-char-template-10007" transform="scale(0.00048828125,-0.00048828125)">
   <path d="M 0,-2 C -7,14 -16,27 -25,37 L 356,567 C 262,823 215,952 215,954 215,979 228,992 255,992 264,992 276,990 289,987 310,991 331,999 354,1012 L 381,999 492,748 772,1049 836,1024 860,1049 C 881,1039 901,1025 922,1006 886,937 835,863 770,784 769,783 710,716 594,584 L 774,223 C 774,196 753,168 711,139 L 727,119 C 717,90 699,76 672,76 641,76 570,178 457,381 L 164,-76 C 142,-110 111,-127 72,-127 30,-127 9,-110 8,-76 1,-67 -2,-52 -2,-32 -2,-23 -1,-13 0,-2 Z"/>
  </g>
  <g id="bullet-char-template-10004" transform="scale(0.00048828125,-0.00048828125)">
   <path d="M 285,-33 C 182,-33 111,30 74,156 52,228 41,333 41,471 41,549 55,616 82,672 116,743 169,778 240,778 293,778 328,747 346,684 L 369,508 C 377,444 397,411 428,410 L 1163,1116 C 1174,1127 1196,1133 1229,1133 1271,1133 1292,1118 1292,1087 L 1292,965 C 1292,929 1282,901 1262,881 L 442,47 C 390,-6 338,-33 285,-33 Z"/>
  </g>
  <g id="bullet-char-template-9679" transform="scale(0.00048828125,-0.00048828125)">
   <path d="M 813,0 C 632,0 489,54 383,161 276,268 223,411 223,592 223,773 276,916 383,1023 489,1130 632,1184 813,1184 992,1184 1136,1130 1245,1023 1353,916 1407,772 1407,592 1407,412 1353,268 1245,161 1136,54 992,0 813,0 Z"/>
  </g>
  <g id="bullet-char-template-8226" transform="scale(0.00048828125,-0.00048828125)">
   <path d="M 346,457 C 273,457 209,483 155,535 101,586 74,649 74,723 74,796 101,859 155,911 209,963 273,989 346,989 419,989 480,963 531,910 582,859 608,796 608,723 608,648 583,586 532,535 482,483 420,457 346,457 Z"/>
  </g>
  <g id="bullet-char-template-8211" transform="scale(0.00048828125,-0.00048828125)">
   <path d="M -4,459 L 1135,459 1135,606 -4,606 -4,459 Z"/>
  </g>
  <g id="bullet-char-template-61548" transform="scale(0.00048828125,-0.00048828125)">
   <path d="M 173,740 C 173,903 231,1043 346,1159 462,1274 601,1332 765,1332 928,1332 1067,1274 1183,1159 1299,1043 1357,903 1357,740 1357,577 1299,437 1183,322 1067,206 928,148 765,148 601,148 462,206 346,322 231,437 173,577 173,740 Z"/>
  </g>
 </defs>
 <g>
  <g id="id2" class="Master_Slide">
   <g id="bg-id2" class="Background"/>
   <g id="bo-id2" class="BackgroundObjects"/>
  </g>
 </g>
 <g class="SlideGroup">
  <g>
   <g id="container-id1">
    <g id="id1" class="Slide" clip-path="url(#presentation_clip_path)">
     <g class="Page">
      <g class="com.sun.star.drawing.CustomShape">
       <g id="id3">
        <rect class="BoundingBox" stroke="none" fill="none" x="1098" y="2631" width="830" height="829"/>
        <path fill="rgb(190,190,190)" stroke="none" d="M 1739,2819 L 1926,3006 1473,3459 1099,3085 1552,2632 1739,2819 Z"/>
       </g>
      </g>
      <g class="com.sun.star.drawing.CustomShape">
       <g id="id4">
        <rect class="BoundingBox" stroke="none" fill="none" x="582" y="1750" width="425" height="10001"/>
        <path fill="rgb(192,192,192)" stroke="none" d="M 794,11750 L 582,11750 582,1750 1006,1750 1006,11750 794,11750 Z"/>
       </g>
      </g>
      <g class="com.sun.star.drawing.CustomShape">
       <g id="id5">
        <rect class="BoundingBox" stroke="none" fill="none" x="42" y="176" width="3137" height="3138"/>
        <path fill="rgb(250,1,0)" stroke="none" d="M 1797,1931 L 416,3312 42,2938 2803,177 3177,551 1797,1931 Z"/>
       </g>
      </g>
      <g class="com.sun.star.drawing.CustomShape">
       <g id="id6">
        <rect class="BoundingBox" stroke="none" fill="none" x="2259" y="159" width="931" height="931"/>
        <path fill="rgb(250,1,0)" stroke="none" d="M 3052,296 C 3110,353 3151,425 3172,504 3193,583 3193,665 3172,744 3151,823 3110,895 3052,952 2995,1010 2923,1052 2844,1073 2765,1094 2682,1094 2603,1073 2525,1052 2453,1010 2395,952 2338,895 2296,823 2275,744 2254,665 2254,583 2275,504 2296,425 2338,353 2395,296 2453,238 2525,196 2603,175 2682,154 2765,154 2844,175 2923,196 2995,238 3052,296 L 3052,296 Z"/>
       </g>
      </g>
      <g class="com.sun.star.drawing.CustomShape">
       <g id="id7">
        <rect class="BoundingBox" stroke="none" fill="none" x="254" y="878" width="2220" height="2220"/>
        <path fill="rgb(255,252,255)" stroke="none" d="M 1441,2065 L 410,3097 254,2941 2317,878 2472,1034 1441,2065 Z"/>
       </g>
      </g>
      <g class="com.sun.star.drawing.CustomShape">
       <g id="id8">
        <rect class="BoundingBox" stroke="none" fill="none" x="2438" y="320" width="600" height="601"/>
        <path fill="rgb(255,252,255)" stroke="none" d="M 2948,409 C 2986,446 3012,492 3026,543 3039,593 3039,647 3026,697 3012,748 2986,794 2948,831 2911,869 2865,895 2814,909 2764,922 2710,922 2660,909 2609,895 2563,869 2526,831 2488,794 2462,748 2448,697 2435,647 2435,593 2448,543 2462,492 2488,446 2526,409 2563,371 2609,345 2660,331 2710,318 2764,318 2814,331 2865,345 2911,371 2948,409 L 2948,409 Z"/>
       </g>
      </g>
      <g class="com.sun.star.drawing.CustomShape">
       <g id="id9">
        <rect class="BoundingBox" stroke="none" fill="none" x="1360" y="2895" width="644" height="644"/>
        <path fill="rgb(190,190,190)" stroke="none" d="M 1454,2990 C 1494,2950 1544,2921 1598,2906 1653,2892 1710,2892 1765,2906 1819,2921 1869,2949 1909,2989 1949,3029 1977,3079 1992,3133 2006,3188 2006,3245 1992,3300 1977,3354 1948,3404 1908,3444 1868,3484 1819,3512 1764,3527 1710,3542 1652,3542 1598,3527 1544,3512 1494,3484 1454,3444 1414,3404 1386,3354 1371,3300 1356,3246 1356,3188 1371,3134 1386,3079 1414,3030 1454,2990 L 1454,2990 Z"/>
       </g>
      </g>
      <g class="com.sun.star.drawing.CustomShape">
       <g id="id10">
        <rect class="BoundingBox" stroke="none" fill="none" x="1004" y="2536" width="644" height="644"/>
        <path fill="rgb(190,190,190)" stroke="none" d="M 1098,2631 C 1138,2591 1188,2562 1242,2547 1297,2533 1354,2533 1409,2547 1463,2562 1513,2590 1553,2630 1593,2670 1621,2720 1636,2774 1650,2829 1650,2886 1636,2941 1621,2995 1592,3045 1552,3085 1512,3125 1463,3153 1408,3168 1354,3183 1296,3183 1242,3168 1188,3153 1138,3125 1098,3085 1058,3045 1030,2995 1015,2941 1000,2887 1000,2829 1015,2775 1030,2720 1058,2671 1098,2631 L 1098,2631 Z"/>
       </g>
      </g>
      <g class="com.sun.star.drawing.CustomShape">
       <g id="id11">
        <rect class="BoundingBox" stroke="none" fill="none" x="1087" y="2623" width="458" height="458"/>
        <path fill="rgb(255,255,255)" stroke="none" d="M 1155,2691 C 1183,2662 1218,2642 1257,2632 1296,2621 1336,2621 1375,2632 1413,2642 1449,2662 1477,2690 1505,2719 1525,2754 1536,2792 1546,2831 1546,2872 1536,2910 1525,2949 1505,2984 1477,3013 1448,3041 1413,3061 1374,3072 1336,3082 1295,3082 1256,3072 1218,3061 1183,3041 1154,3013 1126,2985 1106,2949 1096,2911 1085,2872 1085,2832 1096,2793 1106,2754 1126,2719 1155,2691 L 1155,2691 Z"/>
        <path fill="none" stroke="rgb(0,0,0)" d="M 1155,2691 C 1183,2662 1218,2642 1257,2632 1296,2621 1336,2621 1375,2632 1413,2642 1449,2662 1477,2690 1505,2719 1525,2754 1536,2792 1546,2831 1546,2872 1536,2910 1525,2949 1505,2984 1477,3013 1448,3041 1413,3061 1374,3072 1336,3082 1295,3082 1256,3072 1218,3061 1183,3041 1154,3013 1126,2985 1106,2949 1096,2911 1085,2872 1085,2832 1096,2793 1106,2754 1126,2719 1155,2691 L 1155,2691 Z"/>
       </g>
      </g>
      <g class="com.sun.star.drawing.CustomShape">
       <g id="id12">
        <rect class="BoundingBox" stroke="none" fill="none" x="1462" y="2993" width="458" height="458"/>
        <path fill="rgb(255,255,255)" stroke="none" d="M 1530,3061 C 1558,3032 1593,3012 1632,3002 1671,2991 1711,2991 1750,3002 1788,3012 1824,3032 1852,3060 1880,3089 1900,3124 1911,3162 1921,3201 1921,3242 1911,3280 1900,3319 1880,3354 1852,3383 1823,3411 1788,3431 1749,3442 1711,3452 1670,3452 1631,3442 1593,3431 1558,3411 1529,3383 1501,3355 1481,3319 1471,3281 1460,3242 1460,3202 1471,3163 1481,3124 1501,3089 1530,3061 L 1530,3061 Z"/>
        <path fill="none" stroke="rgb(0,0,0)" d="M 1530,3061 C 1558,3032 1593,3012 1632,3002 1671,2991 1711,2991 1750,3002 1788,3012 1824,3032 1852,3060 1880,3089 1900,3124 1911,3162 1921,3201 1921,3242 1911,3280 1900,3319 1880,3354 1852,3383 1823,3411 1788,3431 1749,3442 1711,3452 1670,3452 1631,3442 1593,3431 1558,3411 1529,3383 1501,3355 1481,3319 1471,3281 1460,3242 1460,3202 1471,3163 1481,3124 1501,3089 1530,3061 Z"/>
       </g>
      </g>
      <g class="com.sun.star.drawing.CustomShape">
       <g id="id13">
        <rect class="BoundingBox" stroke="none" fill="none" x="1102" y="6787" width="831" height="830"/>
        <path fill="rgb(190,190,190)" stroke="none" d="M 1745,6974 L 1932,7161 1477,7616 1103,7242 1558,6787 1745,6974 Z"/>
       </g>
      </g>
      <g class="com.sun.star.drawing.CustomShape">
       <g id="id14">
        <rect class="BoundingBox" stroke="none" fill="none" x="1364" y="7051" width="644" height="644"/>
        <path fill="rgb(190,190,190)" stroke="none" d="M 1458,7146 C 1498,7106 1548,7077 1602,7062 1657,7048 1714,7048 1769,7062 1823,7077 1873,7105 1913,7145 1953,7185 1981,7235 1996,7289 2010,7344 2010,7401 1996,7456 1981,7510 1952,7560 1912,7600 1872,7640 1823,7668 1768,7683 1714,7698 1656,7698 1602,7683 1548,7668 1498,7640 1458,7600 1418,7560 1390,7510 1375,7456 1360,7402 1360,7344 1375,7290 1390,7235 1418,7186 1458,7146 L 1458,7146 Z"/>
       </g>
      </g>
      <g class="com.sun.star.drawing.CustomShape">
       <g id="id15">
        <rect class="BoundingBox" stroke="none" fill="none" x="1017" y="6698" width="645" height="644"/>
        <path fill="rgb(190,190,190)" stroke="none" d="M 1112,6792 C 1152,6752 1201,6724 1256,6709 1310,6694 1368,6694 1422,6709 1477,6724 1526,6752 1566,6792 1606,6832 1634,6881 1649,6936 1664,6990 1664,7048 1649,7102 1634,7157 1606,7206 1566,7246 1526,7286 1477,7314 1422,7329 1368,7344 1310,7344 1256,7329 1201,7314 1152,7286 1112,7246 1072,7206 1044,7157 1029,7102 1014,7048 1014,6990 1029,6936 1044,6881 1072,6832 1112,6792 L 1112,6792 Z"/>
       </g>
      </g>
      <g class="com.sun.star.drawing.CustomShape">
       <g id="id16">
        <rect class="BoundingBox" stroke="none" fill="none" x="1466" y="7150" width="458" height="458"/>
        <path fill="rgb(255,255,255)" stroke="none" d="M 1534,7218 C 1562,7189 1597,7169 1636,7159 1675,7148 1715,7148 1754,7159 1792,7169 1828,7189 1856,7217 1884,7246 1904,7281 1915,7319 1925,7358 1925,7399 1915,7437 1904,7476 1884,7511 1856,7540 1827,7568 1792,7588 1753,7599 1715,7609 1674,7609 1635,7599 1597,7588 1562,7568 1533,7540 1505,7512 1485,7476 1475,7438 1464,7399 1464,7359 1475,7320 1485,7281 1505,7246 1534,7218 L 1534,7218 Z"/>
        <path fill="none" stroke="rgb(0,0,0)" d="M 1534,7218 C 1562,7189 1597,7169 1636,7159 1675,7148 1715,7148 1754,7159 1792,7169 1828,7189 1856,7217 1884,7246 1904,7281 1915,7319 1925,7358 1925,7399 1915,7437 1904,7476 1884,7511 1856,7540 1827,7568 1792,7588 1753,7599 1715,7609 1674,7609 1635,7599 1597,7588 1562,7568 1533,7540 1505,7512 1485,7476 1475,7438 1464,7399 1464,7359 1475,7320 1485,7281 1505,7246 1534,7218 Z"/>
       </g>
      </g>
      <g class="com.sun.star.drawing.CustomShape">
       <g id="id17">
        <rect class="BoundingBox" stroke="none" fill="none" x="1099" y="6787" width="830" height="829"/>
        <path fill="rgb(190,190,190)" stroke="none" d="M 1740,6975 L 1927,7162 1474,7615 1100,7241 1553,6788 1740,6975 Z"/>
       </g>
      </g>
      <g class="com.sun.star.drawing.CustomShape">
       <g id="id18">
        <rect class="BoundingBox" stroke="none" fill="none" x="1362" y="7050" width="644" height="644"/>
        <path fill="rgb(190,190,190)" stroke="none" d="M 1456,7145 C 1496,7105 1546,7076 1600,7061 1655,7047 1712,7047 1767,7061 1821,7076 1871,7104 1911,7144 1951,7184 1979,7234 1994,7288 2008,7343 2008,7400 1994,7455 1979,7509 1950,7559 1910,7599 1870,7639 1821,7667 1766,7682 1712,7697 1654,7697 1600,7682 1546,7667 1496,7639 1456,7599 1416,7559 1388,7509 1373,7455 1358,7401 1358,7343 1373,7289 1388,7234 1416,7185 1456,7145 L 1456,7145 Z"/>
       </g>
      </g>
      <g class="com.sun.star.drawing.CustomShape">
       <g id="id19">
        <rect class="BoundingBox" stroke="none" fill="none" x="1005" y="6692" width="644" height="644"/>
        <path fill="rgb(190,190,190)" stroke="none" d="M 1099,6787 C 1139,6747 1189,6718 1243,6703 1298,6689 1355,6689 1410,6703 1464,6718 1514,6746 1554,6786 1594,6826 1622,6876 1637,6930 1651,6985 1651,7042 1637,7097 1622,7151 1593,7201 1553,7241 1513,7281 1464,7309 1409,7324 1355,7339 1297,7339 1243,7324 1189,7309 1139,7281 1099,7241 1059,7201 1031,7151 1016,7097 1001,7043 1001,6985 1016,6931 1031,6876 1059,6827 1099,6787 L 1099,6787 Z"/>
       </g>
      </g>
      <g class="com.sun.star.drawing.CustomShape">
       <g id="id20">
        <rect class="BoundingBox" stroke="none" fill="none" x="1464" y="7149" width="458" height="458"/>
        <path fill="rgb(255,255,255)" stroke="none" d="M 1532,7217 C 1560,7188 1595,7168 1634,7158 1673,7147 1713,7147 1752,7158 1790,7168 1826,7188 1854,7216 1882,7245 1902,7280 1913,7318 1923,7357 1923,7398 1913,7436 1902,7475 1882,7510 1854,7539 1825,7567 1790,7587 1751,7598 1713,7608 1672,7608 1633,7598 1595,7587 1560,7567 1531,7539 1503,7511 1483,7475 1473,7437 1462,7398 1462,7358 1473,7319 1483,7280 1503,7245 1532,7217 L 1532,7217 Z"/>
        <path fill="none" stroke="rgb(0,0,0)" d="M 1532,7217 C 1560,7188 1595,7168 1634,7158 1673,7147 1713,7147 1752,7158 1790,7168 1826,7188 1854,7216 1882,7245 1902,7280 1913,7318 1923,7357 1923,7398 1913,7436 1902,7475 1882,7510 1854,7539 1825,7567 1790,7587 1751,7598 1713,7608 1672,7608 1633,7598 1595,7587 1560,7567 1531,7539 1503,7511 1483,7475 1473,7437 1462,7398 1462,7358 1473,7319 1483,7280 1503,7245 1532,7217 Z"/>
       </g>
      </g>
      <g class="com.sun.star.drawing.CustomShape">
       <g id="id21">
        <rect class="BoundingBox" stroke="none" fill="none" x="2271" y="4308" width="931" height="931"/>
        <path fill="rgb(250,1,0)" stroke="none" d="M 3064,4445 C 3122,4502 3163,4574 3184,4653 3205,4732 3205,4814 3184,4893 3163,4972 3122,5044 3064,5101 3007,5159 2935,5201 2856,5222 2777,5243 2694,5243 2615,5222 2537,5201 2465,5159 2407,5101 2350,5044 2308,4972 2287,4893 2266,4814 2266,4732 2287,4653 2308,4574 2350,4502 2407,4445 2465,4387 2537,4345 2615,4324 2694,4303 2777,4303 2856,4324 2935,4345 3007,4387 3064,4445 L 3064,4445 Z"/>
       </g>
      </g>
      <g class="com.sun.star.drawing.CustomShape">
       <g id="id22">
        <rect class="BoundingBox" stroke="none" fill="none" x="182" y="5027" width="2305" height="2305"/>
        <path fill="rgb(255,252,255)" stroke="none" d="M 1412,6257 L 339,7330 183,7174 2329,5028 2485,5183 1412,6257 Z"/>
        <path fill="none" stroke="rgb(19,19,19)" d="M 1412,6257 L 339,7330 183,7174 2329,5028 2485,5183 1412,6257 Z"/>
       </g>
      </g>
      <g class="com.sun.star.drawing.CustomShape">
       <g id="id23">
        <rect class="BoundingBox" stroke="none" fill="none" x="2449" y="4468" width="601" height="601"/>
        <path fill="rgb(255,252,255)" stroke="none" d="M 2960,4557 C 2998,4594 3024,4640 3038,4691 3051,4741 3051,4795 3038,4845 3024,4896 2998,4942 2960,4979 2923,5017 2877,5043 2826,5057 2776,5070 2722,5070 2672,5057 2621,5043 2575,5017 2538,4979 2500,4942 2474,4896 2460,4845 2447,4795 2447,4741 2460,4691 2474,4640 2500,4594 2538,4557 2575,4519 2621,4493 2672,4479 2722,4466 2776,4466 2826,4479 2877,4493 2923,4519 2960,4557 L 2960,4557 Z"/>
        <path fill="none" stroke="rgb(19,19,19)" d="M 2960,4557 C 2998,4594 3024,4640 3038,4691 3051,4741 3051,4795 3038,4845 3024,4896 2998,4942 2960,4979 2923,5017 2877,5043 2826,5057 2776,5070 2722,5070 2672,5057 2621,5043 2575,5017 2538,4979 2500,4942 2474,4896 2460,4845 2447,4795 2447,4741 2460,4691 2474,4640 2500,4594 2538,4557 2575,4519 2621,4493 2672,4479 2722,4466 2776,4466 2826,4479 2877,4493 2923,4519 2960,4557 Z"/>
       </g>
      </g>
      <g class="com.sun.star.drawing.CustomShape">
       <g id="id24">
        <rect class="BoundingBox" stroke="none" fill="none" x="53" y="4324" width="3137" height="3138"/>
        <path fill="rgb(250,1,0)" stroke="none" d="M 1808,6079 L 427,7460 53,7086 2814,4325 3188,4699 1808,6079 Z"/>
       </g>
      </g>
      <g class="com.sun.star.drawing.CustomShape">
       <g id="id25">
        <rect class="BoundingBox" stroke="none" fill="none" x="2269" y="4306" width="931" height="931"/>
        <path fill="rgb(250,1,0)" stroke="none" d="M 3062,4443 C 3120,4500 3161,4572 3182,4651 3203,4730 3203,4812 3182,4891 3161,4970 3120,5042 3062,5099 3005,5157 2933,5199 2854,5220 2775,5241 2692,5241 2613,5220 2535,5199 2463,5157 2405,5099 2348,5042 2306,4970 2285,4891 2264,4812 2264,4730 2285,4651 2306,4572 2348,4500 2405,4443 2463,4385 2535,4343 2613,4322 2692,4301 2775,4301 2854,4322 2933,4343 3005,4385 3062,4443 L 3062,4443 Z"/>
       </g>
      </g>
      <g class="com.sun.star.drawing.CustomShape">
       <g id="id26">
        <rect class="BoundingBox" stroke="none" fill="none" x="265" y="5025" width="2220" height="2220"/>
        <path fill="rgb(255,252,255)" stroke="none" d="M 1452,6212 L 421,7244 265,7088 2328,5025 2483,5181 1452,6212 Z"/>
       </g>
      </g>
      <g class="com.sun.star.drawing.CustomShape">
       <g id="id27">
        <rect class="BoundingBox" stroke="none" fill="none" x="2449" y="4469" width="600" height="599"/>
        <path fill="rgb(255,252,255)" stroke="none" d="M 2960,4557 C 2998,4594 3024,4640 3038,4691 3051,4741 3051,4795 3038,4845 3024,4896 2998,4942 2960,4979 2923,5017 2877,5043 2826,5057 2776,5070 2722,5070 2672,5057 2621,5043 2575,5017 2538,4979 2500,4942 2474,4896 2460,4845 2447,4795 2447,4741 2460,4691 2474,4640 2500,4594 2538,4557 2575,4519 2621,4493 2672,4479 2722,4466 2776,4466 2826,4479 2877,4493 2923,4519 2960,4557 L 2960,4557 Z"/>
       </g>
      </g>
     </g>
    </g>
   </g>
  </g>
 </g>
</svg>