<?xml version="1.0" encoding="UTF-8"?>
<!DOCTYPE svg PUBLIC "-//W3C//DTD SVG 1.1//EN" "http://www.w3.org/Graphics/SVG/1.1/DTD/svg11.dtd">
<svg version="1.2" width="25mm" height="125mm" viewBox="0 0 2500 12500" preserveAspectRatio="xMidYMid" fill-rule="evenodd" stroke-width="28.222" stroke-linejoin="round" xmlns="http://www.w3.org/2000/svg" xmlns:ooo="http://xml.openoffice.org/svg/export" xmlns:xlink="http://www.w3.org/1999/xlink" xmlns:presentation="http://sun.com/xmlns/staroffice/presentation" xmlns:smil="http://www.w3.org/2001/SMIL20/" xmlns:anim="urn:oasis:names:tc:opendocument:xmlns:animation:1.0" xmlns:svg="urn:oasis:names:tc:opendocument:xmlns:svg-compatible:1.0" xml:space="preserve">
 <defs class="ClipPathGroup">
  <clipPath id="presentation_clip_path" clipPathUnits="userSpaceOnUse">
   <rect x="0" y="0" width="2500" height="12500"/>
  </clipPath>
  <clipPath id="presentation_clip_path_shrink" clipPathUnits="userSpaceOnUse">
   <rect x="2" y="12" width="2495" height="12475"/>
  </clipPath>
 </defs>
 <defs class="TextShapeIndex">
  <g ooo:slide="id1" ooo:id-list="id3 id4 id5 id6 id7 id8 id9 id10 id11 id12 id13 id14 id15 id16 id17 id18 id19 id20 id21 id22 id23 id24 id25 id26 id27 id28 id29 id30 id31 id32 id33 id34 id35 id36 id37 id38 id39 id40 id41 id42 id43 id44 id45 id46 id47 id48 id49 id50 id51 id52 id53 id54 id55 id56 id57 id58 id59 id60 id61 id62 id63 id64 id65 id66 id67 id68 id69 id70 id71 id72 id73 id74 id75 id76 id77 id78 id79 id80 id81 id82 id83 id84 id85 id86"/>
 </defs>
 <defs class="EmbeddedBulletChars">
  <g id="bullet-char-template-57356" transform="scale(0.00048828125,-0.00048828125)">
   <path d="M 580,1141 L 1163,571 580,0 -4,571 580,1141 Z"/>
  </g>
  <g id="bullet-char-template-57354" transform="scale(0.00048828125,-0.00048828125)">
   <path d="M 8,1128 L 1137,1128 1137,0 8,0 8,1128 Z"/>
  </g>
  <g id="bullet-char-template-10146" transform="scale(0.00048828125,-0.00048828125)">
   <path d="M 174,0 L 602,739 174,1481 1456,739 174,0 Z M 1358,739 L 309,1346 659,739 1358,739 Z"/>
  </g>
  <g id="bullet-char-template-10132" transform="scale(0.00048828125,-0.00048828125)">
   <path d="M 2015,739 L 1276,0 717,0 1260,543 174,543 174,936 1260,936 717,1481 1274,1481 2015,739 Z"/>
  </g>
  <g id="bullet-char-template-10007" transform="scale(0.00048828125,-0.00048828125)">
   <path d="M 0,-2 C -7,14 -16,27 -25,37 L 356,567 C 262,823 215,952 215,954 215,979 228,992 255,992 264,992 276,990 289,987 310,991 331,999 354,1012 L 381,999 492,748 772,1049 836,1024 860,1049 C 881,1039 901,1025 922,1006 886,937 835,863 770,784 769,783 710,716 594,584 L 774,223 C 774,196 753,168 711,139 L 727,119 C 717,90 699,76 672,76 641,76 570,178 457,381 L 164,-76 C 142,-110 111,-127 72,-127 30,-127 9,-110 8,-76 1,-67 -2,-52 -2,-32 -2,-23 -1,-13 0,-2 Z"/>
  </g>
  <g id="bullet-char-template-10004" transform="scale(0.00048828125,-0.00048828125)">
   <path d="M 285,-33 C 182,-33 111,30 74,156 52,228 41,333 41,471 41,549 55,616 82,672 116,743 169,778 240,778 293,778 328,747 346,684 L 369,508 C 377,444 397,411 428,410 L 1163,1116 C 1174,1127 1196,1133 1229,1133 1271,1133 1292,1118 1292,1087 L 1292,965 C 1292,929 1282,901 1262,881 L 442,47 C 390,-6 338,-33 285,-33 Z"/>
  </g>
  <g id="bullet-char-template-9679" transform="scale(0.00048828125,-0.00048828125)">
   <path d="M 813,0 C 632,0 489,54 383,161 276,268 223,411 223,592 223,773 276,916 383,1023 489,1130 632,1184 813,1184 992,1184 1136,1130 1245,1023 1353,916 1407,772 1407,592 1407,412 1353,268 1245,161 1136,54 992,0 813,0 Z"/>
  </g>
  <g id="bullet-char-template-8226" transform="scale(0.00048828125,-0.00048828125)">
   <path d="M 346,457 C 273,457 209,483 155,535 101,586 74,649 74,723 74,796 101,859 155,911 209,963 273,989 346,989 419,989 480,963 531,910 582,859 608,796 608,723 608,648 583,586 532,535 482,483 420,457 346,457 Z"/>
  </g>
  <g id="bullet-char-template-8211" transform="scale(0.00048828125,-0.00048828125)">
   <path d="M -4,459 L 1135,459 1135,606 -4,606 -4,459 Z"/>
  </g>
  <g id="bullet-char-template-61548" transform="scale(0.00048828125,-0.00048828125)">
   <path d="M 173,740 C 173,903 231,1043 346,1159 462,1274 601,1332 765,1332 928,1332 1067,1274 1183,1159 1299,1043 1357,903 1357,740 1357,577 1299,437 1183,322 1067,206 928,148 765,148 601,148 462,206 346,322 231,437 173,577 173,740 Z"/>
  </g>
 </defs>
 <g>
  <g id="id2" class="Master_Slide">
   <g id="bg-id2" class="Background"/>
   <g id="bo-id2" class="BackgroundObjects"/>
  </g>
 </g>
 <g class="SlideGroup">
  <g>
   <g id="container-id1">
    <g id="id1" class="Slide" clip-path="url(#presentation_clip_path)">
     <g class="Page">
      <g class="com.sun.star.drawing.CustomShape">
       <g id="id3">
        <rect class="BoundingBox" stroke="none" fill="none" x="1000" y="2270" width="501" height="10001"/>
        <path fill="rgb(192,192,192)" stroke="none" d="M 1250,12270 L 1000,12270 1000,2270 1500,2270 1500,12270 1250,12270 Z"/>
       </g>
      </g>
      <g class="com.sun.star.drawing.CustomShape">
       <g id="id4">
        <rect class="BoundingBox" stroke="none" fill="none" x="250" y="3290" width="2002" height="2002"/>
        <path fill="rgb(19,19,19)" stroke="none" d="M 2251,4291 C 2251,4466 2205,4639 2117,4791 2029,4943 1903,5069 1751,5157 1599,5245 1426,5291 1251,5291 1075,5291 902,5245 750,5157 598,5069 472,4943 384,4791 296,4639 250,4466 250,4291 250,4115 296,3942 384,3790 472,3638 598,3512 750,3424 902,3336 1075,3290 1250,3290 1426,3290 1599,3336 1751,3424 1903,3512 2029,3638 2117,3790 2205,3942 2251,4115 2251,4290 L 2251,4291 Z"/>
       </g>
      </g>
      <g class="com.sun.star.drawing.CustomShape">
       <g id="id5">
        <rect class="BoundingBox" stroke="none" fill="none" x="749" y="3788" width="1003" height="1004"/>
        <path fill="rgb(255,0,0)" stroke="none" d="M 1751,4290 C 1751,4378 1728,4464 1684,4541 1640,4617 1577,4680 1501,4724 1424,4768 1338,4791 1250,4791 1162,4791 1076,4768 999,4724 923,4680 860,4617 816,4541 772,4464 749,4378 749,4290 749,4202 772,4116 816,4039 860,3963 923,3900 999,3856 1076,3812 1162,3789 1250,3789 1338,3789 1424,3812 1501,3856 1577,3900 1640,3963 1684,4039 1728,4116 1751,4202 1751,4290 L 1751,4290 Z"/>
       </g>
      </g>
      <g class="com.sun.star.drawing.CustomShape">
       <g id="id6">
        <rect class="BoundingBox" stroke="none" fill="none" x="250" y="1790" width="2002" height="2002"/>
        <path fill="rgb(19,19,19)" stroke="none" d="M 2251,2791 C 2251,2966 2205,3139 2117,3291 2029,3443 1903,3569 1751,3657 1599,3745 1426,3791 1251,3791 1075,3791 902,3745 750,3657 598,3569 472,3443 384,3291 296,3139 250,2966 250,2791 250,2615 296,2442 384,2290 472,2138 598,2012 750,1924 902,1836 1075,1790 1250,1790 1426,1790 1599,1836 1751,1924 1903,2012 2029,2138 2117,2290 2205,2442 2251,2615 2251,2790 L 2251,2791 Z"/>
       </g>
      </g>
      <g class="com.sun.star.drawing.CustomShape">
       <g id="id7">
        <rect class="BoundingBox" stroke="none" fill="none" x="749" y="2289" width="1003" height="1003"/>
        <path fill="rgb(255,150,0)" stroke="none" d="M 1751,2790 C 1751,2878 1728,2964 1684,3040 1640,3117 1577,3180 1501,3224 1424,3268 1338,3291 1250,3291 1162,3291 1076,3268 999,3224 923,3180 860,3117 816,3040 772,2964 749,2878 749,2790 749,2702 772,2616 816,2540 860,2463 923,2400 999,2356 1076,2312 1162,2289 1250,2289 1338,2289 1424,2312 1501,2356 1577,2400 1640,2463 1684,2539 1728,2616 1751,2702 1751,2790 L 1751,2790 Z"/>
       </g>
      </g>
      <g class="com.sun.star.drawing.LineShape">
       <g id="id8">
        <rect class="BoundingBox" stroke="none" fill="none" x="209" y="3499" width="2083" height="83"/>
        <path fill="none" stroke="rgb(0,0,0)" stroke-width="81" stroke-linejoin="round" d="M 250,3540 L 2250,3540"/>
       </g>
      </g>
      <g class="com.sun.star.drawing.LineShape">
       <g id="id9">
        <rect class="BoundingBox" stroke="none" fill="none" x="209" y="1999" width="2083" height="83"/>
        <path fill="none" stroke="rgb(0,0,0)" stroke-width="81" stroke-linejoin="round" d="M 250,2040 L 2250,2040"/>
       </g>
      </g>
      <g class="com.sun.star.drawing.OpenBezierShape">
       <g id="id10">
        <rect class="BoundingBox" stroke="none" fill="none" x="209" y="4249" width="1083" height="1083"/>
        <path fill="none" stroke="rgb(0,0,0)" stroke-width="81" stroke-linejoin="round" stroke-linecap="round" d="M 250,4290 C 250,5290 1250,5290 1250,5290"/>
       </g>
      </g>
      <g class="com.sun.star.drawing.OpenBezierShape">
       <g id="id11">
        <rect class="BoundingBox" stroke="none" fill="none" x="1209" y="4249" width="1083" height="1083"/>
        <path fill="none" stroke="rgb(0,0,0)" stroke-width="81" stroke-linejoin="round" stroke-linecap="round" d="M 1250,5290 C 2250,5290 2250,4290 2250,4290"/>
       </g>
      </g>
      <g class="com.sun.star.drawing.LineShape">
       <g id="id12">
        <rect class="BoundingBox" stroke="none" fill="none" x="697" y="2237" width="1107" height="1107"/>
        <path fill="none" stroke="rgb(255,150,0)" stroke-width="106" stroke-linejoin="round" d="M 750,2290 L 1750,3290"/>
       </g>
      </g>
      <g class="com.sun.star.drawing.LineShape">
       <g id="id13">
        <rect class="BoundingBox" stroke="none" fill="none" x="697" y="2237" width="1108" height="1107"/>
        <path fill="none" stroke="rgb(255,150,0)" stroke-width="106" stroke-linejoin="round" d="M 750,3290 L 1750,2290"/>
       </g>
      </g>
      <g class="com.sun.star.drawing.CustomShape">
       <g id="id14">
        <rect class="BoundingBox" stroke="none" fill="none" x="250" y="290" width="2002" height="2002"/>
        <path fill="rgb(19,19,19)" stroke="none" d="M 2251,1291 C 2251,1466 2205,1639 2117,1791 2029,1943 1903,2069 1751,2157 1599,2245 1426,2291 1251,2291 1075,2291 902,2245 750,2157 598,2069 472,1943 384,1791 296,1639 250,1466 250,1291 250,1115 296,942 384,790 472,638 598,512 750,424 902,336 1075,290 1250,290 1426,290 1599,336 1751,424 1903,512 2029,638 2117,790 2205,942 2251,1115 2251,1290 L 2251,1291 Z"/>
       </g>
      </g>
      <g class="com.sun.star.drawing.CustomShape">
       <g id="id15">
        <rect class="BoundingBox" stroke="none" fill="none" x="749" y="788" width="1003" height="1003"/>
        <path fill="rgb(0,255,0)" stroke="none" d="M 1751,1289 C 1751,1377 1728,1463 1684,1540 1640,1616 1577,1679 1501,1723 1424,1767 1338,1790 1250,1790 1162,1790 1076,1767 999,1723 923,1679 860,1616 816,1540 772,1463 749,1377 749,1289 749,1201 772,1115 816,1039 860,962 923,899 999,855 1076,811 1162,788 1250,788 1338,788 1424,811 1501,855 1577,899 1640,962 1684,1038 1728,1115 1751,1201 1751,1289 L 1751,1289 Z"/>
       </g>
      </g>
      <g class="com.sun.star.drawing.LineShape">
       <g id="id16">
        <rect class="BoundingBox" stroke="none" fill="none" x="697" y="737" width="1107" height="1107"/>
        <path fill="none" stroke="rgb(0,255,0)" stroke-width="106" stroke-linejoin="round" d="M 750,790 L 1750,1790"/>
       </g>
      </g>
      <g class="com.sun.star.drawing.OpenBezierShape">
       <g id="id17">
        <rect class="BoundingBox" stroke="none" fill="none" x="209" y="249" width="1083" height="1083"/>
        <path fill="none" stroke="rgb(0,0,0)" stroke-width="81" stroke-linejoin="round" stroke-linecap="round" d="M 250,1290 C 250,290 1250,290 1250,290"/>
       </g>
      </g>
      <g class="com.sun.star.drawing.LineShape">
       <g id="id18">
        <rect class="BoundingBox" stroke="none" fill="none" x="697" y="736" width="1107" height="1108"/>
        <path fill="none" stroke="rgb(0,255,0)" stroke-width="106" stroke-linejoin="round" d="M 750,1790 L 1750,790"/>
       </g>
      </g>
      <g class="com.sun.star.drawing.LineShape">
       <g id="id19">
        <rect class="BoundingBox" stroke="none" fill="none" x="209" y="1999" width="2083" height="83"/>
        <path fill="none" stroke="rgb(0,0,0)" stroke-width="81" stroke-linejoin="round" d="M 250,2040 L 2250,2040"/>
       </g>
      </g>
      <g class="com.sun.star.drawing.OpenBezierShape">
       <g id="id20">
        <rect class="BoundingBox" stroke="none" fill="none" x="1209" y="249" width="1083" height="1083"/>
        <path fill="none" stroke="rgb(0,0,0)" stroke-width="81" stroke-linejoin="round" stroke-linecap="round" d="M 1250,290 C 2250,290 2250,1290 2250,1290"/>
       </g>
      </g>
      <g class="com.sun.star.drawing.CustomShape">
       <g id="id21">
        <rect class="BoundingBox" stroke="none" fill="none" x="249" y="1269" width="2003" height="3003"/>
        <path fill="rgb(19,19,19)" stroke="none" d="M 1250,4270 L 250,4270 250,1270 2250,1270 2250,4270 1250,4270 Z"/>
        <path fill="none" stroke="rgb(0,0,0)" d="M 1250,4270 L 250,4270 250,1270 2250,1270 2250,4270 1250,4270 Z"/>
       </g>
      </g>
      <g class="com.sun.star.drawing.CustomShape">
       <g id="id22">
        <rect class="BoundingBox" stroke="none" fill="none" x="250" y="3270" width="2002" height="2002"/>
        <path fill="rgb(19,19,19)" stroke="none" d="M 2251,4271 C 2251,4446 2205,4619 2117,4771 2029,4923 1903,5049 1751,5137 1599,5225 1426,5271 1251,5271 1075,5271 902,5225 750,5137 598,5049 472,4923 384,4771 296,4619 250,4446 250,4271 250,4095 296,3922 384,3770 472,3618 598,3492 750,3404 902,3316 1075,3270 1250,3270 1426,3270 1599,3316 1751,3404 1903,3492 2029,3618 2117,3770 2205,3922 2251,4095 2251,4270 L 2251,4271 Z"/>
       </g>
      </g>
      <g class="com.sun.star.drawing.CustomShape">
       <g id="id23">
        <rect class="BoundingBox" stroke="none" fill="none" x="250" y="1770" width="2002" height="2002"/>
        <path fill="rgb(19,19,19)" stroke="none" d="M 2251,2771 C 2251,2946 2205,3119 2117,3271 2029,3423 1903,3549 1751,3637 1599,3725 1426,3771 1251,3771 1075,3771 902,3725 750,3637 598,3549 472,3423 384,3271 296,3119 250,2946 250,2771 250,2595 296,2422 384,2270 472,2118 598,1992 750,1904 902,1816 1075,1770 1250,1770 1426,1770 1599,1816 1751,1904 1903,1992 2029,2118 2117,2270 2205,2422 2251,2595 2251,2770 L 2251,2771 Z"/>
       </g>
      </g>
      <g class="com.sun.star.drawing.LineShape">
       <g id="id24">
        <rect class="BoundingBox" stroke="none" fill="none" x="209" y="3479" width="2083" height="83"/>
        <path fill="none" stroke="rgb(0,0,0)" stroke-width="81" stroke-linejoin="round" d="M 250,3520 L 2250,3520"/>
       </g>
      </g>
      <g class="com.sun.star.drawing.LineShape">
       <g id="id25">
        <rect class="BoundingBox" stroke="none" fill="none" x="209" y="1979" width="2083" height="83"/>
        <path fill="none" stroke="rgb(0,0,0)" stroke-width="81" stroke-linejoin="round" d="M 250,2020 L 2250,2020"/>
       </g>
      </g>
      <g class="com.sun.star.drawing.OpenBezierShape">
       <g id="id26">
        <rect class="BoundingBox" stroke="none" fill="none" x="209" y="4229" width="1083" height="1083"/>
        <path fill="none" stroke="rgb(0,0,0)" stroke-width="81" stroke-linejoin="round" stroke-linecap="round" d="M 250,4270 C 250,5270 1250,5270 1250,5270"/>
       </g>
      </g>
      <g class="com.sun.star.drawing.OpenBezierShape">
       <g id="id27">
        <rect class="BoundingBox" stroke="none" fill="none" x="1209" y="4229" width="1083" height="1083"/>
        <path fill="none" stroke="rgb(0,0,0)" stroke-width="81" stroke-linejoin="round" stroke-linecap="round" d="M 1250,5270 C 2250,5270 2250,4270 2250,4270"/>
       </g>
      </g>
      <g class="com.sun.star.drawing.CustomShape">
       <g id="id28">
        <rect class="BoundingBox" stroke="none" fill="none" x="250" y="270" width="2002" height="2002"/>
        <path fill="rgb(19,19,19)" stroke="none" d="M 2251,1271 C 2251,1446 2205,1619 2117,1771 2029,1923 1903,2049 1751,2137 1599,2225 1426,2271 1251,2271 1075,2271 902,2225 750,2137 598,2049 472,1923 384,1771 296,1619 250,1446 250,1271 250,1095 296,922 384,770 472,618 598,492 750,404 902,316 1075,270 1250,270 1426,270 1599,316 1751,404 1903,492 2029,618 2117,770 2205,922 2251,1095 2251,1270 L 2251,1271 Z"/>
       </g>
      </g>
      <g class="com.sun.star.drawing.OpenBezierShape">
       <g id="id29">
        <rect class="BoundingBox" stroke="none" fill="none" x="209" y="229" width="1083" height="1083"/>
        <path fill="none" stroke="rgb(0,0,0)" stroke-width="81" stroke-linejoin="round" stroke-linecap="round" d="M 250,1270 C 250,270 1250,270 1250,270"/>
       </g>
      </g>
      <g class="com.sun.star.drawing.LineShape">
       <g id="id30">
        <rect class="BoundingBox" stroke="none" fill="none" x="209" y="1979" width="2083" height="83"/>
        <path fill="none" stroke="rgb(0,0,0)" stroke-width="81" stroke-linejoin="round" d="M 250,2020 L 2250,2020"/>
       </g>
      </g>
      <g class="com.sun.star.drawing.OpenBezierShape">
       <g id="id31">
        <rect class="BoundingBox" stroke="none" fill="none" x="1209" y="229" width="1083" height="1083"/>
        <path fill="none" stroke="rgb(0,0,0)" stroke-width="81" stroke-linejoin="round" stroke-linecap="round" d="M 1250,270 C 2250,270 2250,1270 2250,1270"/>
       </g>
      </g>
      <g class="com.sun.star.drawing.LineShape">
       <g id="id32">
        <rect class="BoundingBox" stroke="none" fill="none" x="209" y="1229" width="83" height="3083"/>
        <path fill="none" stroke="rgb(0,0,0)" stroke-width="81" stroke-linejoin="round" d="M 250,1270 L 250,4270"/>
       </g>
      </g>
      <g class="com.sun.star.drawing.LineShape">
       <g id="id33">
        <rect class="BoundingBox" stroke="none" fill="none" x="2209" y="1229" width="83" height="3083"/>
        <path fill="none" stroke="rgb(0,0,0)" stroke-width="81" stroke-linejoin="round" d="M 2250,1270 L 2250,4270"/>
       </g>
      </g>
      <g class="com.sun.star.drawing.CustomShape">
       <g id="id34">
        <rect class="BoundingBox" stroke="none" fill="none" x="747" y="3768" width="1004" height="1003"/>
        <path fill="rgb(51,51,51)" stroke="none" d="M 1750,4269 C 1750,4357 1727,4443 1683,4520 1639,4596 1576,4659 1500,4703 1423,4747 1337,4770 1249,4770 1161,4770 1075,4747 999,4703 922,4659 859,4596 815,4520 771,4443 748,4357 748,4269 748,4181 771,4095 815,4019 859,3942 922,3879 999,3835 1075,3791 1161,3768 1249,3768 1337,3768 1423,3791 1500,3835 1576,3879 1639,3942 1683,4019 1727,4095 1750,4181 1750,4269 L 1750,4269 Z"/>
       </g>
      </g>
      <g class="com.sun.star.drawing.CustomShape">
       <g id="id35">
        <rect class="BoundingBox" stroke="none" fill="none" x="747" y="768" width="1004" height="1003"/>
        <path fill="rgb(255,150,0)" stroke="none" d="M 1750,1269 C 1750,1357 1727,1443 1683,1519 1639,1596 1576,1659 1500,1703 1423,1747 1337,1770 1249,1770 1161,1770 1075,1747 999,1703 922,1659 859,1596 815,1519 771,1443 748,1357 748,1269 748,1181 771,1095 815,1019 859,942 922,879 999,835 1075,791 1161,768 1249,768 1337,768 1423,791 1500,835 1576,879 1639,942 1683,1018 1727,1095 1750,1181 1750,1269 L 1750,1269 Z"/>
       </g>
      </g>
      <g class="com.sun.star.drawing.CustomShape">
       <g id="id36">
        <rect class="BoundingBox" stroke="none" fill="none" x="749" y="2309" width="1004" height="1004"/>
        <path fill="rgb(255,150,0)" stroke="none" d="M 1752,2811 C 1752,2899 1729,2985 1685,3062 1641,3138 1578,3201 1501,3245 1425,3289 1339,3312 1251,3312 1163,3312 1077,3289 1000,3245 924,3201 861,3138 817,3062 773,2985 750,2899 750,2811 750,2723 773,2637 817,2561 861,2484 924,2421 1000,2377 1077,2333 1163,2310 1251,2310 1339,2310 1425,2333 1501,2377 1578,2421 1641,2484 1685,2560 1729,2637 1752,2723 1752,2811 L 1752,2811 Z"/>
       </g>
      </g>
      <g class="com.sun.star.drawing.LineShape">
       <g id="id37">
        <rect class="BoundingBox" stroke="none" fill="none" x="698" y="2258" width="1107" height="1107"/>
        <path fill="none" stroke="rgb(255,150,0)" stroke-width="106" stroke-linejoin="round" d="M 751,2311 L 1751,3311"/>
       </g>
      </g>
      <g class="com.sun.star.drawing.LineShape">
       <g id="id38">
        <rect class="BoundingBox" stroke="none" fill="none" x="698" y="2258" width="1108" height="1107"/>
        <path fill="none" stroke="rgb(255,150,0)" stroke-width="106" stroke-linejoin="round" d="M 751,3311 L 1751,2311"/>
       </g>
      </g>
      <g class="com.sun.star.drawing.CustomShape">
       <g id="id39">
        <rect class="BoundingBox" stroke="none" fill="none" x="749" y="2289" width="1003" height="1003"/>
        <path fill="rgb(0,255,0)" stroke="none" d="M 1751,2790 C 1751,2878 1728,2964 1684,3040 1640,3117 1577,3180 1501,3224 1424,3268 1338,3291 1250,3291 1162,3291 1076,3268 999,3224 923,3180 860,3117 816,3040 772,2964 749,2878 749,2790 749,2702 772,2616 816,2540 860,2463 923,2400 999,2356 1076,2312 1162,2289 1250,2289 1338,2289 1424,2312 1501,2356 1577,2400 1640,2463 1684,2539 1728,2616 1751,2702 1751,2790 L 1751,2790 Z"/>
       </g>
      </g>
      <g class="com.sun.star.drawing.LineShape">
       <g id="id40">
        <rect class="BoundingBox" stroke="none" fill="none" x="697" y="2238" width="1107" height="1107"/>
        <path fill="none" stroke="rgb(0,255,0)" stroke-width="106" stroke-linejoin="round" d="M 750,2291 L 1750,3291"/>
       </g>
      </g>
      <g class="com.sun.star.drawing.LineShape">
       <g id="id41">
        <rect class="BoundingBox" stroke="none" fill="none" x="697" y="2237" width="1107" height="1108"/>
        <path fill="none" stroke="rgb(0,255,0)" stroke-width="106" stroke-linejoin="round" d="M 750,3291 L 1750,2291"/>
       </g>
      </g>
      <g class="com.sun.star.drawing.CustomShape">
       <g id="id42">
        <rect class="BoundingBox" stroke="none" fill="none" x="749" y="2269" width="1003" height="1003"/>
        <path fill="rgb(0,255,0)" stroke="none" d="M 1751,2770 C 1751,2858 1728,2944 1684,3020 1640,3097 1577,3160 1501,3204 1424,3248 1338,3271 1250,3271 1162,3271 1076,3248 999,3204 923,3160 860,3097 816,3020 772,2944 749,2858 749,2770 749,2682 772,2596 816,2520 860,2443 923,2380 999,2336 1076,2292 1162,2269 1250,2269 1338,2269 1424,2292 1501,2336 1577,2380 1640,2443 1684,2519 1728,2596 1751,2682 1751,2770 L 1751,2770 Z"/>
       </g>
      </g>
      <g class="com.sun.star.drawing.LineShape">
       <g id="id43">
        <rect class="BoundingBox" stroke="none" fill="none" x="697" y="2218" width="1107" height="1108"/>
        <path fill="none" stroke="rgb(0,255,0)" stroke-width="106" stroke-linejoin="round" d="M 750,2271 L 1750,3271"/>
       </g>
      </g>
      <g class="com.sun.star.drawing.LineShape">
       <g id="id44">
        <rect class="BoundingBox" stroke="none" fill="none" x="697" y="2218" width="1108" height="1108"/>
        <path fill="none" stroke="rgb(0,255,0)" stroke-width="106" stroke-linejoin="round" d="M 750,3271 L 1750,2271"/>
       </g>
      </g>
      <g class="com.sun.star.drawing.CustomShape">
       <g id="id45">
        <rect class="BoundingBox" stroke="none" fill="none" x="1000" y="2250" width="501" height="10001"/>
        <path fill="rgb(192,192,192)" stroke="none" d="M 1250,12250 L 1000,12250 1000,2250 1500,2250 1500,12250 1250,12250 Z"/>
       </g>
      </g>
      <g class="com.sun.star.drawing.CustomShape">
       <g id="id46">
        <rect class="BoundingBox" stroke="none" fill="none" x="250" y="3270" width="2002" height="2002"/>
        <path fill="rgb(19,19,19)" stroke="none" d="M 2251,4271 C 2251,4446 2205,4619 2117,4771 2029,4923 1903,5049 1751,5137 1599,5225 1426,5271 1251,5271 1075,5271 902,5225 750,5137 598,5049 472,4923 384,4771 296,4619 250,4446 250,4271 250,4095 296,3922 384,3770 472,3618 598,3492 750,3404 902,3316 1075,3270 1250,3270 1426,3270 1599,3316 1751,3404 1903,3492 2029,3618 2117,3770 2205,3922 2251,4095 2251,4270 L 2251,4271 Z"/>
       </g>
      </g>
      <g class="com.sun.star.drawing.CustomShape">
       <g id="id47">
        <rect class="BoundingBox" stroke="none" fill="none" x="749" y="3768" width="1003" height="1004"/>
        <path fill="rgb(255,0,0)" stroke="none" d="M 1751,4270 C 1751,4358 1728,4444 1684,4521 1640,4597 1577,4660 1501,4704 1424,4748 1338,4771 1250,4771 1162,4771 1076,4748 999,4704 923,4660 860,4597 816,4521 772,4444 749,4358 749,4270 749,4182 772,4096 816,4019 860,3943 923,3880 999,3836 1076,3792 1162,3769 1250,3769 1338,3769 1424,3792 1501,3836 1577,3880 1640,3943 1684,4019 1728,4096 1751,4182 1751,4270 L 1751,4270 Z"/>
       </g>
      </g>
      <g class="com.sun.star.drawing.CustomShape">
       <g id="id48">
        <rect class="BoundingBox" stroke="none" fill="none" x="250" y="1770" width="2002" height="2002"/>
        <path fill="rgb(19,19,19)" stroke="none" d="M 2251,2771 C 2251,2946 2205,3119 2117,3271 2029,3423 1903,3549 1751,3637 1599,3725 1426,3771 1251,3771 1075,3771 902,3725 750,3637 598,3549 472,3423 384,3271 296,3119 250,2946 250,2771 250,2595 296,2422 384,2270 472,2118 598,1992 750,1904 902,1816 1075,1770 1250,1770 1426,1770 1599,1816 1751,1904 1903,1992 2029,2118 2117,2270 2205,2422 2251,2595 2251,2770 L 2251,2771 Z"/>
       </g>
      </g>
      <g class="com.sun.star.drawing.CustomShape">
       <g id="id49">
        <rect class="BoundingBox" stroke="none" fill="none" x="749" y="2269" width="1003" height="1003"/>
        <path fill="rgb(255,150,0)" stroke="none" d="M 1751,2770 C 1751,2858 1728,2944 1684,3020 1640,3097 1577,3160 1501,3204 1424,3248 1338,3271 1250,3271 1162,3271 1076,3248 999,3204 923,3160 860,3097 816,3020 772,2944 749,2858 749,2770 749,2682 772,2596 816,2520 860,2443 923,2380 999,2336 1076,2292 1162,2269 1250,2269 1338,2269 1424,2292 1501,2336 1577,2380 1640,2443 1684,2519 1728,2596 1751,2682 1751,2770 L 1751,2770 Z"/>
       </g>
      </g>
      <g class="com.sun.star.drawing.LineShape">
       <g id="id50">
        <rect class="BoundingBox" stroke="none" fill="none" x="209" y="3479" width="2083" height="83"/>
        <path fill="none" stroke="rgb(0,0,0)" stroke-width="81" stroke-linejoin="round" d="M 250,3520 L 2250,3520"/>
       </g>
      </g>
      <g class="com.sun.star.drawing.LineShape">
       <g id="id51">
        <rect class="BoundingBox" stroke="none" fill="none" x="209" y="1979" width="2083" height="83"/>
        <path fill="none" stroke="rgb(0,0,0)" stroke-width="81" stroke-linejoin="round" d="M 250,2020 L 2250,2020"/>
       </g>
      </g>
      <g class="com.sun.star.drawing.OpenBezierShape">
       <g id="id52">
        <rect class="BoundingBox" stroke="none" fill="none" x="209" y="4229" width="1083" height="1083"/>
        <path fill="none" stroke="rgb(0,0,0)" stroke-width="81" stroke-linejoin="round" stroke-linecap="round" d="M 250,4270 C 250,5270 1250,5270 1250,5270"/>
       </g>
      </g>
      <g class="com.sun.star.drawing.OpenBezierShape">
       <g id="id53">
        <rect class="BoundingBox" stroke="none" fill="none" x="1209" y="4229" width="1083" height="1083"/>
        <path fill="none" stroke="rgb(0,0,0)" stroke-width="81" stroke-linejoin="round" stroke-linecap="round" d="M 1250,5270 C 2250,5270 2250,4270 2250,4270"/>
       </g>
      </g>
      <g class="com.sun.star.drawing.LineShape">
       <g id="id54">
        <rect class="BoundingBox" stroke="none" fill="none" x="697" y="2217" width="1107" height="1107"/>
        <path fill="none" stroke="rgb(255,150,0)" stroke-width="106" stroke-linejoin="round" d="M 750,2270 L 1750,3270"/>
       </g>
      </g>
      <g class="com.sun.star.drawing.LineShape">
       <g id="id55">
        <rect class="BoundingBox" stroke="none" fill="none" x="697" y="2217" width="1108" height="1107"/>
        <path fill="none" stroke="rgb(255,150,0)" stroke-width="106" stroke-linejoin="round" d="M 750,3270 L 1750,2270"/>
       </g>
      </g>
      <g class="com.sun.star.drawing.CustomShape">
       <g id="id56">
        <rect class="BoundingBox" stroke="none" fill="none" x="250" y="270" width="2002" height="2002"/>
        <path fill="rgb(19,19,19)" stroke="none" d="M 2251,1271 C 2251,1446 2205,1619 2117,1771 2029,1923 1903,2049 1751,2137 1599,2225 1426,2271 1251,2271 1075,2271 902,2225 750,2137 598,2049 472,1923 384,1771 296,1619 250,1446 250,1271 250,1095 296,922 384,770 472,618 598,492 750,404 902,316 1075,270 1250,270 1426,270 1599,316 1751,404 1903,492 2029,618 2117,770 2205,922 2251,1095 2251,1270 L 2251,1271 Z"/>
       </g>
      </g>
      <g class="com.sun.star.drawing.CustomShape">
       <g id="id57">
        <rect class="BoundingBox" stroke="none" fill="none" x="749" y="768" width="1003" height="1003"/>
        <path fill="rgb(0,255,0)" stroke="none" d="M 1751,1269 C 1751,1357 1728,1443 1684,1519 1640,1596 1577,1659 1501,1703 1424,1747 1338,1770 1250,1770 1162,1770 1076,1747 999,1703 923,1659 860,1596 816,1519 772,1443 749,1357 749,1269 749,1181 772,1095 816,1019 860,942 923,879 999,835 1076,791 1162,768 1250,768 1338,768 1424,791 1501,835 1577,879 1640,942 1684,1018 1728,1095 1751,1181 1751,1269 L 1751,1269 Z"/>
       </g>
      </g>
      <g class="com.sun.star.drawing.LineShape">
       <g id="id58">
        <rect class="BoundingBox" stroke="none" fill="none" x="697" y="717" width="1107" height="1107"/>
        <path fill="none" stroke="rgb(0,255,0)" stroke-width="106" stroke-linejoin="round" d="M 750,770 L 1750,1770"/>
       </g>
      </g>
      <g class="com.sun.star.drawing.OpenBezierShape">
       <g id="id59">
        <rect class="BoundingBox" stroke="none" fill="none" x="209" y="229" width="1083" height="1083"/>
        <path fill="none" stroke="rgb(0,0,0)" stroke-width="81" stroke-linejoin="round" stroke-linecap="round" d="M 250,1270 C 250,270 1250,270 1250,270"/>
       </g>
      </g>
      <g class="com.sun.star.drawing.LineShape">
       <g id="id60">
        <rect class="BoundingBox" stroke="none" fill="none" x="697" y="716" width="1107" height="1108"/>
        <path fill="none" stroke="rgb(0,255,0)" stroke-width="106" stroke-linejoin="round" d="M 750,1770 L 1750,770"/>
       </g>
      </g>
      <g class="com.sun.star.drawing.LineShape">
       <g id="id61">
        <rect class="BoundingBox" stroke="none" fill="none" x="209" y="1979" width="2083" height="83"/>
        <path fill="none" stroke="rgb(0,0,0)" stroke-width="81" stroke-linejoin="round" d="M 250,2020 L 2250,2020"/>
       </g>
      </g>
      <g class="com.sun.star.drawing.OpenBezierShape">
       <g id="id62">
        <rect class="BoundingBox" stroke="none" fill="none" x="1209" y="229" width="1083" height="1083"/>
        <path fill="none" stroke="rgb(0,0,0)" stroke-width="81" stroke-linejoin="round" stroke-linecap="round" d="M 1250,270 C 2250,270 2250,1270 2250,1270"/>
       </g>
      </g>
      <g class="com.sun.star.drawing.CustomShape">
       <g id="id63">
        <rect class="BoundingBox" stroke="none" fill="none" x="249" y="1249" width="2003" height="3003"/>
        <path fill="rgb(19,19,19)" stroke="none" d="M 1250,4250 L 250,4250 250,1250 2250,1250 2250,4250 1250,4250 Z"/>
        <path fill="none" stroke="rgb(0,0,0)" d="M 1250,4250 L 250,4250 250,1250 2250,1250 2250,4250 1250,4250 Z"/>
       </g>
      </g>
      <g class="com.sun.star.drawing.CustomShape">
       <g id="id64">
        <rect class="BoundingBox" stroke="none" fill="none" x="250" y="3250" width="2002" height="2002"/>
        <path fill="rgb(19,19,19)" stroke="none" d="M 2251,4251 C 2251,4426 2205,4599 2117,4751 2029,4903 1903,5029 1751,5117 1599,5205 1426,5251 1251,5251 1075,5251 902,5205 750,5117 598,5029 472,4903 384,4751 296,4599 250,4426 250,4251 250,4075 296,3902 384,3750 472,3598 598,3472 750,3384 902,3296 1075,3250 1250,3250 1426,3250 1599,3296 1751,3384 1903,3472 2029,3598 2117,3750 2205,3902 2251,4075 2251,4250 L 2251,4251 Z"/>
       </g>
      </g>
      <g class="com.sun.star.drawing.CustomShape">
       <g id="id65">
        <rect class="BoundingBox" stroke="none" fill="none" x="250" y="1750" width="2002" height="2002"/>
        <path fill="rgb(19,19,19)" stroke="none" d="M 2251,2751 C 2251,2926 2205,3099 2117,3251 2029,3403 1903,3529 1751,3617 1599,3705 1426,3751 1251,3751 1075,3751 902,3705 750,3617 598,3529 472,3403 384,3251 296,3099 250,2926 250,2751 250,2575 296,2402 384,2250 472,2098 598,1972 750,1884 902,1796 1075,1750 1250,1750 1426,1750 1599,1796 1751,1884 1903,1972 2029,2098 2117,2250 2205,2402 2251,2575 2251,2750 L 2251,2751 Z"/>
       </g>
      </g>
      <g class="com.sun.star.drawing.LineShape">
       <g id="id66">
        <rect class="BoundingBox" stroke="none" fill="none" x="209" y="3459" width="2083" height="83"/>
        <path fill="none" stroke="rgb(0,0,0)" stroke-width="81" stroke-linejoin="round" d="M 250,3500 L 2250,3500"/>
       </g>
      </g>
      <g class="com.sun.star.drawing.LineShape">
       <g id="id67">
        <rect class="BoundingBox" stroke="none" fill="none" x="209" y="1959" width="2083" height="83"/>
        <path fill="none" stroke="rgb(0,0,0)" stroke-width="81" stroke-linejoin="round" d="M 250,2000 L 2250,2000"/>
       </g>
      </g>
      <g class="com.sun.star.drawing.OpenBezierShape">
       <g id="id68">
        <rect class="BoundingBox" stroke="none" fill="none" x="209" y="4209" width="1083" height="1083"/>
        <path fill="none" stroke="rgb(0,0,0)" stroke-width="81" stroke-linejoin="round" stroke-linecap="round" d="M 250,4250 C 250,5250 1250,5250 1250,5250"/>
       </g>
      </g>
      <g class="com.sun.star.drawing.OpenBezierShape">
       <g id="id69">
        <rect class="BoundingBox" stroke="none" fill="none" x="1209" y="4209" width="1083" height="1083"/>
        <path fill="none" stroke="rgb(0,0,0)" stroke-width="81" stroke-linejoin="round" stroke-linecap="round" d="M 1250,5250 C 2250,5250 2250,4250 2250,4250"/>
       </g>
      </g>
      <g class="com.sun.star.drawing.CustomShape">
       <g id="id70">
        <rect class="BoundingBox" stroke="none" fill="none" x="250" y="250" width="2002" height="2002"/>
        <path fill="rgb(19,19,19)" stroke="none" d="M 2251,1251 C 2251,1426 2205,1599 2117,1751 2029,1903 1903,2029 1751,2117 1599,2205 1426,2251 1251,2251 1075,2251 902,2205 750,2117 598,2029 472,1903 384,1751 296,1599 250,1426 250,1251 250,1075 296,902 384,750 472,598 598,472 750,384 902,296 1075,250 1250,250 1426,250 1599,296 1751,384 1903,472 2029,598 2117,750 2205,902 2251,1075 2251,1250 L 2251,1251 Z"/>
       </g>
      </g>
      <g class="com.sun.star.drawing.OpenBezierShape">
       <g id="id71">
        <rect class="BoundingBox" stroke="none" fill="none" x="209" y="209" width="1083" height="1083"/>
        <path fill="none" stroke="rgb(0,0,0)" stroke-width="81" stroke-linejoin="round" stroke-linecap="round" d="M 250,1250 C 250,250 1250,250 1250,250"/>
       </g>
      </g>
      <g class="com.sun.star.drawing.LineShape">
       <g id="id72">
        <rect class="BoundingBox" stroke="none" fill="none" x="209" y="1959" width="2083" height="83"/>
        <path fill="none" stroke="rgb(0,0,0)" stroke-width="81" stroke-linejoin="round" d="M 250,2000 L 2250,2000"/>
       </g>
      </g>
      <g class="com.sun.star.drawing.OpenBezierShape">
       <g id="id73">
        <rect class="BoundingBox" stroke="none" fill="none" x="1209" y="209" width="1083" height="1083"/>
        <path fill="none" stroke="rgb(0,0,0)" stroke-width="81" stroke-linejoin="round" stroke-linecap="round" d="M 1250,250 C 2250,250 2250,1250 2250,1250"/>
       </g>
      </g>
      <g class="com.sun.star.drawing.LineShape">
       <g id="id74">
        <rect class="BoundingBox" stroke="none" fill="none" x="209" y="1209" width="83" height="3083"/>
        <path fill="none" stroke="rgb(0,0,0)" stroke-width="81" stroke-linejoin="round" d="M 250,1250 L 250,4250"/>
       </g>
      </g>
      <g class="com.sun.star.drawing.LineShape">
       <g id="id75">
        <rect class="BoundingBox" stroke="none" fill="none" x="2209" y="1209" width="83" height="3083"/>
        <path fill="none" stroke="rgb(0,0,0)" stroke-width="81" stroke-linejoin="round" d="M 2250,1250 L 2250,4250"/>
       </g>
      </g>
      <g class="com.sun.star.drawing.CustomShape">
       <g id="id76">
        <rect class="BoundingBox" stroke="none" fill="none" x="747" y="747" width="1004" height="1004"/>
        <path fill="rgb(255,150,0)" stroke="none" d="M 1750,1249 C 1750,1337 1727,1423 1683,1500 1639,1576 1576,1639 1500,1683 1423,1727 1337,1750 1249,1750 1161,1750 1075,1727 999,1683 922,1639 859,1576 815,1500 771,1423 748,1337 748,1249 748,1161 771,1075 815,999 859,922 922,859 999,815 1075,771 1161,748 1249,748 1337,748 1423,771 1500,815 1576,859 1639,922 1683,998 1727,1075 1750,1161 1750,1249 L 1750,1249 Z"/>
       </g>
      </g>
      <g class="com.sun.star.drawing.CustomShape">
       <g id="id77">
        <rect class="BoundingBox" stroke="none" fill="none" x="749" y="2289" width="1004" height="1004"/>
        <path fill="rgb(255,150,0)" stroke="none" d="M 1752,2791 C 1752,2879 1729,2965 1685,3041 1641,3118 1578,3181 1501,3225 1425,3269 1339,3292 1251,3292 1163,3292 1077,3269 1000,3225 924,3181 861,3118 817,3041 773,2965 750,2879 750,2791 750,2703 773,2617 817,2541 861,2464 924,2401 1000,2357 1077,2313 1163,2290 1251,2290 1339,2290 1425,2313 1501,2357 1578,2401 1641,2464 1685,2540 1729,2617 1752,2703 1752,2791 L 1752,2791 Z"/>
       </g>
      </g>
      <g class="com.sun.star.drawing.LineShape">
       <g id="id78">
        <rect class="BoundingBox" stroke="none" fill="none" x="698" y="2238" width="1107" height="1107"/>
        <path fill="none" stroke="rgb(255,150,0)" stroke-width="106" stroke-linejoin="round" d="M 751,2291 L 1751,3291"/>
       </g>
      </g>
      <g class="com.sun.star.drawing.LineShape">
       <g id="id79">
        <rect class="BoundingBox" stroke="none" fill="none" x="698" y="2238" width="1108" height="1107"/>
        <path fill="none" stroke="rgb(255,150,0)" stroke-width="106" stroke-linejoin="round" d="M 751,3291 L 1751,2291"/>
       </g>
      </g>
      <g class="com.sun.star.drawing.CustomShape">
       <g id="id80">
        <rect class="BoundingBox" stroke="none" fill="none" x="749" y="2269" width="1003" height="1003"/>
        <path fill="rgb(0,255,0)" stroke="none" d="M 1751,2770 C 1751,2858 1728,2944 1684,3020 1640,3097 1577,3160 1501,3204 1424,3248 1338,3271 1250,3271 1162,3271 1076,3248 999,3204 923,3160 860,3097 816,3020 772,2944 749,2858 749,2770 749,2682 772,2596 816,2520 860,2443 923,2380 999,2336 1076,2292 1162,2269 1250,2269 1338,2269 1424,2292 1501,2336 1577,2380 1640,2443 1684,2519 1728,2596 1751,2682 1751,2770 L 1751,2770 Z"/>
       </g>
      </g>
      <g class="com.sun.star.drawing.LineShape">
       <g id="id81">
        <rect class="BoundingBox" stroke="none" fill="none" x="697" y="2218" width="1107" height="1107"/>
        <path fill="none" stroke="rgb(0,255,0)" stroke-width="106" stroke-linejoin="round" d="M 750,2271 L 1750,3271"/>
       </g>
      </g>
      <g class="com.sun.star.drawing.LineShape">
       <g id="id82">
        <rect class="BoundingBox" stroke="none" fill="none" x="697" y="2217" width="1107" height="1108"/>
        <path fill="none" stroke="rgb(0,255,0)" stroke-width="106" stroke-linejoin="round" d="M 750,3271 L 1750,2271"/>
       </g>
      </g>
      <g class="com.sun.star.drawing.CustomShape">
       <g id="id83">
        <rect class="BoundingBox" stroke="none" fill="none" x="749" y="2248" width="1003" height="1004"/>
        <path fill="rgb(0,255,0)" stroke="none" d="M 1751,2750 C 1751,2838 1728,2924 1684,3001 1640,3077 1577,3140 1501,3184 1424,3228 1338,3251 1250,3251 1162,3251 1076,3228 999,3184 923,3140 860,3077 816,3001 772,2924 749,2838 749,2750 749,2662 772,2576 816,2500 860,2423 923,2360 999,2316 1076,2272 1162,2249 1250,2249 1338,2249 1424,2272 1501,2316 1577,2360 1640,2423 1684,2499 1728,2576 1751,2662 1751,2750 L 1751,2750 Z"/>
       </g>
      </g>
      <g class="com.sun.star.drawing.LineShape">
       <g id="id84">
        <rect class="BoundingBox" stroke="none" fill="none" x="697" y="2198" width="1107" height="1108"/>
        <path fill="none" stroke="rgb(0,255,0)" stroke-width="106" stroke-linejoin="round" d="M 750,2251 L 1750,3251"/>
       </g>
      </g>
      <g class="com.sun.star.drawing.LineShape">
       <g id="id85">
        <rect class="BoundingBox" stroke="none" fill="none" x="697" y="2198" width="1108" height="1108"/>
        <path fill="none" stroke="rgb(0,255,0)" stroke-width="106" stroke-linejoin="round" d="M 750,3251 L 1750,2251"/>
       </g>
      </g>
      <g class="com.sun.star.drawing.CustomShape">
       <g id="id86">
        <rect class="BoundingBox" stroke="none" fill="none" x="749" y="3768" width="1003" height="1004"/>
        <path fill="rgb(238,238,238)" stroke="none" d="M 1751,4270 C 1751,4358 1728,4444 1684,4521 1640,4597 1577,4660 1501,4704 1424,4748 1338,4771 1250,4771 1162,4771 1076,4748 999,4704 923,4660 860,4597 816,4521 772,4444 749,4358 749,4270 749,4182 772,4096 816,4019 860,3943 923,3880 999,3836 1076,3792 1162,3769 1250,3769 1338,3769 1424,3792 1501,3836 1577,3880 1640,3943 1684,4019 1728,4096 1751,4182 1751,4270 L 1751,4270 Z"/>
       </g>
      </g>
     </g>
    </g>
   </g>
  </g>
 </g>
</svg>