<?xml version="1.0" encoding="UTF-8"?>
<!DOCTYPE svg PUBLIC "-//W3C//DTD SVG 1.1//EN" "http://www.w3.org/Graphics/SVG/1.1/DTD/svg11.dtd">
<svg version="1.2" width="40mm" height="117.5mm" viewBox="0 0 4000 11750" preserveAspectRatio="xMidYMid" fill-rule="evenodd" stroke-width="28.222" stroke-linejoin="round" xmlns="http://www.w3.org/2000/svg" xmlns:ooo="http://xml.openoffice.org/svg/export" xmlns:xlink="http://www.w3.org/1999/xlink" xmlns:presentation="http://sun.com/xmlns/staroffice/presentation" xmlns:smil="http://www.w3.org/2001/SMIL20/" xmlns:anim="urn:oasis:names:tc:opendocument:xmlns:animation:1.0" xmlns:svg="urn:oasis:names:tc:opendocument:xmlns:svg-compatible:1.0" xml:space="preserve">
 <defs class="ClipPathGroup">
  <clipPath id="presentation_clip_path" clipPathUnits="userSpaceOnUse">
   <rect x="0" y="0" width="4000" height="11750"/>
  </clipPath>
  <clipPath id="presentation_clip_path_shrink" clipPathUnits="userSpaceOnUse">
   <rect x="4" y="11" width="3992" height="11727"/>
  </clipPath>
 </defs>
 <defs class="TextShapeIndex">
  <g ooo:slide="id1" ooo:id-list="id3 id4 id5 id6 id7 id8 id9 id10 id11 id12 id13 id14 id15 id16 id17 id18 id19 id20 id21 id22 id23 id24 id25 id26 id27"/>
 </defs>
 <defs class="EmbeddedBulletChars">
  <g id="bullet-char-template-57356" transform="scale(0.00048828125,-0.00048828125)">
   <path d="M 580,1141 L 1163,571 580,0 -4,571 580,1141 Z"/>
  </g>
  <g id="bullet-char-template-57354" transform="scale(0.00048828125,-0.00048828125)">
   <path d="M 8,1128 L 1137,1128 1137,0 8,0 8,1128 Z"/>
  </g>
  <g id="bullet-char-template-10146" transform="scale(0.00048828125,-0.00048828125)">
   <path d="M 174,0 L 602,739 174,1481 1456,739 174,0 Z M 1358,739 L 309,1346 659,739 1358,739 Z"/>
  </g>
  <g id="bullet-char-template-10132" transform="scale(0.00048828125,-0.00048828125)">
   <path d="M 2015,739 L 1276,0 717,0 1260,543 174,543 174,936 1260,936 717,1481 1274,1481 2015,739 Z"/>
  </g>
  <g id="bullet-char-template-10007" transform="scale(0.00048828125,-0.00048828125)">
   <path d="M 0,-2 C -7,14 -16,27 -25,37 L 356,567 C 262,823 215,952 215,954 215,979 228,992 255,992 264,992 276,990 289,987 310,991 331,999 354,1012 L 381,999 492,748 772,1049 836,1024 860,1049 C 881,1039 901,1025 922,1006 886,937 835,863 770,784 769,783 710,716 594,584 L 774,223 C 774,196 753,168 711,139 L 727,119 C 717,90 699,76 672,76 641,76 570,178 457,381 L 164,-76 C 142,-110 111,-127 72,-127 30,-127 9,-110 8,-76 1,-67 -2,-52 -2,-32 -2,-23 -1,-13 0,-2 Z"/>
  </g>
  <g id="bullet-char-template-10004" transform="scale(0.00048828125,-0.00048828125)">
   <path d="M 285,-33 C 182,-33 111,30 74,156 52,228 41,333 41,471 41,549 55,616 82,672 116,743 169,778 240,778 293,778 328,747 346,684 L 369,508 C 377,444 397,411 428,410 L 1163,1116 C 1174,1127 1196,1133 1229,1133 1271,1133 1292,1118 1292,1087 L 1292,965 C 1292,929 1282,901 1262,881 L 442,47 C 390,-6 338,-33 285,-33 Z"/>
  </g>
  <g id="bullet-char-template-9679" transform="scale(0.00048828125,-0.00048828125)">
   <path d="M 813,0 C 632,0 489,54 383,161 276,268 223,411 223,592 223,773 276,916 383,1023 489,1130 632,1184 813,1184 992,1184 1136,1130 1245,1023 1353,916 1407,772 1407,592 1407,412 1353,268 1245,161 1136,54 992,0 813,0 Z"/>
  </g>
  <g id="bullet-char-template-8226" transform="scale(0.00048828125,-0.00048828125)">
   <path d="M 346,457 C 273,457 209,483 155,535 101,586 74,649 74,723 74,796 101,859 155,911 209,963 273,989 346,989 419,989 480,963 531,910 582,859 608,796 608,723 608,648 583,586 532,535 482,483 420,457 346,457 Z"/>
  </g>
  <g id="bullet-char-template-8211" transform="scale(0.00048828125,-0.00048828125)">
   <path d="M -4,459 L 1135,459 1135,606 -4,606 -4,459 Z"/>
  </g>
  <g id="bullet-char-template-61548" transform="scale(0.00048828125,-0.00048828125)">
   <path d="M 173,740 C 173,903 231,1043 346,1159 462,1274 601,1332 765,1332 928,1332 1067,1274 1183,1159 1299,1043 1357,903 1357,740 1357,577 1299,437 1183,322 1067,206 928,148 765,148 601,148 462,206 346,322 231,437 173,577 173,740 Z"/>
  </g>
 </defs>
 <g>
  <g id="id2" class="Master_Slide">
   <g id="bg-id2" class="Background"/>
   <g id="bo-id2" class="BackgroundObjects"/>
  </g>
 </g>
 <g class="SlideGroup">
  <g>
   <g id="container-id1">
    <g id="id1" class="Slide" clip-path="url(#presentation_clip_path)">
     <g class="Page">
      <g class="com.sun.star.drawing.CustomShape">
       <g id="id3">
        <rect class="BoundingBox" stroke="none" fill="none" x="1094" y="2631" width="830" height="829"/>
        <path fill="rgb(190,190,190)" stroke="none" d="M 1735,2819 L 1922,3006 1469,3459 1095,3085 1548,2632 1735,2819 Z"/>
       </g>
      </g>
      <g class="com.sun.star.drawing.CustomShape">
       <g id="id4">
        <rect class="BoundingBox" stroke="none" fill="none" x="578" y="1750" width="425" height="10001"/>
        <path fill="rgb(192,192,192)" stroke="none" d="M 790,11750 L 578,11750 578,1750 1002,1750 1002,11750 790,11750 Z"/>
       </g>
      </g>
      <g class="com.sun.star.drawing.CustomShape">
       <g id="id5">
        <rect class="BoundingBox" stroke="none" fill="none" x="38" y="176" width="3137" height="3138"/>
        <path fill="rgb(250,1,0)" stroke="none" d="M 1793,1931 L 412,3312 38,2938 2799,177 3173,551 1793,1931 Z"/>
       </g>
      </g>
      <g class="com.sun.star.drawing.CustomShape">
       <g id="id6">
        <rect class="BoundingBox" stroke="none" fill="none" x="2255" y="159" width="931" height="931"/>
        <path fill="rgb(250,1,0)" stroke="none" d="M 3048,296 C 3106,353 3147,425 3168,504 3189,583 3189,665 3168,744 3147,823 3106,895 3048,952 2991,1010 2919,1052 2840,1073 2761,1094 2678,1094 2599,1073 2521,1052 2449,1010 2391,952 2334,895 2292,823 2271,744 2250,665 2250,583 2271,504 2292,425 2334,353 2391,296 2449,238 2521,196 2599,175 2678,154 2761,154 2840,175 2919,196 2991,238 3048,296 L 3048,296 Z"/>
       </g>
      </g>
      <g class="com.sun.star.drawing.CustomShape">
       <g id="id7">
        <rect class="BoundingBox" stroke="none" fill="none" x="250" y="878" width="2220" height="2220"/>
        <path fill="rgb(255,252,255)" stroke="none" d="M 1437,2065 L 406,3097 250,2941 2313,878 2468,1034 1437,2065 Z"/>
       </g>
      </g>
      <g class="com.sun.star.drawing.CustomShape">
       <g id="id8">
        <rect class="BoundingBox" stroke="none" fill="none" x="2434" y="321" width="600" height="600"/>
        <path fill="rgb(255,252,255)" stroke="none" d="M 2944,409 C 2982,446 3008,492 3022,543 3035,593 3035,647 3022,697 3008,748 2982,794 2944,831 2907,869 2861,895 2810,909 2760,922 2706,922 2656,909 2605,895 2559,869 2522,831 2484,794 2458,748 2444,697 2431,647 2431,593 2444,543 2458,492 2484,446 2522,409 2559,371 2605,345 2656,331 2706,318 2760,318 2810,331 2861,345 2907,371 2944,409 L 2944,409 Z"/>
       </g>
      </g>
      <g class="com.sun.star.drawing.CustomShape">
       <g id="id9">
        <rect class="BoundingBox" stroke="none" fill="none" x="1356" y="2895" width="644" height="644"/>
        <path fill="rgb(190,190,190)" stroke="none" d="M 1450,2990 C 1490,2950 1540,2921 1594,2906 1649,2892 1706,2892 1761,2906 1815,2921 1865,2949 1905,2989 1945,3029 1973,3079 1988,3133 2002,3188 2002,3245 1988,3300 1973,3354 1944,3404 1904,3444 1864,3484 1815,3512 1760,3527 1706,3542 1648,3542 1594,3527 1540,3512 1490,3484 1450,3444 1410,3404 1382,3354 1367,3300 1352,3246 1352,3188 1367,3134 1382,3079 1410,3030 1450,2990 L 1450,2990 Z"/>
       </g>
      </g>
      <g class="com.sun.star.drawing.CustomShape">
       <g id="id10">
        <rect class="BoundingBox" stroke="none" fill="none" x="1000" y="2536" width="644" height="644"/>
        <path fill="rgb(190,190,190)" stroke="none" d="M 1094,2631 C 1134,2591 1184,2562 1238,2547 1293,2533 1350,2533 1405,2547 1459,2562 1509,2590 1549,2630 1589,2670 1617,2720 1632,2774 1646,2829 1646,2886 1632,2941 1617,2995 1588,3045 1548,3085 1508,3125 1459,3153 1404,3168 1350,3183 1292,3183 1238,3168 1184,3153 1134,3125 1094,3085 1054,3045 1026,2995 1011,2941 996,2887 996,2829 1011,2775 1026,2720 1054,2671 1094,2631 L 1094,2631 Z"/>
       </g>
      </g>
      <g class="com.sun.star.drawing.CustomShape">
       <g id="id11">
        <rect class="BoundingBox" stroke="none" fill="none" x="1083" y="2623" width="458" height="458"/>
        <path fill="rgb(255,255,255)" stroke="none" d="M 1151,2691 C 1179,2662 1214,2642 1253,2632 1292,2621 1332,2621 1371,2632 1409,2642 1445,2662 1473,2690 1501,2719 1521,2754 1532,2792 1542,2831 1542,2872 1532,2910 1521,2949 1501,2984 1473,3013 1444,3041 1409,3061 1370,3072 1332,3082 1291,3082 1252,3072 1214,3061 1179,3041 1150,3013 1122,2985 1102,2949 1092,2911 1081,2872 1081,2832 1092,2793 1102,2754 1122,2719 1151,2691 L 1151,2691 Z"/>
        <path fill="none" stroke="rgb(0,0,0)" d="M 1151,2691 C 1179,2662 1214,2642 1253,2632 1292,2621 1332,2621 1371,2632 1409,2642 1445,2662 1473,2690 1501,2719 1521,2754 1532,2792 1542,2831 1542,2872 1532,2910 1521,2949 1501,2984 1473,3013 1444,3041 1409,3061 1370,3072 1332,3082 1291,3082 1252,3072 1214,3061 1179,3041 1150,3013 1122,2985 1102,2949 1092,2911 1081,2872 1081,2832 1092,2793 1102,2754 1122,2719 1151,2691 L 1151,2691 Z"/>
       </g>
      </g>
      <g class="com.sun.star.drawing.CustomShape">
       <g id="id12">
        <rect class="BoundingBox" stroke="none" fill="none" x="1458" y="2993" width="458" height="458"/>
        <path fill="rgb(0,255,0)" stroke="none" d="M 1526,3061 C 1554,3032 1589,3012 1628,3002 1667,2991 1707,2991 1746,3002 1784,3012 1820,3032 1848,3060 1876,3089 1896,3124 1907,3162 1917,3201 1917,3242 1907,3280 1896,3319 1876,3354 1848,3383 1819,3411 1784,3431 1745,3442 1707,3452 1666,3452 1627,3442 1589,3431 1554,3411 1525,3383 1497,3355 1477,3319 1467,3281 1456,3242 1456,3202 1467,3163 1477,3124 1497,3089 1526,3061 L 1526,3061 Z"/>
        <path fill="none" stroke="rgb(0,0,0)" d="M 1526,3061 C 1554,3032 1589,3012 1628,3002 1667,2991 1707,2991 1746,3002 1784,3012 1820,3032 1848,3060 1876,3089 1896,3124 1907,3162 1917,3201 1917,3242 1907,3280 1896,3319 1876,3354 1848,3383 1819,3411 1784,3431 1745,3442 1707,3452 1666,3452 1627,3442 1589,3431 1554,3411 1525,3383 1497,3355 1477,3319 1467,3281 1456,3242 1456,3202 1467,3163 1477,3124 1497,3089 1526,3061 L 1526,3061 Z"/>
       </g>
      </g>
      <g class="com.sun.star.drawing.CustomShape">
       <g id="id13">
        <rect class="BoundingBox" stroke="none" fill="none" x="1098" y="6787" width="831" height="830"/>
        <path fill="rgb(190,190,190)" stroke="none" d="M 1741,6974 L 1928,7161 1473,7616 1099,7242 1554,6787 1741,6974 Z"/>
       </g>
      </g>
      <g class="com.sun.star.drawing.CustomShape">
       <g id="id14">
        <rect class="BoundingBox" stroke="none" fill="none" x="1360" y="7051" width="644" height="644"/>
        <path fill="rgb(190,190,190)" stroke="none" d="M 1454,7146 C 1494,7106 1544,7077 1598,7062 1653,7048 1710,7048 1765,7062 1819,7077 1869,7105 1909,7145 1949,7185 1977,7235 1992,7289 2006,7344 2006,7401 1992,7456 1977,7510 1948,7560 1908,7600 1868,7640 1819,7668 1764,7683 1710,7698 1652,7698 1598,7683 1544,7668 1494,7640 1454,7600 1414,7560 1386,7510 1371,7456 1356,7402 1356,7344 1371,7290 1386,7235 1414,7186 1454,7146 L 1454,7146 Z"/>
       </g>
      </g>
      <g class="com.sun.star.drawing.CustomShape">
       <g id="id15">
        <rect class="BoundingBox" stroke="none" fill="none" x="1013" y="6697" width="644" height="644"/>
        <path fill="rgb(190,190,190)" stroke="none" d="M 1108,6792 C 1148,6752 1197,6724 1252,6709 1306,6694 1364,6694 1418,6709 1473,6724 1522,6752 1562,6792 1602,6832 1630,6881 1645,6936 1660,6990 1660,7048 1645,7102 1630,7157 1602,7206 1562,7246 1522,7286 1473,7314 1418,7329 1364,7344 1306,7344 1252,7329 1197,7314 1148,7286 1108,7246 1068,7206 1040,7157 1025,7102 1010,7048 1010,6990 1025,6936 1040,6881 1068,6832 1108,6792 L 1108,6792 Z"/>
       </g>
      </g>
      <g class="com.sun.star.drawing.CustomShape">
       <g id="id16">
        <rect class="BoundingBox" stroke="none" fill="none" x="1462" y="7150" width="458" height="458"/>
        <path fill="rgb(255,255,255)" stroke="none" d="M 1530,7218 C 1558,7189 1593,7169 1632,7159 1671,7148 1711,7148 1750,7159 1788,7169 1824,7189 1852,7217 1880,7246 1900,7281 1911,7319 1921,7358 1921,7399 1911,7437 1900,7476 1880,7511 1852,7540 1823,7568 1788,7588 1749,7599 1711,7609 1670,7609 1631,7599 1593,7588 1558,7568 1529,7540 1501,7512 1481,7476 1471,7438 1460,7399 1460,7359 1471,7320 1481,7281 1501,7246 1530,7218 L 1530,7218 Z"/>
        <path fill="none" stroke="rgb(0,0,0)" d="M 1530,7218 C 1558,7189 1593,7169 1632,7159 1671,7148 1711,7148 1750,7159 1788,7169 1824,7189 1852,7217 1880,7246 1900,7281 1911,7319 1921,7358 1921,7399 1911,7437 1900,7476 1880,7511 1852,7540 1823,7568 1788,7588 1749,7599 1711,7609 1670,7609 1631,7599 1593,7588 1558,7568 1529,7540 1501,7512 1481,7476 1471,7438 1460,7399 1460,7359 1471,7320 1481,7281 1501,7246 1530,7218 Z"/>
       </g>
      </g>
      <g class="com.sun.star.drawing.CustomShape">
       <g id="id17">
        <rect class="BoundingBox" stroke="none" fill="none" x="1095" y="6787" width="830" height="829"/>
        <path fill="rgb(190,190,190)" stroke="none" d="M 1736,6975 L 1923,7162 1470,7615 1096,7241 1549,6788 1736,6975 Z"/>
       </g>
      </g>
      <g class="com.sun.star.drawing.CustomShape">
       <g id="id18">
        <rect class="BoundingBox" stroke="none" fill="none" x="1358" y="7050" width="644" height="644"/>
        <path fill="rgb(190,190,190)" stroke="none" d="M 1452,7145 C 1492,7105 1542,7076 1596,7061 1651,7047 1708,7047 1763,7061 1817,7076 1867,7104 1907,7144 1947,7184 1975,7234 1990,7288 2004,7343 2004,7400 1990,7455 1975,7509 1946,7559 1906,7599 1866,7639 1817,7667 1762,7682 1708,7697 1650,7697 1596,7682 1542,7667 1492,7639 1452,7599 1412,7559 1384,7509 1369,7455 1354,7401 1354,7343 1369,7289 1384,7234 1412,7185 1452,7145 L 1452,7145 Z"/>
       </g>
      </g>
      <g class="com.sun.star.drawing.CustomShape">
       <g id="id19">
        <rect class="BoundingBox" stroke="none" fill="none" x="1001" y="6692" width="644" height="644"/>
        <path fill="rgb(190,190,190)" stroke="none" d="M 1095,6787 C 1135,6747 1185,6718 1239,6703 1294,6689 1351,6689 1406,6703 1460,6718 1510,6746 1550,6786 1590,6826 1618,6876 1633,6930 1647,6985 1647,7042 1633,7097 1618,7151 1589,7201 1549,7241 1509,7281 1460,7309 1405,7324 1351,7339 1293,7339 1239,7324 1185,7309 1135,7281 1095,7241 1055,7201 1027,7151 1012,7097 997,7043 997,6985 1012,6931 1027,6876 1055,6827 1095,6787 L 1095,6787 Z"/>
       </g>
      </g>
      <g class="com.sun.star.drawing.CustomShape">
       <g id="id20">
        <rect class="BoundingBox" stroke="none" fill="none" x="1460" y="7149" width="458" height="458"/>
        <path fill="rgb(255,150,0)" stroke="none" d="M 1528,7217 C 1556,7188 1591,7168 1630,7158 1669,7147 1709,7147 1748,7158 1786,7168 1822,7188 1850,7216 1878,7245 1898,7280 1909,7318 1919,7357 1919,7398 1909,7436 1898,7475 1878,7510 1850,7539 1821,7567 1786,7587 1747,7598 1709,7608 1668,7608 1629,7598 1591,7587 1556,7567 1527,7539 1499,7511 1479,7475 1469,7437 1458,7398 1458,7358 1469,7319 1479,7280 1499,7245 1528,7217 L 1528,7217 Z"/>
        <path fill="none" stroke="rgb(0,0,0)" d="M 1528,7217 C 1556,7188 1591,7168 1630,7158 1669,7147 1709,7147 1748,7158 1786,7168 1822,7188 1850,7216 1878,7245 1898,7280 1909,7318 1919,7357 1919,7398 1909,7436 1898,7475 1878,7510 1850,7539 1821,7567 1786,7587 1747,7598 1709,7608 1668,7608 1629,7598 1591,7587 1556,7567 1527,7539 1499,7511 1479,7475 1469,7437 1458,7398 1458,7358 1469,7319 1479,7280 1499,7245 1528,7217 Z"/>
       </g>
      </g>
      <g class="com.sun.star.drawing.CustomShape">
       <g id="id21">
        <rect class="BoundingBox" stroke="none" fill="none" x="2267" y="4308" width="931" height="931"/>
        <path fill="rgb(250,1,0)" stroke="none" d="M 3060,4445 C 3118,4502 3159,4574 3180,4653 3201,4732 3201,4814 3180,4893 3159,4972 3118,5044 3060,5101 3003,5159 2931,5201 2852,5222 2773,5243 2690,5243 2611,5222 2533,5201 2461,5159 2403,5101 2346,5044 2304,4972 2283,4893 2262,4814 2262,4732 2283,4653 2304,4574 2346,4502 2403,4445 2461,4387 2533,4345 2611,4324 2690,4303 2773,4303 2852,4324 2931,4345 3003,4387 3060,4445 L 3060,4445 Z"/>
       </g>
      </g>
      <g class="com.sun.star.drawing.CustomShape">
       <g id="id22">
        <rect class="BoundingBox" stroke="none" fill="none" x="178" y="5027" width="2305" height="2305"/>
        <path fill="rgb(255,252,255)" stroke="none" d="M 1408,6257 L 335,7330 179,7174 2325,5028 2481,5183 1408,6257 Z"/>
        <path fill="none" stroke="rgb(19,19,19)" d="M 1408,6257 L 335,7330 179,7174 2325,5028 2481,5183 1408,6257 Z"/>
       </g>
      </g>
      <g class="com.sun.star.drawing.CustomShape">
       <g id="id23">
        <rect class="BoundingBox" stroke="none" fill="none" x="2445" y="4468" width="601" height="601"/>
        <path fill="rgb(255,252,255)" stroke="none" d="M 2956,4557 C 2994,4594 3020,4640 3034,4691 3047,4741 3047,4795 3034,4845 3020,4896 2994,4942 2956,4979 2919,5017 2873,5043 2822,5057 2772,5070 2718,5070 2668,5057 2617,5043 2571,5017 2534,4979 2496,4942 2470,4896 2456,4845 2443,4795 2443,4741 2456,4691 2470,4640 2496,4594 2534,4557 2571,4519 2617,4493 2668,4479 2718,4466 2772,4466 2822,4479 2873,4493 2919,4519 2956,4557 L 2956,4557 Z"/>
        <path fill="none" stroke="rgb(19,19,19)" d="M 2956,4557 C 2994,4594 3020,4640 3034,4691 3047,4741 3047,4795 3034,4845 3020,4896 2994,4942 2956,4979 2919,5017 2873,5043 2822,5057 2772,5070 2718,5070 2668,5057 2617,5043 2571,5017 2534,4979 2496,4942 2470,4896 2456,4845 2443,4795 2443,4741 2456,4691 2470,4640 2496,4594 2534,4557 2571,4519 2617,4493 2668,4479 2718,4466 2772,4466 2822,4479 2873,4493 2919,4519 2956,4557 Z"/>
       </g>
      </g>
      <g class="com.sun.star.drawing.CustomShape">
       <g id="id24">
        <rect class="BoundingBox" stroke="none" fill="none" x="49" y="4324" width="3137" height="3138"/>
        <path fill="rgb(250,1,0)" stroke="none" d="M 1804,6079 L 423,7460 49,7086 2810,4325 3184,4699 1804,6079 Z"/>
       </g>
      </g>
      <g class="com.sun.star.drawing.CustomShape">
       <g id="id25">
        <rect class="BoundingBox" stroke="none" fill="none" x="2265" y="4306" width="931" height="931"/>
        <path fill="rgb(250,1,0)" stroke="none" d="M 3058,4443 C 3116,4500 3157,4572 3178,4651 3199,4730 3199,4812 3178,4891 3157,4970 3116,5042 3058,5099 3001,5157 2929,5199 2850,5220 2771,5241 2688,5241 2609,5220 2531,5199 2459,5157 2401,5099 2344,5042 2302,4970 2281,4891 2260,4812 2260,4730 2281,4651 2302,4572 2344,4500 2401,4443 2459,4385 2531,4343 2609,4322 2688,4301 2771,4301 2850,4322 2929,4343 3001,4385 3058,4443 L 3058,4443 Z"/>
       </g>
      </g>
      <g class="com.sun.star.drawing.CustomShape">
       <g id="id26">
        <rect class="BoundingBox" stroke="none" fill="none" x="261" y="5025" width="2220" height="2220"/>
        <path fill="rgb(255,252,255)" stroke="none" d="M 1448,6212 L 417,7244 261,7088 2324,5025 2479,5181 1448,6212 Z"/>
       </g>
      </g>
      <g class="com.sun.star.drawing.CustomShape">
       <g id="id27">
        <rect class="BoundingBox" stroke="none" fill="none" x="2446" y="4469" width="599" height="599"/>
        <path fill="rgb(255,252,255)" stroke="none" d="M 2956,4557 C 2994,4594 3020,4640 3034,4691 3047,4741 3047,4795 3034,4845 3020,4896 2994,4942 2956,4979 2919,5017 2873,5043 2822,5057 2772,5070 2718,5070 2668,5057 2617,5043 2571,5017 2534,4979 2496,4942 2470,4896 2456,4845 2443,4795 2443,4741 2456,4691 2470,4640 2496,4594 2534,4557 2571,4519 2617,4493 2668,4479 2718,4466 2772,4466 2822,4479 2873,4493 2919,4519 2956,4557 L 2956,4557 Z"/>
       </g>
      </g>
     </g>
    </g>
   </g>
  </g>
 </g>
</svg>