<?xml version="1.0" encoding="UTF-8"?>
<!DOCTYPE svg PUBLIC "-//W3C//DTD SVG 1.1//EN" "http://www.w3.org/Graphics/SVG/1.1/DTD/svg11.dtd">
<svg version="1.2" width="50mm" height="100mm" viewBox="0 0 5000 10000" preserveAspectRatio="xMidYMid" fill-rule="evenodd" stroke-width="28.222" stroke-linejoin="round" xmlns="http://www.w3.org/2000/svg" xmlns:ooo="http://xml.openoffice.org/svg/export" xmlns:xlink="http://www.w3.org/1999/xlink" xmlns:presentation="http://sun.com/xmlns/staroffice/presentation" xmlns:smil="http://www.w3.org/2001/SMIL20/" xmlns:anim="urn:oasis:names:tc:opendocument:xmlns:animation:1.0" xmlns:svg="urn:oasis:names:tc:opendocument:xmlns:svg-compatible:1.0" xml:space="preserve">
 <defs class="ClipPathGroup">
  <clipPath id="presentation_clip_path" clipPathUnits="userSpaceOnUse">
   <rect x="0" y="0" width="5000" height="10000"/>
  </clipPath>
  <clipPath id="presentation_clip_path_shrink" clipPathUnits="userSpaceOnUse">
   <rect x="5" y="10" width="4990" height="9980"/>
  </clipPath>
 </defs>
 <defs class="TextShapeIndex">
  <g ooo:slide="id1" ooo:id-list="id3 id4 id5 id6 id7 id8 id9 id10 id11 id12 id13 id14 id15 id16 id17 id18 id19 id20"/>
 </defs>
 <defs class="EmbeddedBulletChars">
  <g id="bullet-char-template-57356" transform="scale(0.00048828125,-0.00048828125)">
   <path d="M 580,1141 L 1163,571 580,0 -4,571 580,1141 Z"/>
  </g>
  <g id="bullet-char-template-57354" transform="scale(0.00048828125,-0.00048828125)">
   <path d="M 8,1128 L 1137,1128 1137,0 8,0 8,1128 Z"/>
  </g>
  <g id="bullet-char-template-10146" transform="scale(0.00048828125,-0.00048828125)">
   <path d="M 174,0 L 602,739 174,1481 1456,739 174,0 Z M 1358,739 L 309,1346 659,739 1358,739 Z"/>
  </g>
  <g id="bullet-char-template-10132" transform="scale(0.00048828125,-0.00048828125)">
   <path d="M 2015,739 L 1276,0 717,0 1260,543 174,543 174,936 1260,936 717,1481 1274,1481 2015,739 Z"/>
  </g>
  <g id="bullet-char-template-10007" transform="scale(0.00048828125,-0.00048828125)">
   <path d="M 0,-2 C -7,14 -16,27 -25,37 L 356,567 C 262,823 215,952 215,954 215,979 228,992 255,992 264,992 276,990 289,987 310,991 331,999 354,1012 L 381,999 492,748 772,1049 836,1024 860,1049 C 881,1039 901,1025 922,1006 886,937 835,863 770,784 769,783 710,716 594,584 L 774,223 C 774,196 753,168 711,139 L 727,119 C 717,90 699,76 672,76 641,76 570,178 457,381 L 164,-76 C 142,-110 111,-127 72,-127 30,-127 9,-110 8,-76 1,-67 -2,-52 -2,-32 -2,-23 -1,-13 0,-2 Z"/>
  </g>
  <g id="bullet-char-template-10004" transform="scale(0.00048828125,-0.00048828125)">
   <path d="M 285,-33 C 182,-33 111,30 74,156 52,228 41,333 41,471 41,549 55,616 82,672 116,743 169,778 240,778 293,778 328,747 346,684 L 369,508 C 377,444 397,411 428,410 L 1163,1116 C 1174,1127 1196,1133 1229,1133 1271,1133 1292,1118 1292,1087 L 1292,965 C 1292,929 1282,901 1262,881 L 442,47 C 390,-6 338,-33 285,-33 Z"/>
  </g>
  <g id="bullet-char-template-9679" transform="scale(0.00048828125,-0.00048828125)">
   <path d="M 813,0 C 632,0 489,54 383,161 276,268 223,411 223,592 223,773 276,916 383,1023 489,1130 632,1184 813,1184 992,1184 1136,1130 1245,1023 1353,916 1407,772 1407,592 1407,412 1353,268 1245,161 1136,54 992,0 813,0 Z"/>
  </g>
  <g id="bullet-char-template-8226" transform="scale(0.00048828125,-0.00048828125)">
   <path d="M 346,457 C 273,457 209,483 155,535 101,586 74,649 74,723 74,796 101,859 155,911 209,963 273,989 346,989 419,989 480,963 531,910 582,859 608,796 608,723 608,648 583,586 532,535 482,483 420,457 346,457 Z"/>
  </g>
  <g id="bullet-char-template-8211" transform="scale(0.00048828125,-0.00048828125)">
   <path d="M -4,459 L 1135,459 1135,606 -4,606 -4,459 Z"/>
  </g>
  <g id="bullet-char-template-61548" transform="scale(0.00048828125,-0.00048828125)">
   <path d="M 173,740 C 173,903 231,1043 346,1159 462,1274 601,1332 765,1332 928,1332 1067,1274 1183,1159 1299,1043 1357,903 1357,740 1357,577 1299,437 1183,322 1067,206 928,148 765,148 601,148 462,206 346,322 231,437 173,577 173,740 Z"/>
  </g>
 </defs>
 <g>
  <g id="id2" class="Master_Slide">
   <g id="bg-id2" class="Background"/>
   <g id="bo-id2" class="BackgroundObjects"/>
  </g>
 </g>
 <g class="SlideGroup">
  <g>
   <g id="container-id1">
    <g id="id1" class="Slide" clip-path="url(#presentation_clip_path)">
     <g class="Page">
      <g class="Group">
       <g class="com.sun.star.drawing.CustomShape">
        <g id="id3">
         <rect class="BoundingBox" stroke="none" fill="none" x="2250" y="2750" width="501" height="5501"/>
         <path fill="rgb(190,190,190)" stroke="none" d="M 2500,8250 L 2250,8250 2250,2750 2750,2750 2750,8250 2500,8250 Z"/>
        </g>
       </g>
       <g class="com.sun.star.drawing.CustomShape">
        <g id="id4">
         <rect class="BoundingBox" stroke="none" fill="none" x="2941" y="4497" width="251" height="1001"/>
         <path fill="rgb(190,190,190)" stroke="none" d="M 3066,5497 L 2941,5497 2941,4497 3191,4497 3191,5497 3066,5497 Z"/>
        </g>
       </g>
       <g class="com.sun.star.drawing.CustomShape">
        <g id="id5">
         <rect class="BoundingBox" stroke="none" fill="none" x="1982" y="7982" width="1037" height="1537"/>
         <path fill="rgb(255,255,255)" stroke="none" d="M 2500,9500 L 2000,9500 2000,8000 3000,8000 3000,9500 2500,9500 Z"/>
         <path fill="none" stroke="rgb(0,0,0)" stroke-width="35" stroke-linejoin="round" d="M 2500,9500 L 2000,9500 2000,8000 3000,8000 3000,9500 2500,9500 Z"/>
        </g>
       </g>
       <g class="com.sun.star.drawing.CustomShape">
        <g id="id6">
         <rect class="BoundingBox" stroke="none" fill="none" x="2005" y="7998" width="989" height="759"/>
         <path fill="none" stroke="rgb(0,0,0)" stroke-width="81" stroke-linejoin="miter" stroke-linecap="square" d="M 2499,8681 L 2918,8039 2080,8039 2499,8681 Z"/>
        </g>
       </g>
       <g class="com.sun.star.drawing.CustomShape">
        <g id="id7">
         <rect class="BoundingBox" stroke="none" fill="none" x="2006" y="8740" width="989" height="759"/>
         <path fill="none" stroke="rgb(0,0,0)" stroke-width="81" stroke-linejoin="miter" stroke-linecap="square" d="M 2500,8815 L 2919,9457 2081,9457 2500,8815 Z"/>
        </g>
       </g>
       <g class="com.sun.star.drawing.CustomShape">
        <g id="id8">
         <rect class="BoundingBox" stroke="none" fill="none" x="1174" y="5299" width="2300" height="2300"/>
         <path fill="rgb(255,0,0)" stroke="none" d="M 3295,7421 L 3119,7598 1174,5653 1528,5299 3472,7244 3295,7421 Z"/>
        </g>
       </g>
       <g class="com.sun.star.drawing.CustomShape">
        <g id="id9">
         <rect class="BoundingBox" stroke="none" fill="none" x="1344" y="5455" width="2123" height="2123"/>
         <path fill="rgb(255,255,255)" stroke="none" d="M 3377,7488 L 3289,7577 1344,5632 1521,5455 3465,7400 3377,7488 Z"/>
        </g>
       </g>
       <g class="com.sun.star.drawing.CustomShape">
        <g id="id10">
         <rect class="BoundingBox" stroke="none" fill="none" x="3117" y="7242" width="533" height="533"/>
         <path fill="rgb(255,0,0)" stroke="none" d="M 3649,7774 L 3472,7242 3117,7597 3649,7774 Z"/>
        </g>
       </g>
       <g class="com.sun.star.drawing.CustomShape">
        <g id="id11">
         <rect class="BoundingBox" stroke="none" fill="none" x="3213" y="7323" width="269" height="270"/>
         <path fill="rgb(255,255,255)" stroke="none" d="M 3480,7591 L 3391,7324 3214,7501 3480,7591 Z"/>
        </g>
       </g>
       <g class="com.sun.star.drawing.CustomShape">
        <g id="id12">
         <rect class="BoundingBox" stroke="none" fill="none" x="-1" y="1500" width="5003" height="2002"/>
         <path fill="rgb(255,255,255)" stroke="none" d="M 5001,2501 C 5001,2676 4885,2849 4666,3001 4447,3153 4131,3279 3751,3367 3371,3455 2939,3501 2501,3501 2062,3501 1630,3455 1250,3367 870,3279 554,3153 335,3001 116,2849 0,2676 0,2501 0,2325 116,2152 335,2000 554,1848 870,1722 1250,1634 1630,1546 2062,1500 2500,1500 2939,1500 3371,1546 3751,1634 4131,1722 4447,1848 4666,2000 4885,2152 5001,2325 5001,2500 L 5001,2501 Z"/>
        </g>
       </g>
       <g class="com.sun.star.drawing.CustomShape">
        <g id="id13">
         <rect class="BoundingBox" stroke="none" fill="none" x="500" y="1699" width="4002" height="1603"/>
         <path fill="rgb(0,0,0)" stroke="none" d="M 4501,2501 C 4501,2641 4409,2779 4233,2901 4057,3022 3805,3123 3501,3194 3197,3264 2852,3301 2501,3301 2149,3301 1804,3264 1500,3194 1196,3123 944,3022 768,2901 592,2779 500,2641 500,2501 500,2360 592,2222 768,2100 944,1979 1196,1878 1500,1807 1804,1737 2149,1700 2500,1700 2852,1700 3197,1737 3501,1807 3805,1878 4057,1979 4233,2100 4409,2222 4501,2360 4501,2500 L 4501,2501 Z"/>
        </g>
       </g>
       <g class="com.sun.star.drawing.CustomShape">
        <g id="id14">
         <rect class="BoundingBox" stroke="none" fill="none" x="750" y="1800" width="3502" height="1402"/>
         <path fill="rgb(255,150,0)" stroke="none" d="M 4251,2501 C 4251,2623 4170,2744 4016,2851 3863,2957 3642,3046 3376,3107 3110,3169 2808,3201 2501,3201 2193,3201 1891,3169 1625,3107 1359,3046 1138,2957 985,2851 831,2744 750,2623 750,2501 750,2378 831,2257 985,2150 1138,2044 1359,1955 1625,1894 1891,1832 2193,1800 2500,1800 2808,1800 3110,1832 3376,1894 3642,1955 3863,2044 4016,2150 4170,2257 4251,2378 4251,2500 L 4251,2501 Z"/>
        </g>
       </g>
       <g class="com.sun.star.drawing.CustomShape">
        <g id="id15">
         <rect class="BoundingBox" stroke="none" fill="none" x="2751" y="5321" width="642" height="530"/>
         <path fill="rgb(190,190,190)" stroke="none" d="M 3392,5586 L 3392,5850 2751,5850 2751,5321 3392,5321 3392,5586 Z"/>
        </g>
       </g>
       <g class="com.sun.star.drawing.CustomShape">
        <g id="id16">
         <rect class="BoundingBox" stroke="none" fill="none" x="2750" y="5505" width="645" height="643"/>
         <path fill="rgb(190,190,190)" stroke="none" d="M 3072,5505 C 3128,5505 3183,5520 3232,5548 3281,5576 3322,5617 3350,5666 3378,5714 3393,5770 3393,5826 3393,5882 3378,5938 3350,5987 3322,6035 3281,6076 3232,6104 3183,6132 3128,6147 3072,6147 3015,6147 2960,6132 2911,6104 2862,6076 2821,6035 2793,5987 2765,5938 2750,5882 2750,5826 2750,5770 2765,5714 2793,5666 2821,5617 2862,5576 2911,5548 2960,5520 3015,5505 3072,5505 L 3072,5505 Z"/>
        </g>
       </g>
       <g class="com.sun.star.drawing.CustomShape">
        <g id="id17">
         <rect class="BoundingBox" stroke="none" fill="none" x="2751" y="4999" width="645" height="643"/>
         <path fill="rgb(190,190,190)" stroke="none" d="M 3073,4999 C 3129,4999 3184,5014 3233,5042 3282,5070 3323,5111 3351,5160 3379,5208 3394,5264 3394,5320 3394,5376 3379,5432 3351,5481 3323,5529 3282,5570 3233,5598 3184,5626 3129,5641 3073,5641 3016,5641 2961,5626 2912,5598 2863,5570 2822,5529 2794,5481 2766,5432 2751,5376 2751,5320 2751,5264 2766,5208 2794,5160 2822,5111 2863,5070 2912,5042 2961,5014 3016,4999 3073,4999 L 3073,4999 Z"/>
        </g>
       </g>
       <g class="com.sun.star.drawing.CustomShape">
        <g id="id18">
         <rect class="BoundingBox" stroke="none" fill="none" x="2840" y="5081" width="459" height="458"/>
         <path fill="rgb(255,255,255)" stroke="none" d="M 3069,5082 C 3109,5082 3148,5093 3183,5112 3218,5132 3246,5161 3266,5196 3286,5230 3297,5270 3297,5309 3297,5349 3286,5389 3266,5423 3246,5458 3218,5487 3183,5507 3148,5526 3109,5537 3069,5537 3029,5537 2990,5526 2955,5507 2920,5487 2892,5458 2872,5423 2852,5389 2841,5349 2841,5309 2841,5270 2852,5230 2872,5196 2892,5161 2920,5132 2955,5112 2990,5093 3029,5082 3069,5082 L 3069,5082 Z"/>
         <path fill="none" stroke="rgb(0,0,0)" d="M 3069,5082 C 3109,5082 3148,5093 3183,5112 3218,5132 3246,5161 3266,5196 3286,5230 3297,5270 3297,5309 3297,5349 3286,5389 3266,5423 3246,5458 3218,5487 3183,5507 3148,5526 3109,5537 3069,5537 3029,5537 2990,5526 2955,5507 2920,5487 2892,5458 2872,5423 2852,5389 2841,5349 2841,5309 2841,5270 2852,5230 2872,5196 2892,5161 2920,5132 2955,5112 2990,5093 3029,5082 3069,5082 Z"/>
        </g>
       </g>
       <g class="com.sun.star.drawing.CustomShape">
        <g id="id19">
         <rect class="BoundingBox" stroke="none" fill="none" x="2844" y="5609" width="459" height="458"/>
         <path fill="rgb(255,255,255)" stroke="none" d="M 3073,5610 C 3113,5610 3152,5621 3187,5640 3222,5660 3250,5689 3270,5724 3290,5758 3301,5798 3301,5838 3301,5877 3290,5917 3270,5951 3250,5986 3222,6015 3187,6035 3152,6054 3113,6065 3073,6065 3033,6065 2994,6054 2959,6035 2924,6015 2896,5986 2876,5951 2856,5917 2845,5877 2845,5838 2845,5798 2856,5758 2876,5724 2896,5689 2924,5660 2959,5640 2994,5621 3033,5610 3073,5610 L 3073,5610 Z"/>
         <path fill="none" stroke="rgb(0,0,0)" d="M 3073,5610 C 3113,5610 3152,5621 3187,5640 3222,5660 3250,5689 3270,5724 3290,5758 3301,5798 3301,5838 3301,5877 3290,5917 3270,5951 3250,5986 3222,6015 3187,6035 3152,6054 3113,6065 3073,6065 3033,6065 2994,6054 2959,6035 2924,6015 2896,5986 2876,5951 2856,5917 2845,5877 2845,5838 2845,5798 2856,5758 2876,5724 2896,5689 2924,5660 2959,5640 2994,5621 3033,5610 3073,5610 Z"/>
        </g>
       </g>
       <g class="com.sun.star.drawing.CustomShape">
        <g id="id20">
         <rect class="BoundingBox" stroke="none" fill="none" x="2287" y="4496" width="751" height="251"/>
         <path fill="rgb(190,190,190)" stroke="none" d="M 3037,4621 L 3037,4746 2287,4746 2287,4496 3037,4496 3037,4621 Z"/>
        </g>
       </g>
      </g>
     </g>
    </g>
   </g>
  </g>
 </g>
</svg>