<?xml version="1.0" encoding="UTF-8"?>
<!DOCTYPE svg PUBLIC "-//W3C//DTD SVG 1.1//EN" "http://www.w3.org/Graphics/SVG/1.1/DTD/svg11.dtd">
<svg version="1.2" width="250mm" height="130mm" viewBox="0 0 25000 13000" preserveAspectRatio="xMidYMid" fill-rule="evenodd" stroke-width="28.222" stroke-linejoin="round" xmlns="http://www.w3.org/2000/svg" xmlns:ooo="http://xml.openoffice.org/svg/export" xmlns:xlink="http://www.w3.org/1999/xlink" xmlns:presentation="http://sun.com/xmlns/staroffice/presentation" xmlns:smil="http://www.w3.org/2001/SMIL20/" xmlns:anim="urn:oasis:names:tc:opendocument:xmlns:animation:1.0" xmlns:svg="urn:oasis:names:tc:opendocument:xmlns:svg-compatible:1.0" xml:space="preserve">
 <defs class="ClipPathGroup">
  <clipPath id="presentation_clip_path" clipPathUnits="userSpaceOnUse">
   <rect x="0" y="0" width="25000" height="13000"/>
  </clipPath>
  <clipPath id="presentation_clip_path_shrink" clipPathUnits="userSpaceOnUse">
   <rect x="25" y="13" width="24950" height="12974"/>
  </clipPath>
 </defs>
 <defs class="TextShapeIndex">
  <g ooo:slide="id1" ooo:id-list="id3 id4 id5 id6 id7 id8 id9 id10 id11 id12 id13 id14 id15 id16 id17 id18 id19 id20 id21 id22 id23 id24 id25 id26 id27 id28 id29 id30 id31 id32 id33 id34 id35 id36 id37 id38 id39 id40 id41 id42 id43 id44 id45 id46 id47 id48 id49"/>
 </defs>
 <defs class="EmbeddedBulletChars">
  <g id="bullet-char-template-57356" transform="scale(0.00048828125,-0.00048828125)">
   <path d="M 580,1141 L 1163,571 580,0 -4,571 580,1141 Z"/>
  </g>
  <g id="bullet-char-template-57354" transform="scale(0.00048828125,-0.00048828125)">
   <path d="M 8,1128 L 1137,1128 1137,0 8,0 8,1128 Z"/>
  </g>
  <g id="bullet-char-template-10146" transform="scale(0.00048828125,-0.00048828125)">
   <path d="M 174,0 L 602,739 174,1481 1456,739 174,0 Z M 1358,739 L 309,1346 659,739 1358,739 Z"/>
  </g>
  <g id="bullet-char-template-10132" transform="scale(0.00048828125,-0.00048828125)">
   <path d="M 2015,739 L 1276,0 717,0 1260,543 174,543 174,936 1260,936 717,1481 1274,1481 2015,739 Z"/>
  </g>
  <g id="bullet-char-template-10007" transform="scale(0.00048828125,-0.00048828125)">
   <path d="M 0,-2 C -7,14 -16,27 -25,37 L 356,567 C 262,823 215,952 215,954 215,979 228,992 255,992 264,992 276,990 289,987 310,991 331,999 354,1012 L 381,999 492,748 772,1049 836,1024 860,1049 C 881,1039 901,1025 922,1006 886,937 835,863 770,784 769,783 710,716 594,584 L 774,223 C 774,196 753,168 711,139 L 727,119 C 717,90 699,76 672,76 641,76 570,178 457,381 L 164,-76 C 142,-110 111,-127 72,-127 30,-127 9,-110 8,-76 1,-67 -2,-52 -2,-32 -2,-23 -1,-13 0,-2 Z"/>
  </g>
  <g id="bullet-char-template-10004" transform="scale(0.00048828125,-0.00048828125)">
   <path d="M 285,-33 C 182,-33 111,30 74,156 52,228 41,333 41,471 41,549 55,616 82,672 116,743 169,778 240,778 293,778 328,747 346,684 L 369,508 C 377,444 397,411 428,410 L 1163,1116 C 1174,1127 1196,1133 1229,1133 1271,1133 1292,1118 1292,1087 L 1292,965 C 1292,929 1282,901 1262,881 L 442,47 C 390,-6 338,-33 285,-33 Z"/>
  </g>
  <g id="bullet-char-template-9679" transform="scale(0.00048828125,-0.00048828125)">
   <path d="M 813,0 C 632,0 489,54 383,161 276,268 223,411 223,592 223,773 276,916 383,1023 489,1130 632,1184 813,1184 992,1184 1136,1130 1245,1023 1353,916 1407,772 1407,592 1407,412 1353,268 1245,161 1136,54 992,0 813,0 Z"/>
  </g>
  <g id="bullet-char-template-8226" transform="scale(0.00048828125,-0.00048828125)">
   <path d="M 346,457 C 273,457 209,483 155,535 101,586 74,649 74,723 74,796 101,859 155,911 209,963 273,989 346,989 419,989 480,963 531,910 582,859 608,796 608,723 608,648 583,586 532,535 482,483 420,457 346,457 Z"/>
  </g>
  <g id="bullet-char-template-8211" transform="scale(0.00048828125,-0.00048828125)">
   <path d="M -4,459 L 1135,459 1135,606 -4,606 -4,459 Z"/>
  </g>
  <g id="bullet-char-template-61548" transform="scale(0.00048828125,-0.00048828125)">
   <path d="M 173,740 C 173,903 231,1043 346,1159 462,1274 601,1332 765,1332 928,1332 1067,1274 1183,1159 1299,1043 1357,903 1357,740 1357,577 1299,437 1183,322 1067,206 928,148 765,148 601,148 462,206 346,322 231,437 173,577 173,740 Z"/>
  </g>
 </defs>
 <g>
  <g id="id2" class="Master_Slide">
   <g id="bg-id2" class="Background"/>
   <g id="bo-id2" class="BackgroundObjects"/>
  </g>
 </g>
 <g class="SlideGroup">
  <g>
   <g id="container-id1">
    <g id="id1" class="Slide" clip-path="url(#presentation_clip_path)">
     <g class="Page">
      <g class="com.sun.star.drawing.CustomShape">
       <g id="id3">
        <rect class="BoundingBox" stroke="none" fill="none" x="4977" y="7536" width="251" height="1001"/>
        <path fill="rgb(190,190,190)" stroke="none" d="M 5102,8536 L 4977,8536 4977,7536 5227,7536 5227,8536 5102,8536 Z"/>
       </g>
      </g>
      <g class="com.sun.star.drawing.CustomShape">
       <g id="id4">
        <rect class="BoundingBox" stroke="none" fill="none" x="4536" y="7536" width="501" height="251"/>
        <path fill="rgb(190,190,190)" stroke="none" d="M 5036,7661 L 5036,7786 4536,7786 4536,7536 5036,7536 5036,7661 Z"/>
       </g>
      </g>
      <g class="com.sun.star.drawing.CustomShape">
       <g id="id5">
        <rect class="BoundingBox" stroke="none" fill="none" x="4286" y="4036" width="501" height="8001"/>
        <path fill="rgb(190,190,190)" stroke="none" d="M 4536,12036 L 4286,12036 4286,4036 4786,4036 4786,12036 4536,12036 Z"/>
       </g>
      </g>
      <g class="com.sun.star.drawing.CustomShape">
       <g id="id6">
        <rect class="BoundingBox" stroke="none" fill="none" x="999" y="1000" width="7073" height="7073"/>
        <path fill="rgb(255,255,255)" stroke="none" d="M 6302,6304 L 4535,8072 999,4536 4535,1000 8070,4536 6302,6304 Z"/>
       </g>
      </g>
      <g class="com.sun.star.drawing.CustomShape">
       <g id="id7">
        <rect class="BoundingBox" stroke="none" fill="none" x="1708" y="1707" width="5658" height="5659"/>
        <path fill="rgb(0,0,254)" stroke="none" d="M 5951,5950 L 4536,7364 1708,4536 4536,1708 7365,4536 5951,5950 Z"/>
       </g>
      </g>
      <g class="com.sun.star.drawing.CustomShape">
       <g id="id8">
        <rect class="BoundingBox" stroke="none" fill="none" x="4787" y="8360" width="642" height="530"/>
        <path fill="rgb(190,190,190)" stroke="none" d="M 5428,8625 L 5428,8889 4787,8889 4787,8360 5428,8360 5428,8625 Z"/>
       </g>
      </g>
      <g class="com.sun.star.drawing.CustomShape">
       <g id="id9">
        <rect class="BoundingBox" stroke="none" fill="none" x="4786" y="8544" width="644" height="643"/>
        <path fill="rgb(190,190,190)" stroke="none" d="M 5108,8544 C 5164,8544 5219,8559 5268,8587 5317,8615 5358,8656 5386,8705 5414,8753 5429,8809 5429,8865 5429,8921 5414,8977 5386,9026 5358,9074 5317,9115 5268,9143 5219,9171 5164,9186 5108,9186 5051,9186 4996,9171 4947,9143 4898,9115 4857,9074 4829,9026 4801,8977 4786,8921 4786,8865 4786,8809 4801,8753 4829,8705 4857,8656 4898,8615 4947,8587 4996,8559 5051,8544 5108,8544 L 5108,8544 Z"/>
       </g>
      </g>
      <g class="com.sun.star.drawing.CustomShape">
       <g id="id10">
        <rect class="BoundingBox" stroke="none" fill="none" x="4787" y="8038" width="644" height="643"/>
        <path fill="rgb(190,190,190)" stroke="none" d="M 5109,8038 C 5165,8038 5220,8053 5269,8081 5318,8109 5359,8150 5387,8199 5415,8247 5430,8303 5430,8359 5430,8415 5415,8471 5387,8520 5359,8568 5318,8609 5269,8637 5220,8665 5165,8680 5109,8680 5052,8680 4997,8665 4948,8637 4899,8609 4858,8568 4830,8520 4802,8471 4787,8415 4787,8359 4787,8303 4802,8247 4830,8199 4858,8150 4899,8109 4948,8081 4997,8053 5052,8038 5109,8038 L 5109,8038 Z"/>
       </g>
      </g>
      <g class="com.sun.star.drawing.CustomShape">
       <g id="id11">
        <rect class="BoundingBox" stroke="none" fill="none" x="4876" y="8120" width="459" height="458"/>
        <path fill="rgb(255,255,255)" stroke="none" d="M 5105,8121 C 5145,8121 5184,8132 5219,8151 5254,8171 5282,8200 5302,8235 5322,8269 5333,8309 5333,8349 5333,8388 5322,8428 5302,8462 5282,8497 5254,8526 5219,8546 5184,8565 5145,8576 5105,8576 5065,8576 5026,8565 4991,8546 4956,8526 4928,8497 4908,8462 4888,8428 4877,8388 4877,8349 4877,8309 4888,8269 4908,8235 4928,8200 4956,8171 4991,8151 5026,8132 5065,8121 5105,8121 L 5105,8121 Z"/>
        <path fill="none" stroke="rgb(0,0,0)" d="M 5105,8121 C 5145,8121 5184,8132 5219,8151 5254,8171 5282,8200 5302,8235 5322,8269 5333,8309 5333,8349 5333,8388 5322,8428 5302,8462 5282,8497 5254,8526 5219,8546 5184,8565 5145,8576 5105,8576 5065,8576 5026,8565 4991,8546 4956,8526 4928,8497 4908,8462 4888,8428 4877,8388 4877,8349 4877,8309 4888,8269 4908,8235 4928,8200 4956,8171 4991,8151 5026,8132 5065,8121 5105,8121 Z"/>
       </g>
      </g>
      <g class="com.sun.star.drawing.CustomShape">
       <g id="id12">
        <rect class="BoundingBox" stroke="none" fill="none" x="4880" y="8648" width="459" height="458"/>
        <path fill="rgb(255,255,255)" stroke="none" d="M 5109,8649 C 5149,8649 5188,8660 5223,8679 5258,8699 5286,8728 5306,8763 5326,8797 5337,8837 5337,8877 5337,8916 5326,8956 5306,8990 5286,9025 5258,9054 5223,9074 5188,9093 5149,9104 5109,9104 5069,9104 5030,9093 4995,9074 4960,9054 4932,9025 4912,8990 4892,8956 4881,8916 4881,8877 4881,8837 4892,8797 4912,8763 4932,8728 4960,8699 4995,8679 5030,8660 5069,8649 5109,8649 L 5109,8649 Z"/>
        <path fill="none" stroke="rgb(0,0,0)" d="M 5109,8649 C 5149,8649 5188,8660 5223,8679 5258,8699 5286,8728 5306,8763 5326,8797 5337,8837 5337,8877 5337,8916 5326,8956 5306,8990 5286,9025 5258,9054 5223,9074 5188,9093 5149,9104 5109,9104 5069,9104 5030,9093 4995,9074 4960,9054 4932,9025 4912,8990 4892,8956 4881,8916 4881,8877 4881,8837 4892,8797 4912,8763 4932,8728 4960,8699 4995,8679 5030,8660 5069,8649 5109,8649 Z"/>
       </g>
      </g>
      <g class="com.sun.star.drawing.CustomShape">
       <g id="id13">
        <rect class="BoundingBox" stroke="none" fill="none" x="12977" y="7536" width="251" height="1001"/>
        <path fill="rgb(190,190,190)" stroke="none" d="M 13102,8536 L 12977,8536 12977,7536 13227,7536 13227,8536 13102,8536 Z"/>
       </g>
      </g>
      <g class="com.sun.star.drawing.CustomShape">
       <g id="id14">
        <rect class="BoundingBox" stroke="none" fill="none" x="12536" y="7536" width="501" height="251"/>
        <path fill="rgb(190,190,190)" stroke="none" d="M 13036,7661 L 13036,7786 12536,7786 12536,7536 13036,7536 13036,7661 Z"/>
       </g>
      </g>
      <g class="com.sun.star.drawing.CustomShape">
       <g id="id15">
        <rect class="BoundingBox" stroke="none" fill="none" x="12286" y="4036" width="501" height="8001"/>
        <path fill="rgb(190,190,190)" stroke="none" d="M 12536,12036 L 12286,12036 12286,4036 12786,4036 12786,12036 12536,12036 Z"/>
       </g>
      </g>
      <g class="com.sun.star.drawing.CustomShape">
       <g id="id16">
        <rect class="BoundingBox" stroke="none" fill="none" x="9708" y="1707" width="5658" height="5659"/>
        <path fill="rgb(0,0,254)" stroke="none" d="M 13951,5950 L 12536,7364 9708,4536 12536,1708 15365,4536 13951,5950 Z"/>
       </g>
      </g>
      <g class="com.sun.star.drawing.CustomShape">
       <g id="id17">
        <rect class="BoundingBox" stroke="none" fill="none" x="12787" y="8360" width="642" height="530"/>
        <path fill="rgb(190,190,190)" stroke="none" d="M 13428,8625 L 13428,8889 12787,8889 12787,8360 13428,8360 13428,8625 Z"/>
       </g>
      </g>
      <g class="com.sun.star.drawing.CustomShape">
       <g id="id18">
        <rect class="BoundingBox" stroke="none" fill="none" x="12786" y="8544" width="644" height="643"/>
        <path fill="rgb(190,190,190)" stroke="none" d="M 13108,8544 C 13164,8544 13219,8559 13268,8587 13317,8615 13358,8656 13386,8705 13414,8753 13429,8809 13429,8865 13429,8921 13414,8977 13386,9026 13358,9074 13317,9115 13268,9143 13219,9171 13164,9186 13108,9186 13051,9186 12996,9171 12947,9143 12898,9115 12857,9074 12829,9026 12801,8977 12786,8921 12786,8865 12786,8809 12801,8753 12829,8705 12857,8656 12898,8615 12947,8587 12996,8559 13051,8544 13108,8544 L 13108,8544 Z"/>
       </g>
      </g>
      <g class="com.sun.star.drawing.CustomShape">
       <g id="id19">
        <rect class="BoundingBox" stroke="none" fill="none" x="12787" y="8038" width="644" height="643"/>
        <path fill="rgb(190,190,190)" stroke="none" d="M 13109,8038 C 13165,8038 13220,8053 13269,8081 13318,8109 13359,8150 13387,8199 13415,8247 13430,8303 13430,8359 13430,8415 13415,8471 13387,8520 13359,8568 13318,8609 13269,8637 13220,8665 13165,8680 13109,8680 13052,8680 12997,8665 12948,8637 12899,8609 12858,8568 12830,8520 12802,8471 12787,8415 12787,8359 12787,8303 12802,8247 12830,8199 12858,8150 12899,8109 12948,8081 12997,8053 13052,8038 13109,8038 L 13109,8038 Z"/>
       </g>
      </g>
      <g class="com.sun.star.drawing.CustomShape">
       <g id="id20">
        <rect class="BoundingBox" stroke="none" fill="none" x="12876" y="8120" width="459" height="458"/>
        <path fill="rgb(0,0,254)" stroke="none" d="M 13105,8121 C 13145,8121 13184,8132 13219,8151 13254,8171 13282,8200 13302,8235 13322,8269 13333,8309 13333,8349 13333,8388 13322,8428 13302,8462 13282,8497 13254,8526 13219,8546 13184,8565 13145,8576 13105,8576 13065,8576 13026,8565 12991,8546 12956,8526 12928,8497 12908,8462 12888,8428 12877,8388 12877,8349 12877,8309 12888,8269 12908,8235 12928,8200 12956,8171 12991,8151 13026,8132 13065,8121 13105,8121 L 13105,8121 Z"/>
        <path fill="none" stroke="rgb(0,0,0)" d="M 13105,8121 C 13145,8121 13184,8132 13219,8151 13254,8171 13282,8200 13302,8235 13322,8269 13333,8309 13333,8349 13333,8388 13322,8428 13302,8462 13282,8497 13254,8526 13219,8546 13184,8565 13145,8576 13105,8576 13065,8576 13026,8565 12991,8546 12956,8526 12928,8497 12908,8462 12888,8428 12877,8388 12877,8349 12877,8309 12888,8269 12908,8235 12928,8200 12956,8171 12991,8151 13026,8132 13065,8121 13105,8121 Z"/>
       </g>
      </g>
      <g class="com.sun.star.drawing.CustomShape">
       <g id="id21">
        <rect class="BoundingBox" stroke="none" fill="none" x="12880" y="8648" width="459" height="458"/>
        <path fill="rgb(255,255,255)" stroke="none" d="M 13109,8649 C 13149,8649 13188,8660 13223,8679 13258,8699 13286,8728 13306,8763 13326,8797 13337,8837 13337,8877 13337,8916 13326,8956 13306,8990 13286,9025 13258,9054 13223,9074 13188,9093 13149,9104 13109,9104 13069,9104 13030,9093 12995,9074 12960,9054 12932,9025 12912,8990 12892,8956 12881,8916 12881,8877 12881,8837 12892,8797 12912,8763 12932,8728 12960,8699 12995,8679 13030,8660 13069,8649 13109,8649 L 13109,8649 Z"/>
        <path fill="none" stroke="rgb(0,0,0)" d="M 13109,8649 C 13149,8649 13188,8660 13223,8679 13258,8699 13286,8728 13306,8763 13326,8797 13337,8837 13337,8877 13337,8916 13326,8956 13306,8990 13286,9025 13258,9054 13223,9074 13188,9093 13149,9104 13109,9104 13069,9104 13030,9093 12995,9074 12960,9054 12932,9025 12912,8990 12892,8956 12881,8916 12881,8877 12881,8837 12892,8797 12912,8763 12932,8728 12960,8699 12995,8679 13030,8660 13069,8649 13109,8649 Z"/>
       </g>
      </g>
      <g class="com.sun.star.drawing.CustomShape">
       <g id="id22">
        <rect class="BoundingBox" stroke="none" fill="none" x="12978" y="7536" width="251" height="1001"/>
        <path fill="rgb(190,190,190)" stroke="none" d="M 13103,8536 L 12978,8536 12978,7536 13228,7536 13228,8536 13103,8536 Z"/>
       </g>
      </g>
      <g class="com.sun.star.drawing.CustomShape">
       <g id="id23">
        <rect class="BoundingBox" stroke="none" fill="none" x="12537" y="7536" width="501" height="251"/>
        <path fill="rgb(190,190,190)" stroke="none" d="M 13037,7661 L 13037,7786 12537,7786 12537,7536 13037,7536 13037,7661 Z"/>
       </g>
      </g>
      <g class="com.sun.star.drawing.CustomShape">
       <g id="id24">
        <rect class="BoundingBox" stroke="none" fill="none" x="12287" y="4036" width="501" height="8001"/>
        <path fill="rgb(190,190,190)" stroke="none" d="M 12537,12036 L 12287,12036 12287,4036 12787,4036 12787,12036 12537,12036 Z"/>
       </g>
      </g>
      <g class="com.sun.star.drawing.CustomShape">
       <g id="id25">
        <rect class="BoundingBox" stroke="none" fill="none" x="8999" y="1000" width="7073" height="7073"/>
        <path fill="rgb(255,255,255)" stroke="none" d="M 14302,6304 L 12535,8072 8999,4536 12535,1000 16070,4536 14302,6304 Z"/>
       </g>
      </g>
      <g class="com.sun.star.drawing.CustomShape">
       <g id="id26">
        <rect class="BoundingBox" stroke="none" fill="none" x="9709" y="1707" width="5658" height="5659"/>
        <path fill="rgb(0,0,254)" stroke="none" d="M 13952,5950 L 12537,7364 9709,4536 12537,1708 15366,4536 13952,5950 Z"/>
       </g>
      </g>
      <g class="com.sun.star.drawing.CustomShape">
       <g id="id27">
        <rect class="BoundingBox" stroke="none" fill="none" x="12788" y="8360" width="642" height="530"/>
        <path fill="rgb(190,190,190)" stroke="none" d="M 13429,8625 L 13429,8889 12788,8889 12788,8360 13429,8360 13429,8625 Z"/>
       </g>
      </g>
      <g class="com.sun.star.drawing.CustomShape">
       <g id="id28">
        <rect class="BoundingBox" stroke="none" fill="none" x="12787" y="8544" width="644" height="643"/>
        <path fill="rgb(190,190,190)" stroke="none" d="M 13109,8544 C 13165,8544 13220,8559 13269,8587 13318,8615 13359,8656 13387,8705 13415,8753 13430,8809 13430,8865 13430,8921 13415,8977 13387,9026 13359,9074 13318,9115 13269,9143 13220,9171 13165,9186 13109,9186 13052,9186 12997,9171 12948,9143 12899,9115 12858,9074 12830,9026 12802,8977 12787,8921 12787,8865 12787,8809 12802,8753 12830,8705 12858,8656 12899,8615 12948,8587 12997,8559 13052,8544 13109,8544 L 13109,8544 Z"/>
       </g>
      </g>
      <g class="com.sun.star.drawing.CustomShape">
       <g id="id29">
        <rect class="BoundingBox" stroke="none" fill="none" x="12788" y="8038" width="644" height="643"/>
        <path fill="rgb(190,190,190)" stroke="none" d="M 13110,8038 C 13166,8038 13221,8053 13270,8081 13319,8109 13360,8150 13388,8199 13416,8247 13431,8303 13431,8359 13431,8415 13416,8471 13388,8520 13360,8568 13319,8609 13270,8637 13221,8665 13166,8680 13110,8680 13053,8680 12998,8665 12949,8637 12900,8609 12859,8568 12831,8520 12803,8471 12788,8415 12788,8359 12788,8303 12803,8247 12831,8199 12859,8150 12900,8109 12949,8081 12998,8053 13053,8038 13110,8038 L 13110,8038 Z"/>
       </g>
      </g>
      <g class="com.sun.star.drawing.CustomShape">
       <g id="id30">
        <rect class="BoundingBox" stroke="none" fill="none" x="12877" y="8120" width="459" height="458"/>
        <path fill="rgb(0,0,254)" stroke="none" d="M 13106,8121 C 13146,8121 13185,8132 13220,8151 13255,8171 13283,8200 13303,8235 13323,8269 13334,8309 13334,8349 13334,8388 13323,8428 13303,8462 13283,8497 13255,8526 13220,8546 13185,8565 13146,8576 13106,8576 13066,8576 13027,8565 12992,8546 12957,8526 12929,8497 12909,8462 12889,8428 12878,8388 12878,8349 12878,8309 12889,8269 12909,8235 12929,8200 12957,8171 12992,8151 13027,8132 13066,8121 13106,8121 L 13106,8121 Z"/>
        <path fill="none" stroke="rgb(0,0,0)" d="M 13106,8121 C 13146,8121 13185,8132 13220,8151 13255,8171 13283,8200 13303,8235 13323,8269 13334,8309 13334,8349 13334,8388 13323,8428 13303,8462 13283,8497 13255,8526 13220,8546 13185,8565 13146,8576 13106,8576 13066,8576 13027,8565 12992,8546 12957,8526 12929,8497 12909,8462 12889,8428 12878,8388 12878,8349 12878,8309 12889,8269 12909,8235 12929,8200 12957,8171 12992,8151 13027,8132 13066,8121 13106,8121 Z"/>
       </g>
      </g>
      <g class="com.sun.star.drawing.CustomShape">
       <g id="id31">
        <rect class="BoundingBox" stroke="none" fill="none" x="12881" y="8648" width="459" height="458"/>
        <path fill="rgb(255,255,255)" stroke="none" d="M 13110,8649 C 13150,8649 13189,8660 13224,8679 13259,8699 13287,8728 13307,8763 13327,8797 13338,8837 13338,8877 13338,8916 13327,8956 13307,8990 13287,9025 13259,9054 13224,9074 13189,9093 13150,9104 13110,9104 13070,9104 13031,9093 12996,9074 12961,9054 12933,9025 12913,8990 12893,8956 12882,8916 12882,8877 12882,8837 12893,8797 12913,8763 12933,8728 12961,8699 12996,8679 13031,8660 13070,8649 13110,8649 L 13110,8649 Z"/>
        <path fill="none" stroke="rgb(0,0,0)" d="M 13110,8649 C 13150,8649 13189,8660 13224,8679 13259,8699 13287,8728 13307,8763 13327,8797 13338,8837 13338,8877 13338,8916 13327,8956 13307,8990 13287,9025 13259,9054 13224,9074 13189,9093 13150,9104 13110,9104 13070,9104 13031,9093 12996,9074 12961,9054 12933,9025 12913,8990 12893,8956 12882,8916 12882,8877 12882,8837 12893,8797 12913,8763 12933,8728 12961,8699 12996,8679 13031,8660 13070,8649 13110,8649 Z"/>
       </g>
      </g>
      <g class="com.sun.star.drawing.CustomShape">
       <g id="id32">
        <rect class="BoundingBox" stroke="none" fill="none" x="20906" y="7536" width="251" height="1001"/>
        <path fill="rgb(190,190,190)" stroke="none" d="M 21031,8536 L 20906,8536 20906,7536 21156,7536 21156,8536 21031,8536 Z"/>
       </g>
      </g>
      <g class="com.sun.star.drawing.CustomShape">
       <g id="id33">
        <rect class="BoundingBox" stroke="none" fill="none" x="20465" y="7536" width="501" height="251"/>
        <path fill="rgb(190,190,190)" stroke="none" d="M 20965,7661 L 20965,7786 20465,7786 20465,7536 20965,7536 20965,7661 Z"/>
       </g>
      </g>
      <g class="com.sun.star.drawing.CustomShape">
       <g id="id34">
        <rect class="BoundingBox" stroke="none" fill="none" x="20215" y="4036" width="501" height="8001"/>
        <path fill="rgb(190,190,190)" stroke="none" d="M 20465,12036 L 20215,12036 20215,4036 20715,4036 20715,12036 20465,12036 Z"/>
       </g>
      </g>
      <g class="com.sun.star.drawing.CustomShape">
       <g id="id35">
        <rect class="BoundingBox" stroke="none" fill="none" x="20716" y="8360" width="642" height="530"/>
        <path fill="rgb(190,190,190)" stroke="none" d="M 21357,8625 L 21357,8889 20716,8889 20716,8360 21357,8360 21357,8625 Z"/>
       </g>
      </g>
      <g class="com.sun.star.drawing.CustomShape">
       <g id="id36">
        <rect class="BoundingBox" stroke="none" fill="none" x="20715" y="8544" width="644" height="643"/>
        <path fill="rgb(190,190,190)" stroke="none" d="M 21036,8544 C 21093,8544 21148,8559 21197,8587 21246,8615 21287,8656 21315,8705 21343,8753 21358,8809 21358,8865 21358,8921 21343,8977 21315,9026 21287,9074 21246,9115 21197,9143 21148,9171 21093,9186 21036,9186 20980,9186 20925,9171 20876,9143 20827,9115 20786,9074 20758,9026 20730,8977 20715,8921 20715,8865 20715,8809 20730,8753 20758,8705 20786,8656 20827,8615 20876,8587 20925,8559 20980,8544 21036,8544 L 21036,8544 Z"/>
       </g>
      </g>
      <g class="com.sun.star.drawing.CustomShape">
       <g id="id37">
        <rect class="BoundingBox" stroke="none" fill="none" x="20716" y="8038" width="644" height="643"/>
        <path fill="rgb(190,190,190)" stroke="none" d="M 21038,8038 C 21094,8038 21149,8053 21198,8081 21247,8109 21288,8150 21316,8199 21344,8247 21359,8303 21359,8359 21359,8415 21344,8471 21316,8520 21288,8568 21247,8609 21198,8637 21149,8665 21094,8680 21038,8680 20981,8680 20926,8665 20877,8637 20828,8609 20787,8568 20759,8520 20731,8471 20716,8415 20716,8359 20716,8303 20731,8247 20759,8199 20787,8150 20828,8109 20877,8081 20926,8053 20981,8038 21038,8038 L 21038,8038 Z"/>
       </g>
      </g>
      <g class="com.sun.star.drawing.CustomShape">
       <g id="id38">
        <rect class="BoundingBox" stroke="none" fill="none" x="20805" y="8120" width="459" height="458"/>
        <path fill="rgb(0,0,254)" stroke="none" d="M 21034,8121 C 21074,8121 21113,8132 21148,8151 21183,8171 21211,8200 21231,8235 21251,8269 21262,8309 21262,8349 21262,8388 21251,8428 21231,8462 21211,8497 21183,8526 21148,8546 21113,8565 21074,8576 21034,8576 20994,8576 20955,8565 20920,8546 20885,8526 20857,8497 20837,8462 20817,8428 20806,8388 20806,8349 20806,8309 20817,8269 20837,8235 20857,8200 20885,8171 20920,8151 20955,8132 20994,8121 21034,8121 L 21034,8121 Z"/>
        <path fill="none" stroke="rgb(0,0,0)" d="M 21034,8121 C 21074,8121 21113,8132 21148,8151 21183,8171 21211,8200 21231,8235 21251,8269 21262,8309 21262,8349 21262,8388 21251,8428 21231,8462 21211,8497 21183,8526 21148,8546 21113,8565 21074,8576 21034,8576 20994,8576 20955,8565 20920,8546 20885,8526 20857,8497 20837,8462 20817,8428 20806,8388 20806,8349 20806,8309 20817,8269 20837,8235 20857,8200 20885,8171 20920,8151 20955,8132 20994,8121 21034,8121 Z"/>
       </g>
      </g>
      <g class="com.sun.star.drawing.CustomShape">
       <g id="id39">
        <rect class="BoundingBox" stroke="none" fill="none" x="20809" y="8648" width="459" height="458"/>
        <path fill="rgb(255,255,255)" stroke="none" d="M 21038,8649 C 21078,8649 21117,8660 21152,8679 21187,8699 21215,8728 21235,8763 21255,8797 21266,8837 21266,8877 21266,8916 21255,8956 21235,8990 21215,9025 21187,9054 21152,9074 21117,9093 21078,9104 21038,9104 20998,9104 20959,9093 20924,9074 20889,9054 20861,9025 20841,8990 20821,8956 20810,8916 20810,8877 20810,8837 20821,8797 20841,8763 20861,8728 20889,8699 20924,8679 20959,8660 20998,8649 21038,8649 L 21038,8649 Z"/>
        <path fill="none" stroke="rgb(0,0,0)" d="M 21038,8649 C 21078,8649 21117,8660 21152,8679 21187,8699 21215,8728 21235,8763 21255,8797 21266,8837 21266,8877 21266,8916 21255,8956 21235,8990 21215,9025 21187,9054 21152,9074 21117,9093 21078,9104 21038,9104 20998,9104 20959,9093 20924,9074 20889,9054 20861,9025 20841,8990 20821,8956 20810,8916 20810,8877 20810,8837 20821,8797 20841,8763 20861,8728 20889,8699 20924,8679 20959,8660 20998,8649 21038,8649 Z"/>
       </g>
      </g>
      <g class="com.sun.star.drawing.CustomShape">
       <g id="id40">
        <rect class="BoundingBox" stroke="none" fill="none" x="20907" y="7536" width="251" height="1001"/>
        <path fill="rgb(190,190,190)" stroke="none" d="M 21032,8536 L 20907,8536 20907,7536 21157,7536 21157,8536 21032,8536 Z"/>
       </g>
      </g>
      <g class="com.sun.star.drawing.CustomShape">
       <g id="id41">
        <rect class="BoundingBox" stroke="none" fill="none" x="20466" y="7536" width="501" height="251"/>
        <path fill="rgb(190,190,190)" stroke="none" d="M 20966,7661 L 20966,7786 20466,7786 20466,7536 20966,7536 20966,7661 Z"/>
       </g>
      </g>
      <g class="com.sun.star.drawing.CustomShape">
       <g id="id42">
        <rect class="BoundingBox" stroke="none" fill="none" x="20216" y="4036" width="501" height="8001"/>
        <path fill="rgb(190,190,190)" stroke="none" d="M 20466,12036 L 20216,12036 20216,4036 20716,4036 20716,12036 20466,12036 Z"/>
       </g>
      </g>
      <g class="com.sun.star.drawing.CustomShape">
       <g id="id43">
        <rect class="BoundingBox" stroke="none" fill="none" x="20717" y="8360" width="642" height="530"/>
        <path fill="rgb(190,190,190)" stroke="none" d="M 21358,8625 L 21358,8889 20717,8889 20717,8360 21358,8360 21358,8625 Z"/>
       </g>
      </g>
      <g class="com.sun.star.drawing.CustomShape">
       <g id="id44">
        <rect class="BoundingBox" stroke="none" fill="none" x="20716" y="8544" width="644" height="643"/>
        <path fill="rgb(190,190,190)" stroke="none" d="M 21038,8544 C 21094,8544 21149,8559 21198,8587 21247,8615 21288,8656 21316,8705 21344,8753 21359,8809 21359,8865 21359,8921 21344,8977 21316,9026 21288,9074 21247,9115 21198,9143 21149,9171 21094,9186 21038,9186 20981,9186 20926,9171 20877,9143 20828,9115 20787,9074 20759,9026 20731,8977 20716,8921 20716,8865 20716,8809 20731,8753 20759,8705 20787,8656 20828,8615 20877,8587 20926,8559 20981,8544 21038,8544 L 21038,8544 Z"/>
       </g>
      </g>
      <g class="com.sun.star.drawing.CustomShape">
       <g id="id45">
        <rect class="BoundingBox" stroke="none" fill="none" x="20717" y="8038" width="644" height="643"/>
        <path fill="rgb(190,190,190)" stroke="none" d="M 21038,8038 C 21095,8038 21150,8053 21199,8081 21248,8109 21289,8150 21317,8199 21345,8247 21360,8303 21360,8359 21360,8415 21345,8471 21317,8520 21289,8568 21248,8609 21199,8637 21150,8665 21095,8680 21038,8680 20982,8680 20927,8665 20878,8637 20829,8609 20788,8568 20760,8520 20732,8471 20717,8415 20717,8359 20717,8303 20732,8247 20760,8199 20788,8150 20829,8109 20878,8081 20927,8053 20982,8038 21038,8038 L 21038,8038 Z"/>
       </g>
      </g>
      <g class="com.sun.star.drawing.CustomShape">
       <g id="id46">
        <rect class="BoundingBox" stroke="none" fill="none" x="20806" y="8120" width="459" height="458"/>
        <path fill="rgb(255,255,255)" stroke="none" d="M 21035,8121 C 21075,8121 21114,8132 21149,8151 21184,8171 21212,8200 21232,8235 21252,8269 21263,8309 21263,8349 21263,8388 21252,8428 21232,8462 21212,8497 21184,8526 21149,8546 21114,8565 21075,8576 21035,8576 20995,8576 20956,8565 20921,8546 20886,8526 20858,8497 20838,8462 20818,8428 20807,8388 20807,8349 20807,8309 20818,8269 20838,8235 20858,8200 20886,8171 20921,8151 20956,8132 20995,8121 21035,8121 L 21035,8121 Z"/>
        <path fill="none" stroke="rgb(0,0,0)" d="M 21035,8121 C 21075,8121 21114,8132 21149,8151 21184,8171 21212,8200 21232,8235 21252,8269 21263,8309 21263,8349 21263,8388 21252,8428 21232,8462 21212,8497 21184,8526 21149,8546 21114,8565 21075,8576 21035,8576 20995,8576 20956,8565 20921,8546 20886,8526 20858,8497 20838,8462 20818,8428 20807,8388 20807,8349 20807,8309 20818,8269 20838,8235 20858,8200 20886,8171 20921,8151 20956,8132 20995,8121 21035,8121 Z"/>
       </g>
      </g>
      <g class="com.sun.star.drawing.CustomShape">
       <g id="id47">
        <rect class="BoundingBox" stroke="none" fill="none" x="20810" y="8648" width="459" height="458"/>
        <path fill="rgb(238,238,238)" stroke="none" d="M 21039,8649 C 21079,8649 21118,8660 21153,8679 21188,8699 21216,8728 21236,8763 21256,8797 21267,8837 21267,8877 21267,8916 21256,8956 21236,8990 21216,9025 21188,9054 21153,9074 21118,9093 21079,9104 21039,9104 20999,9104 20960,9093 20925,9074 20890,9054 20862,9025 20842,8990 20822,8956 20811,8916 20811,8877 20811,8837 20822,8797 20842,8763 20862,8728 20890,8699 20925,8679 20960,8660 20999,8649 21039,8649 L 21039,8649 Z"/>
        <path fill="none" stroke="rgb(0,0,0)" d="M 21039,8649 C 21079,8649 21118,8660 21153,8679 21188,8699 21216,8728 21236,8763 21256,8797 21267,8837 21267,8877 21267,8916 21256,8956 21236,8990 21216,9025 21188,9054 21153,9074 21118,9093 21079,9104 21039,9104 20999,9104 20960,9093 20925,9074 20890,9054 20862,9025 20842,8990 20822,8956 20811,8916 20811,8877 20811,8837 20822,8797 20842,8763 20862,8728 20890,8699 20925,8679 20960,8660 20999,8649 21039,8649 Z"/>
       </g>
      </g>
      <g class="Group">
       <g class="com.sun.star.drawing.ClosedBezierShape">
        <g id="id48">
         <rect class="BoundingBox" stroke="none" fill="none" x="16962" y="3000" width="7073" height="3001"/>
         <path fill="rgb(255,255,255)" stroke="none" d="M 20511,6000 C 19328,5500 18146,5000 16963,4500 18138,4000 19313,3500 20487,3000 21670,3500 22852,4000 24034,4500 22860,5000 21685,5500 20511,6000 Z"/>
        </g>
       </g>
       <g class="com.sun.star.drawing.ClosedBezierShape">
        <g id="id49">
         <rect class="BoundingBox" stroke="none" fill="none" x="17671" y="3300" width="5659" height="2401"/>
         <path fill="rgb(0,0,254)" stroke="none" d="M 20509,5700 C 19564,5300 18618,4900 17672,4500 18612,4100 19551,3700 20491,3300 21437,3700 22383,4100 23329,4500 22389,4900 21449,5300 20509,5700 Z"/>
        </g>
       </g>
      </g>
     </g>
    </g>
   </g>
  </g>
 </g>
</svg>