<?xml version="1.0" encoding="UTF-8"?>
<!DOCTYPE svg PUBLIC "-//W3C//DTD SVG 1.1//EN" "http://www.w3.org/Graphics/SVG/1.1/DTD/svg11.dtd">
<svg version="1.2" width="75mm" height="110mm" viewBox="0 0 7500 11000" preserveAspectRatio="xMidYMid" fill-rule="evenodd" stroke-width="28.222" stroke-linejoin="round" xmlns="http://www.w3.org/2000/svg" xmlns:ooo="http://xml.openoffice.org/svg/export" xmlns:xlink="http://www.w3.org/1999/xlink" xmlns:presentation="http://sun.com/xmlns/staroffice/presentation" xmlns:smil="http://www.w3.org/2001/SMIL20/" xmlns:anim="urn:oasis:names:tc:opendocument:xmlns:animation:1.0" xmlns:svg="urn:oasis:names:tc:opendocument:xmlns:svg-compatible:1.0" xml:space="preserve">
 <defs class="ClipPathGroup">
  <clipPath id="presentation_clip_path" clipPathUnits="userSpaceOnUse">
   <rect x="0" y="0" width="7500" height="11000"/>
  </clipPath>
  <clipPath id="presentation_clip_path_shrink" clipPathUnits="userSpaceOnUse">
   <rect x="7" y="11" width="7485" height="10978"/>
  </clipPath>
 </defs>
 <defs class="TextShapeIndex">
  <g ooo:slide="id1" ooo:id-list="id3 id4 id5 id6 id7 id8 id9 id10 id11 id12 id13 id14 id15 id16 id17 id18 id19 id20"/>
 </defs>
 <defs class="EmbeddedBulletChars">
  <g id="bullet-char-template-57356" transform="scale(0.00048828125,-0.00048828125)">
   <path d="M 580,1141 L 1163,571 580,0 -4,571 580,1141 Z"/>
  </g>
  <g id="bullet-char-template-57354" transform="scale(0.00048828125,-0.00048828125)">
   <path d="M 8,1128 L 1137,1128 1137,0 8,0 8,1128 Z"/>
  </g>
  <g id="bullet-char-template-10146" transform="scale(0.00048828125,-0.00048828125)">
   <path d="M 174,0 L 602,739 174,1481 1456,739 174,0 Z M 1358,739 L 309,1346 659,739 1358,739 Z"/>
  </g>
  <g id="bullet-char-template-10132" transform="scale(0.00048828125,-0.00048828125)">
   <path d="M 2015,739 L 1276,0 717,0 1260,543 174,543 174,936 1260,936 717,1481 1274,1481 2015,739 Z"/>
  </g>
  <g id="bullet-char-template-10007" transform="scale(0.00048828125,-0.00048828125)">
   <path d="M 0,-2 C -7,14 -16,27 -25,37 L 356,567 C 262,823 215,952 215,954 215,979 228,992 255,992 264,992 276,990 289,987 310,991 331,999 354,1012 L 381,999 492,748 772,1049 836,1024 860,1049 C 881,1039 901,1025 922,1006 886,937 835,863 770,784 769,783 710,716 594,584 L 774,223 C 774,196 753,168 711,139 L 727,119 C 717,90 699,76 672,76 641,76 570,178 457,381 L 164,-76 C 142,-110 111,-127 72,-127 30,-127 9,-110 8,-76 1,-67 -2,-52 -2,-32 -2,-23 -1,-13 0,-2 Z"/>
  </g>
  <g id="bullet-char-template-10004" transform="scale(0.00048828125,-0.00048828125)">
   <path d="M 285,-33 C 182,-33 111,30 74,156 52,228 41,333 41,471 41,549 55,616 82,672 116,743 169,778 240,778 293,778 328,747 346,684 L 369,508 C 377,444 397,411 428,410 L 1163,1116 C 1174,1127 1196,1133 1229,1133 1271,1133 1292,1118 1292,1087 L 1292,965 C 1292,929 1282,901 1262,881 L 442,47 C 390,-6 338,-33 285,-33 Z"/>
  </g>
  <g id="bullet-char-template-9679" transform="scale(0.00048828125,-0.00048828125)">
   <path d="M 813,0 C 632,0 489,54 383,161 276,268 223,411 223,592 223,773 276,916 383,1023 489,1130 632,1184 813,1184 992,1184 1136,1130 1245,1023 1353,916 1407,772 1407,592 1407,412 1353,268 1245,161 1136,54 992,0 813,0 Z"/>
  </g>
  <g id="bullet-char-template-8226" transform="scale(0.00048828125,-0.00048828125)">
   <path d="M 346,457 C 273,457 209,483 155,535 101,586 74,649 74,723 74,796 101,859 155,911 209,963 273,989 346,989 419,989 480,963 531,910 582,859 608,796 608,723 608,648 583,586 532,535 482,483 420,457 346,457 Z"/>
  </g>
  <g id="bullet-char-template-8211" transform="scale(0.00048828125,-0.00048828125)">
   <path d="M -4,459 L 1135,459 1135,606 -4,606 -4,459 Z"/>
  </g>
  <g id="bullet-char-template-61548" transform="scale(0.00048828125,-0.00048828125)">
   <path d="M 173,740 C 173,903 231,1043 346,1159 462,1274 601,1332 765,1332 928,1332 1067,1274 1183,1159 1299,1043 1357,903 1357,740 1357,577 1299,437 1183,322 1067,206 928,148 765,148 601,148 462,206 346,322 231,437 173,577 173,740 Z"/>
  </g>
 </defs>
 <g>
  <g id="id2" class="Master_Slide">
   <g id="bg-id2" class="Background"/>
   <g id="bo-id2" class="BackgroundObjects"/>
  </g>
 </g>
 <g class="SlideGroup">
  <g>
   <g id="container-id1">
    <g id="id1" class="Slide" clip-path="url(#presentation_clip_path)">
     <g class="Page">
      <g class="Group">
       <g class="com.sun.star.drawing.CustomShape">
        <g id="id3">
         <rect class="BoundingBox" stroke="none" fill="none" x="4193" y="6500" width="251" height="1001"/>
         <path fill="rgb(190,190,190)" stroke="none" d="M 4318,7500 L 4193,7500 4193,6500 4443,6500 4443,7500 4318,7500 Z"/>
        </g>
       </g>
       <g class="com.sun.star.drawing.CustomShape">
        <g id="id4">
         <rect class="BoundingBox" stroke="none" fill="none" x="3752" y="6500" width="501" height="251"/>
         <path fill="rgb(190,190,190)" stroke="none" d="M 4252,6625 L 4252,6750 3752,6750 3752,6500 4252,6500 4252,6625 Z"/>
        </g>
       </g>
       <g class="com.sun.star.drawing.CustomShape">
        <g id="id5">
         <rect class="BoundingBox" stroke="none" fill="none" x="3502" y="3000" width="501" height="8001"/>
         <path fill="rgb(190,190,190)" stroke="none" d="M 3752,11000 L 3502,11000 3502,3000 4002,3000 4002,11000 3752,11000 Z"/>
        </g>
       </g>
       <g class="com.sun.star.drawing.CustomShape">
        <g id="id6">
         <rect class="BoundingBox" stroke="none" fill="none" x="4003" y="7324" width="642" height="530"/>
         <path fill="rgb(190,190,190)" stroke="none" d="M 4644,7589 L 4644,7853 4003,7853 4003,7324 4644,7324 4644,7589 Z"/>
        </g>
       </g>
       <g class="com.sun.star.drawing.CustomShape">
        <g id="id7">
         <rect class="BoundingBox" stroke="none" fill="none" x="4002" y="7508" width="644" height="643"/>
         <path fill="rgb(190,190,190)" stroke="none" d="M 4324,7508 C 4380,7508 4435,7523 4484,7551 4533,7579 4574,7620 4602,7669 4630,7717 4645,7773 4645,7829 4645,7885 4630,7941 4602,7990 4574,8038 4533,8079 4484,8107 4435,8135 4380,8150 4324,8150 4267,8150 4212,8135 4163,8107 4114,8079 4073,8038 4045,7990 4017,7941 4002,7885 4002,7829 4002,7773 4017,7717 4045,7669 4073,7620 4114,7579 4163,7551 4212,7523 4267,7508 4324,7508 L 4324,7508 Z"/>
        </g>
       </g>
       <g class="com.sun.star.drawing.CustomShape">
        <g id="id8">
         <rect class="BoundingBox" stroke="none" fill="none" x="4003" y="7002" width="644" height="643"/>
         <path fill="rgb(190,190,190)" stroke="none" d="M 4325,7002 C 4381,7002 4436,7017 4485,7045 4534,7073 4575,7114 4603,7163 4631,7211 4646,7267 4646,7323 4646,7379 4631,7435 4603,7484 4575,7532 4534,7573 4485,7601 4436,7629 4381,7644 4325,7644 4268,7644 4213,7629 4164,7601 4115,7573 4074,7532 4046,7484 4018,7435 4003,7379 4003,7323 4003,7267 4018,7211 4046,7163 4074,7114 4115,7073 4164,7045 4213,7017 4268,7002 4325,7002 L 4325,7002 Z"/>
        </g>
       </g>
       <g class="com.sun.star.drawing.CustomShape">
        <g id="id9">
         <rect class="BoundingBox" stroke="none" fill="none" x="4092" y="7084" width="459" height="458"/>
         <path fill="rgb(0,0,254)" stroke="none" d="M 4321,7085 C 4361,7085 4400,7096 4435,7115 4470,7135 4498,7164 4518,7199 4538,7233 4549,7273 4549,7313 4549,7352 4538,7392 4518,7426 4498,7461 4470,7490 4435,7510 4400,7529 4361,7540 4321,7540 4281,7540 4242,7529 4207,7510 4172,7490 4144,7461 4124,7426 4104,7392 4093,7352 4093,7313 4093,7273 4104,7233 4124,7199 4144,7164 4172,7135 4207,7115 4242,7096 4281,7085 4321,7085 L 4321,7085 Z"/>
         <path fill="none" stroke="rgb(0,0,0)" d="M 4321,7085 C 4361,7085 4400,7096 4435,7115 4470,7135 4498,7164 4518,7199 4538,7233 4549,7273 4549,7313 4549,7352 4538,7392 4518,7426 4498,7461 4470,7490 4435,7510 4400,7529 4361,7540 4321,7540 4281,7540 4242,7529 4207,7510 4172,7490 4144,7461 4124,7426 4104,7392 4093,7352 4093,7313 4093,7273 4104,7233 4124,7199 4144,7164 4172,7135 4207,7115 4242,7096 4281,7085 4321,7085 Z"/>
        </g>
       </g>
       <g class="com.sun.star.drawing.CustomShape">
        <g id="id10">
         <rect class="BoundingBox" stroke="none" fill="none" x="4096" y="7612" width="459" height="458"/>
         <path fill="rgb(255,255,255)" stroke="none" d="M 4325,7613 C 4365,7613 4404,7624 4439,7643 4474,7663 4502,7692 4522,7727 4542,7761 4553,7801 4553,7841 4553,7880 4542,7920 4522,7954 4502,7989 4474,8018 4439,8038 4404,8057 4365,8068 4325,8068 4285,8068 4246,8057 4211,8038 4176,8018 4148,7989 4128,7954 4108,7920 4097,7880 4097,7841 4097,7801 4108,7761 4128,7727 4148,7692 4176,7663 4211,7643 4246,7624 4285,7613 4325,7613 L 4325,7613 Z"/>
         <path fill="none" stroke="rgb(0,0,0)" d="M 4325,7613 C 4365,7613 4404,7624 4439,7643 4474,7663 4502,7692 4522,7727 4542,7761 4553,7801 4553,7841 4553,7880 4542,7920 4522,7954 4502,7989 4474,8018 4439,8038 4404,8057 4365,8068 4325,8068 4285,8068 4246,8057 4211,8038 4176,8018 4148,7989 4128,7954 4108,7920 4097,7880 4097,7841 4097,7801 4108,7761 4128,7727 4148,7692 4176,7663 4211,7643 4246,7624 4285,7613 4325,7613 Z"/>
        </g>
       </g>
       <g class="com.sun.star.drawing.CustomShape">
        <g id="id11">
         <rect class="BoundingBox" stroke="none" fill="none" x="4194" y="6500" width="251" height="1001"/>
         <path fill="rgb(190,190,190)" stroke="none" d="M 4319,7500 L 4194,7500 4194,6500 4444,6500 4444,7500 4319,7500 Z"/>
        </g>
       </g>
       <g class="com.sun.star.drawing.CustomShape">
        <g id="id12">
         <rect class="BoundingBox" stroke="none" fill="none" x="3753" y="6500" width="501" height="251"/>
         <path fill="rgb(190,190,190)" stroke="none" d="M 4253,6625 L 4253,6750 3753,6750 3753,6500 4253,6500 4253,6625 Z"/>
        </g>
       </g>
       <g class="com.sun.star.drawing.CustomShape">
        <g id="id13">
         <rect class="BoundingBox" stroke="none" fill="none" x="3503" y="3000" width="501" height="8001"/>
         <path fill="rgb(190,190,190)" stroke="none" d="M 3753,11000 L 3503,11000 3503,3000 4003,3000 4003,11000 3753,11000 Z"/>
        </g>
       </g>
       <g class="com.sun.star.drawing.CustomShape">
        <g id="id14">
         <rect class="BoundingBox" stroke="none" fill="none" x="4004" y="7324" width="642" height="530"/>
         <path fill="rgb(190,190,190)" stroke="none" d="M 4645,7589 L 4645,7853 4004,7853 4004,7324 4645,7324 4645,7589 Z"/>
        </g>
       </g>
       <g class="com.sun.star.drawing.CustomShape">
        <g id="id15">
         <rect class="BoundingBox" stroke="none" fill="none" x="4003" y="7508" width="644" height="643"/>
         <path fill="rgb(190,190,190)" stroke="none" d="M 4325,7508 C 4381,7508 4436,7523 4485,7551 4534,7579 4575,7620 4603,7669 4631,7717 4646,7773 4646,7829 4646,7885 4631,7941 4603,7990 4575,8038 4534,8079 4485,8107 4436,8135 4381,8150 4325,8150 4268,8150 4213,8135 4164,8107 4115,8079 4074,8038 4046,7990 4018,7941 4003,7885 4003,7829 4003,7773 4018,7717 4046,7669 4074,7620 4115,7579 4164,7551 4213,7523 4268,7508 4325,7508 L 4325,7508 Z"/>
        </g>
       </g>
       <g class="com.sun.star.drawing.CustomShape">
        <g id="id16">
         <rect class="BoundingBox" stroke="none" fill="none" x="4004" y="7002" width="644" height="643"/>
         <path fill="rgb(190,190,190)" stroke="none" d="M 4326,7002 C 4382,7002 4437,7017 4486,7045 4535,7073 4576,7114 4604,7163 4632,7211 4647,7267 4647,7323 4647,7379 4632,7435 4604,7484 4576,7532 4535,7573 4486,7601 4437,7629 4382,7644 4326,7644 4269,7644 4214,7629 4165,7601 4116,7573 4075,7532 4047,7484 4019,7435 4004,7379 4004,7323 4004,7267 4019,7211 4047,7163 4075,7114 4116,7073 4165,7045 4214,7017 4269,7002 4326,7002 L 4326,7002 Z"/>
        </g>
       </g>
       <g class="com.sun.star.drawing.CustomShape">
        <g id="id17">
         <rect class="BoundingBox" stroke="none" fill="none" x="4093" y="7084" width="459" height="458"/>
         <path fill="rgb(255,255,255)" stroke="none" d="M 4322,7085 C 4362,7085 4401,7096 4436,7115 4471,7135 4499,7164 4519,7199 4539,7233 4550,7273 4550,7313 4550,7352 4539,7392 4519,7426 4499,7461 4471,7490 4436,7510 4401,7529 4362,7540 4322,7540 4282,7540 4243,7529 4208,7510 4173,7490 4145,7461 4125,7426 4105,7392 4094,7352 4094,7313 4094,7273 4105,7233 4125,7199 4145,7164 4173,7135 4208,7115 4243,7096 4282,7085 4322,7085 L 4322,7085 Z"/>
         <path fill="none" stroke="rgb(0,0,0)" d="M 4322,7085 C 4362,7085 4401,7096 4436,7115 4471,7135 4499,7164 4519,7199 4539,7233 4550,7273 4550,7313 4550,7352 4539,7392 4519,7426 4499,7461 4471,7490 4436,7510 4401,7529 4362,7540 4322,7540 4282,7540 4243,7529 4208,7510 4173,7490 4145,7461 4125,7426 4105,7392 4094,7352 4094,7313 4094,7273 4105,7233 4125,7199 4145,7164 4173,7135 4208,7115 4243,7096 4282,7085 4322,7085 Z"/>
        </g>
       </g>
       <g class="com.sun.star.drawing.CustomShape">
        <g id="id18">
         <rect class="BoundingBox" stroke="none" fill="none" x="4097" y="7612" width="459" height="458"/>
         <path fill="rgb(238,238,238)" stroke="none" d="M 4326,7613 C 4366,7613 4405,7624 4440,7643 4475,7663 4503,7692 4523,7727 4543,7761 4554,7801 4554,7841 4554,7880 4543,7920 4523,7954 4503,7989 4475,8018 4440,8038 4405,8057 4366,8068 4326,8068 4286,8068 4247,8057 4212,8038 4177,8018 4149,7989 4129,7954 4109,7920 4098,7880 4098,7841 4098,7801 4109,7761 4129,7727 4149,7692 4177,7663 4212,7643 4247,7624 4286,7613 4326,7613 L 4326,7613 Z"/>
         <path fill="none" stroke="rgb(0,0,0)" d="M 4326,7613 C 4366,7613 4405,7624 4440,7643 4475,7663 4503,7692 4523,7727 4543,7761 4554,7801 4554,7841 4554,7880 4543,7920 4523,7954 4503,7989 4475,8018 4440,8038 4405,8057 4366,8068 4326,8068 4286,8068 4247,8057 4212,8038 4177,8018 4149,7989 4129,7954 4109,7920 4098,7880 4098,7841 4098,7801 4109,7761 4129,7727 4149,7692 4177,7663 4212,7643 4247,7624 4286,7613 4326,7613 Z"/>
        </g>
       </g>
       <g class="Group">
        <g class="com.sun.star.drawing.ClosedBezierShape">
         <g id="id19">
          <rect class="BoundingBox" stroke="none" fill="none" x="249" y="1964" width="7073" height="3001"/>
          <path fill="rgb(255,255,255)" stroke="none" d="M 3798,4964 C 2615,4464 1433,3964 250,3464 1425,2964 2600,2464 3774,1964 4957,2464 6139,2964 7321,3464 6147,3964 4972,4464 3798,4964 Z"/>
         </g>
        </g>
        <g class="com.sun.star.drawing.ClosedBezierShape">
         <g id="id20">
          <rect class="BoundingBox" stroke="none" fill="none" x="958" y="2264" width="5659" height="2401"/>
          <path fill="rgb(0,0,254)" stroke="none" d="M 3796,4664 C 2851,4264 1905,3864 959,3464 1899,3064 2838,2664 3778,2264 4724,2664 5670,3064 6616,3464 5676,3864 4736,4264 3796,4664 Z"/>
         </g>
        </g>
       </g>
      </g>
     </g>
    </g>
   </g>
  </g>
 </g>
</svg>