<?xml version="1.0" encoding="UTF-8"?>
<!DOCTYPE svg PUBLIC "-//W3C//DTD SVG 1.1//EN" "http://www.w3.org/Graphics/SVG/1.1/DTD/svg11.dtd">
<svg version="1.2" width="75mm" height="110mm" viewBox="0 0 7500 11000" preserveAspectRatio="xMidYMid" fill-rule="evenodd" stroke-width="28.222" stroke-linejoin="round" xmlns="http://www.w3.org/2000/svg" xmlns:ooo="http://xml.openoffice.org/svg/export" xmlns:xlink="http://www.w3.org/1999/xlink" xmlns:presentation="http://sun.com/xmlns/staroffice/presentation" xmlns:smil="http://www.w3.org/2001/SMIL20/" xmlns:anim="urn:oasis:names:tc:opendocument:xmlns:animation:1.0" xmlns:svg="urn:oasis:names:tc:opendocument:xmlns:svg-compatible:1.0" xml:space="preserve">
 <defs class="ClipPathGroup">
  <clipPath id="presentation_clip_path" clipPathUnits="userSpaceOnUse">
   <rect x="0" y="0" width="7500" height="11000"/>
  </clipPath>
  <clipPath id="presentation_clip_path_shrink" clipPathUnits="userSpaceOnUse">
   <rect x="7" y="11" width="7485" height="10978"/>
  </clipPath>
 </defs>
 <defs class="TextShapeIndex">
  <g ooo:slide="id1" ooo:id-list="id3 id4 id5 id6 id7 id8 id9 id10 id11 id12"/>
 </defs>
 <defs class="EmbeddedBulletChars">
  <g id="bullet-char-template-57356" transform="scale(0.00048828125,-0.00048828125)">
   <path d="M 580,1141 L 1163,571 580,0 -4,571 580,1141 Z"/>
  </g>
  <g id="bullet-char-template-57354" transform="scale(0.00048828125,-0.00048828125)">
   <path d="M 8,1128 L 1137,1128 1137,0 8,0 8,1128 Z"/>
  </g>
  <g id="bullet-char-template-10146" transform="scale(0.00048828125,-0.00048828125)">
   <path d="M 174,0 L 602,739 174,1481 1456,739 174,0 Z M 1358,739 L 309,1346 659,739 1358,739 Z"/>
  </g>
  <g id="bullet-char-template-10132" transform="scale(0.00048828125,-0.00048828125)">
   <path d="M 2015,739 L 1276,0 717,0 1260,543 174,543 174,936 1260,936 717,1481 1274,1481 2015,739 Z"/>
  </g>
  <g id="bullet-char-template-10007" transform="scale(0.00048828125,-0.00048828125)">
   <path d="M 0,-2 C -7,14 -16,27 -25,37 L 356,567 C 262,823 215,952 215,954 215,979 228,992 255,992 264,992 276,990 289,987 310,991 331,999 354,1012 L 381,999 492,748 772,1049 836,1024 860,1049 C 881,1039 901,1025 922,1006 886,937 835,863 770,784 769,783 710,716 594,584 L 774,223 C 774,196 753,168 711,139 L 727,119 C 717,90 699,76 672,76 641,76 570,178 457,381 L 164,-76 C 142,-110 111,-127 72,-127 30,-127 9,-110 8,-76 1,-67 -2,-52 -2,-32 -2,-23 -1,-13 0,-2 Z"/>
  </g>
  <g id="bullet-char-template-10004" transform="scale(0.00048828125,-0.00048828125)">
   <path d="M 285,-33 C 182,-33 111,30 74,156 52,228 41,333 41,471 41,549 55,616 82,672 116,743 169,778 240,778 293,778 328,747 346,684 L 369,508 C 377,444 397,411 428,410 L 1163,1116 C 1174,1127 1196,1133 1229,1133 1271,1133 1292,1118 1292,1087 L 1292,965 C 1292,929 1282,901 1262,881 L 442,47 C 390,-6 338,-33 285,-33 Z"/>
  </g>
  <g id="bullet-char-template-9679" transform="scale(0.00048828125,-0.00048828125)">
   <path d="M 813,0 C 632,0 489,54 383,161 276,268 223,411 223,592 223,773 276,916 383,1023 489,1130 632,1184 813,1184 992,1184 1136,1130 1245,1023 1353,916 1407,772 1407,592 1407,412 1353,268 1245,161 1136,54 992,0 813,0 Z"/>
  </g>
  <g id="bullet-char-template-8226" transform="scale(0.00048828125,-0.00048828125)">
   <path d="M 346,457 C 273,457 209,483 155,535 101,586 74,649 74,723 74,796 101,859 155,911 209,963 273,989 346,989 419,989 480,963 531,910 582,859 608,796 608,723 608,648 583,586 532,535 482,483 420,457 346,457 Z"/>
  </g>
  <g id="bullet-char-template-8211" transform="scale(0.00048828125,-0.00048828125)">
   <path d="M -4,459 L 1135,459 1135,606 -4,606 -4,459 Z"/>
  </g>
  <g id="bullet-char-template-61548" transform="scale(0.00048828125,-0.00048828125)">
   <path d="M 173,740 C 173,903 231,1043 346,1159 462,1274 601,1332 765,1332 928,1332 1067,1274 1183,1159 1299,1043 1357,903 1357,740 1357,577 1299,437 1183,322 1067,206 928,148 765,148 601,148 462,206 346,322 231,437 173,577 173,740 Z"/>
  </g>
 </defs>
 <g>
  <g id="id2" class="Master_Slide">
   <g id="bg-id2" class="Background"/>
   <g id="bo-id2" class="BackgroundObjects"/>
  </g>
 </g>
 <g class="SlideGroup">
  <g>
   <g id="container-id1">
    <g id="id1" class="Slide" clip-path="url(#presentation_clip_path)">
     <g class="Page">
      <g class="com.sun.star.drawing.CustomShape">
       <g id="id3">
        <rect class="BoundingBox" stroke="none" fill="none" x="4227" y="6536" width="251" height="1001"/>
        <path fill="rgb(190,190,190)" stroke="none" d="M 4352,7536 L 4227,7536 4227,6536 4477,6536 4477,7536 4352,7536 Z"/>
       </g>
      </g>
      <g class="com.sun.star.drawing.CustomShape">
       <g id="id4">
        <rect class="BoundingBox" stroke="none" fill="none" x="3786" y="6536" width="501" height="251"/>
        <path fill="rgb(190,190,190)" stroke="none" d="M 4286,6661 L 4286,6786 3786,6786 3786,6536 4286,6536 4286,6661 Z"/>
       </g>
      </g>
      <g class="com.sun.star.drawing.CustomShape">
       <g id="id5">
        <rect class="BoundingBox" stroke="none" fill="none" x="3536" y="3036" width="501" height="8001"/>
        <path fill="rgb(190,190,190)" stroke="none" d="M 3786,11036 L 3536,11036 3536,3036 4036,3036 4036,11036 3786,11036 Z"/>
       </g>
      </g>
      <g class="com.sun.star.drawing.CustomShape">
       <g id="id6">
        <rect class="BoundingBox" stroke="none" fill="none" x="249" y="0" width="7073" height="7073"/>
        <path fill="rgb(255,255,255)" stroke="none" d="M 5552,5304 L 3785,7072 249,3536 3785,0 7320,3536 5552,5304 Z"/>
       </g>
      </g>
      <g class="com.sun.star.drawing.CustomShape">
       <g id="id7">
        <rect class="BoundingBox" stroke="none" fill="none" x="958" y="707" width="5658" height="5659"/>
        <path fill="rgb(0,0,254)" stroke="none" d="M 5201,4950 L 3786,6364 958,3536 3786,708 6615,3536 5201,4950 Z"/>
       </g>
      </g>
      <g class="com.sun.star.drawing.CustomShape">
       <g id="id8">
        <rect class="BoundingBox" stroke="none" fill="none" x="4037" y="7360" width="642" height="530"/>
        <path fill="rgb(190,190,190)" stroke="none" d="M 4678,7625 L 4678,7889 4037,7889 4037,7360 4678,7360 4678,7625 Z"/>
       </g>
      </g>
      <g class="com.sun.star.drawing.CustomShape">
       <g id="id9">
        <rect class="BoundingBox" stroke="none" fill="none" x="4036" y="7544" width="644" height="643"/>
        <path fill="rgb(190,190,190)" stroke="none" d="M 4358,7544 C 4414,7544 4469,7559 4518,7587 4567,7615 4608,7656 4636,7705 4664,7753 4679,7809 4679,7865 4679,7921 4664,7977 4636,8026 4608,8074 4567,8115 4518,8143 4469,8171 4414,8186 4358,8186 4301,8186 4246,8171 4197,8143 4148,8115 4107,8074 4079,8026 4051,7977 4036,7921 4036,7865 4036,7809 4051,7753 4079,7705 4107,7656 4148,7615 4197,7587 4246,7559 4301,7544 4358,7544 L 4358,7544 Z"/>
       </g>
      </g>
      <g class="com.sun.star.drawing.CustomShape">
       <g id="id10">
        <rect class="BoundingBox" stroke="none" fill="none" x="4036" y="7038" width="645" height="643"/>
        <path fill="rgb(190,190,190)" stroke="none" d="M 4358,7038 C 4415,7038 4470,7053 4519,7081 4568,7109 4609,7150 4637,7199 4665,7247 4680,7303 4680,7359 4680,7415 4665,7471 4637,7520 4609,7568 4568,7609 4519,7637 4470,7665 4415,7680 4358,7680 4302,7680 4247,7665 4198,7637 4149,7609 4108,7568 4080,7520 4052,7471 4037,7415 4037,7359 4037,7303 4052,7247 4080,7199 4108,7150 4149,7109 4198,7081 4247,7053 4302,7038 4358,7038 L 4358,7038 Z"/>
       </g>
      </g>
      <g class="com.sun.star.drawing.CustomShape">
       <g id="id11">
        <rect class="BoundingBox" stroke="none" fill="none" x="4126" y="7120" width="459" height="458"/>
        <path fill="rgb(0,0,254)" stroke="none" d="M 4355,7121 C 4395,7121 4434,7132 4469,7151 4504,7171 4532,7200 4552,7235 4572,7269 4583,7309 4583,7348 4583,7388 4572,7428 4552,7462 4532,7497 4504,7526 4469,7546 4434,7565 4395,7576 4355,7576 4315,7576 4276,7565 4241,7546 4206,7526 4178,7497 4158,7462 4138,7428 4127,7388 4127,7348 4127,7309 4138,7269 4158,7235 4178,7200 4206,7171 4241,7151 4276,7132 4315,7121 4355,7121 L 4355,7121 Z"/>
        <path fill="none" stroke="rgb(0,0,0)" d="M 4355,7121 C 4395,7121 4434,7132 4469,7151 4504,7171 4532,7200 4552,7235 4572,7269 4583,7309 4583,7348 4583,7388 4572,7428 4552,7462 4532,7497 4504,7526 4469,7546 4434,7565 4395,7576 4355,7576 4315,7576 4276,7565 4241,7546 4206,7526 4178,7497 4158,7462 4138,7428 4127,7388 4127,7348 4127,7309 4138,7269 4158,7235 4178,7200 4206,7171 4241,7151 4276,7132 4315,7121 4355,7121 Z"/>
       </g>
      </g>
      <g class="com.sun.star.drawing.CustomShape">
       <g id="id12">
        <rect class="BoundingBox" stroke="none" fill="none" x="4130" y="7648" width="459" height="458"/>
        <path fill="rgb(255,255,255)" stroke="none" d="M 4359,7649 C 4399,7649 4438,7660 4473,7679 4508,7699 4536,7728 4556,7763 4576,7797 4587,7837 4587,7876 4587,7916 4576,7956 4556,7990 4536,8025 4508,8054 4473,8074 4438,8093 4399,8104 4359,8104 4319,8104 4280,8093 4245,8074 4210,8054 4182,8025 4162,7990 4142,7956 4131,7916 4131,7876 4131,7837 4142,7797 4162,7763 4182,7728 4210,7699 4245,7679 4280,7660 4319,7649 4359,7649 L 4359,7649 Z"/>
        <path fill="none" stroke="rgb(0,0,0)" d="M 4359,7649 C 4399,7649 4438,7660 4473,7679 4508,7699 4536,7728 4556,7763 4576,7797 4587,7837 4587,7876 4587,7916 4576,7956 4556,7990 4536,8025 4508,8054 4473,8074 4438,8093 4399,8104 4359,8104 4319,8104 4280,8093 4245,8074 4210,8054 4182,8025 4162,7990 4142,7956 4131,7916 4131,7876 4131,7837 4142,7797 4162,7763 4182,7728 4210,7699 4245,7679 4280,7660 4319,7649 4359,7649 Z"/>
       </g>
      </g>
     </g>
    </g>
   </g>
  </g>
 </g>
</svg>